<ttFont>
    <TTGlyph name="A" xMin="16" yMin="0" xMax="378" yMax="700">
      <contour>
        <pt x="298" y="0" on="1"/>
        <pt x="267" y="182" on="1"/>
        <pt x="126" y="182" on="1"/>
        <pt x="96" y="0" on="1"/>
        <pt x="16" y="0" on="1"/>
        <pt x="144" y="700" on="1"/>
        <pt x="250" y="700" on="1"/>
        <pt x="378" y="0" on="1"/>
      </contour>
      <contour>
        <pt x="197" y="599" on="1"/>
        <pt x="137" y="246" on="1"/>
        <pt x="256" y="246" on="1"/>
      </contour>
    </TTGlyph>
    <TTGlyph name="AE" xMin="-9" yMin="0" xMax="549" yMax="700">
      <contour>
        <pt x="294" y="0" on="1"/>
        <pt x="294" y="299" on="1"/>
        <pt x="180" y="299" on="1"/>
        <pt x="76" y="0" on="1"/>
        <pt x="-9" y="0" on="1"/>
        <pt x="236" y="700" on="1"/>
        <pt x="546" y="700" on="1"/>
        <pt x="546" y="636" on="1"/>
        <pt x="373" y="636" on="1"/>
        <pt x="373" y="363" on="1"/>
        <pt x="531" y="363" on="1"/>
        <pt x="531" y="299" on="1"/>
        <pt x="373" y="299" on="1"/>
        <pt x="373" y="64" on="1"/>
        <pt x="549" y="64" on="1"/>
        <pt x="549" y="0" on="1"/>
      </contour>
      <contour>
        <pt x="294" y="363" on="1"/>
        <pt x="294" y="625" on="1"/>
        <pt x="202" y="363" on="1"/>
      </contour>
    </TTGlyph>
    <TTGlyph name="Aacute" xMin="16" yMin="0" xMax="378" yMax="916">
      <contour>
        <pt x="298" y="0" on="1"/>
        <pt x="267" y="182" on="1"/>
        <pt x="126" y="182" on="1"/>
        <pt x="96" y="0" on="1"/>
        <pt x="16" y="0" on="1"/>
        <pt x="144" y="700" on="1"/>
        <pt x="250" y="700" on="1"/>
        <pt x="378" y="0" on="1"/>
      </contour>
      <contour>
        <pt x="197" y="599" on="1"/>
        <pt x="137" y="246" on="1"/>
        <pt x="256" y="246" on="1"/>
      </contour>
      <contour>
        <pt x="116" y="798" on="1"/>
        <pt x="246" y="916" on="1"/>
        <pt x="281" y="849" on="1"/>
        <pt x="138" y="762" on="1"/>
      </contour>
    </TTGlyph>
    <TTGlyph name="Acircumflex" xMin="16" yMin="0" xMax="378" yMax="910">
      <contour>
        <pt x="298" y="0" on="1"/>
        <pt x="267" y="182" on="1"/>
        <pt x="126" y="182" on="1"/>
        <pt x="96" y="0" on="1"/>
        <pt x="16" y="0" on="1"/>
        <pt x="144" y="700" on="1"/>
        <pt x="250" y="700" on="1"/>
        <pt x="378" y="0" on="1"/>
      </contour>
      <contour>
        <pt x="197" y="599" on="1"/>
        <pt x="137" y="246" on="1"/>
        <pt x="256" y="246" on="1"/>
      </contour>
      <contour>
        <pt x="206" y="910" on="1"/>
        <pt x="298" y="794" on="1"/>
        <pt x="274" y="760" on="1"/>
        <pt x="197" y="830" on="1"/>
        <pt x="120" y="760" on="1"/>
        <pt x="97" y="794" on="1"/>
        <pt x="187" y="910" on="1"/>
      </contour>
    </TTGlyph>
    <TTGlyph name="Adieresis" xMin="16" yMin="0" xMax="378" yMax="900">
      <contour>
        <pt x="298" y="0" on="1"/>
        <pt x="267" y="182" on="1"/>
        <pt x="126" y="182" on="1"/>
        <pt x="96" y="0" on="1"/>
        <pt x="16" y="0" on="1"/>
        <pt x="144" y="700" on="1"/>
        <pt x="250" y="700" on="1"/>
        <pt x="378" y="0" on="1"/>
      </contour>
      <contour>
        <pt x="197" y="599" on="1"/>
        <pt x="137" y="246" on="1"/>
        <pt x="256" y="246" on="1"/>
      </contour>
      <contour>
        <pt x="88" y="806" on="1"/>
        <pt x="88" y="900" on="1"/>
        <pt x="169" y="900" on="1"/>
        <pt x="169" y="806" on="1"/>
      </contour>
      <contour>
        <pt x="228" y="806" on="1"/>
        <pt x="228" y="900" on="1"/>
        <pt x="308" y="900" on="1"/>
        <pt x="308" y="806" on="1"/>
      </contour>
    </TTGlyph>
    <TTGlyph name="Agrave" xMin="16" yMin="0" xMax="378" yMax="916">
      <contour>
        <pt x="298" y="0" on="1"/>
        <pt x="267" y="182" on="1"/>
        <pt x="126" y="182" on="1"/>
        <pt x="96" y="0" on="1"/>
        <pt x="16" y="0" on="1"/>
        <pt x="144" y="700" on="1"/>
        <pt x="250" y="700" on="1"/>
        <pt x="378" y="0" on="1"/>
      </contour>
      <contour>
        <pt x="197" y="599" on="1"/>
        <pt x="137" y="246" on="1"/>
        <pt x="256" y="246" on="1"/>
      </contour>
      <contour>
        <pt x="151" y="916" on="1"/>
        <pt x="281" y="798" on="1"/>
        <pt x="259" y="762" on="1"/>
        <pt x="116" y="849" on="1"/>
      </contour>
    </TTGlyph>
    <TTGlyph name="Aring" xMin="16" yMin="0" xMax="378" yMax="954">
      <contour>
        <pt x="298" y="0" on="1"/>
        <pt x="267" y="182" on="1"/>
        <pt x="126" y="182" on="1"/>
        <pt x="96" y="0" on="1"/>
        <pt x="16" y="0" on="1"/>
        <pt x="144" y="700" on="1"/>
        <pt x="250" y="700" on="1"/>
        <pt x="378" y="0" on="1"/>
      </contour>
      <contour>
        <pt x="197" y="599" on="1"/>
        <pt x="137" y="246" on="1"/>
        <pt x="256" y="246" on="1"/>
      </contour>
      <contour>
        <pt x="274" y="857" on="1"/>
        <pt x="274" y="843" on="1"/>
        <pt x="274" y="787" on="0"/>
        <pt x="234" y="746" on="0"/>
        <pt x="162" y="746" on="0"/>
        <pt x="122" y="787" on="0"/>
        <pt x="122" y="843" on="1"/>
        <pt x="122" y="857" on="1"/>
        <pt x="122" y="913" on="0"/>
        <pt x="162" y="954" on="0"/>
        <pt x="234" y="954" on="0"/>
        <pt x="274" y="913" on="0"/>
      </contour>
      <contour>
        <pt x="225" y="837" on="1"/>
        <pt x="225" y="863" on="1"/>
        <pt x="225" y="912" on="0"/>
        <pt x="171" y="912" on="0"/>
        <pt x="171" y="863" on="1"/>
        <pt x="171" y="837" on="1"/>
        <pt x="171" y="788" on="0"/>
        <pt x="225" y="788" on="0"/>
      </contour>
    </TTGlyph>
    <TTGlyph name="Atilde" xMin="16" yMin="0" xMax="378" yMax="890">
      <contour>
        <pt x="298" y="0" on="1"/>
        <pt x="267" y="182" on="1"/>
        <pt x="126" y="182" on="1"/>
        <pt x="96" y="0" on="1"/>
        <pt x="16" y="0" on="1"/>
        <pt x="144" y="700" on="1"/>
        <pt x="250" y="700" on="1"/>
        <pt x="378" y="0" on="1"/>
      </contour>
      <contour>
        <pt x="197" y="599" on="1"/>
        <pt x="137" y="246" on="1"/>
        <pt x="256" y="246" on="1"/>
      </contour>
      <contour>
        <pt x="233" y="789" on="1"/>
        <pt x="219" y="789" on="0"/>
        <pt x="168" y="818" on="0"/>
        <pt x="156" y="818" on="1"/>
        <pt x="135" y="818" on="0"/>
        <pt x="111" y="787" on="1"/>
        <pt x="88" y="825" on="1"/>
        <pt x="121" y="888" on="0"/>
        <pt x="161" y="888" on="1"/>
        <pt x="175" y="888" on="0"/>
        <pt x="226" y="860" on="0"/>
        <pt x="238" y="860" on="1"/>
        <pt x="260" y="860" on="0"/>
        <pt x="282" y="890" on="1"/>
        <pt x="306" y="852" on="1"/>
        <pt x="269" y="789" on="0"/>
      </contour>
    </TTGlyph>
    <TTGlyph name="B" xMin="63" yMin="0" xMax="348" yMax="700">
      <contour>
        <pt x="63" y="0" on="1"/>
        <pt x="63" y="700" on="1"/>
        <pt x="177" y="700" on="1"/>
        <pt x="252" y="700" on="0"/>
        <pt x="333" y="616" on="0"/>
        <pt x="333" y="511" on="1"/>
        <pt x="333" y="389" on="0"/>
        <pt x="248" y="361" on="1"/>
        <pt x="348" y="339" on="0"/>
        <pt x="348" y="200" on="1"/>
        <pt x="348" y="89" on="0"/>
        <pt x="266" y="0" on="0"/>
        <pt x="193" y="0" on="1"/>
      </contour>
      <contour>
        <pt x="270" y="181" on="1"/>
        <pt x="270" y="208" on="1"/>
        <pt x="270" y="333" on="0"/>
        <pt x="191" y="333" on="1"/>
        <pt x="143" y="333" on="1"/>
        <pt x="143" y="63" on="1"/>
        <pt x="191" y="63" on="1"/>
        <pt x="229" y="63" on="0"/>
        <pt x="270" y="115" on="0"/>
      </contour>
      <contour>
        <pt x="259" y="503" on="1"/>
        <pt x="259" y="527" on="1"/>
        <pt x="259" y="590" on="0"/>
        <pt x="219" y="637" on="0"/>
        <pt x="182" y="637" on="1"/>
        <pt x="143" y="637" on="1"/>
        <pt x="143" y="386" on="1"/>
        <pt x="182" y="386" on="1"/>
        <pt x="259" y="386" on="0"/>
      </contour>
    </TTGlyph>
    <TTGlyph name="C" xMin="49" yMin="-15" xMax="347" yMax="715">
      <contour>
        <pt x="128" y="111" on="0"/>
        <pt x="166" y="50" on="0"/>
        <pt x="236" y="50" on="0"/>
        <pt x="271" y="103" on="0"/>
        <pt x="277" y="177" on="1"/>
        <pt x="347" y="168" on="1"/>
        <pt x="338" y="66" on="0"/>
        <pt x="265" y="-15" on="0"/>
        <pt x="129" y="-15" on="0"/>
        <pt x="49" y="83" on="0"/>
        <pt x="49" y="214" on="1"/>
        <pt x="49" y="486" on="1"/>
        <pt x="49" y="617" on="0"/>
        <pt x="129" y="715" on="0"/>
        <pt x="264" y="715" on="0"/>
        <pt x="335" y="645" on="0"/>
        <pt x="343" y="555" on="1"/>
        <pt x="270" y="537" on="1"/>
        <pt x="264" y="601" on="0"/>
        <pt x="231" y="650" on="0"/>
        <pt x="166" y="650" on="0"/>
        <pt x="128" y="587" on="0"/>
        <pt x="128" y="503" on="1"/>
        <pt x="128" y="193" on="1"/>
      </contour>
    </TTGlyph>
    <TTGlyph name="Ccedilla" xMin="49" yMin="-195" xMax="347" yMax="715">
      <contour>
        <pt x="258" y="-122" on="1"/>
        <pt x="258" y="-195" on="0"/>
        <pt x="192" y="-195" on="1"/>
        <pt x="138" y="-195" on="0"/>
        <pt x="131" y="-128" on="1"/>
        <pt x="172" y="-120" on="1"/>
        <pt x="174" y="-141" on="0"/>
        <pt x="183" y="-154" on="0"/>
        <pt x="192" y="-154" on="1"/>
        <pt x="211" y="-154" on="0"/>
        <pt x="211" y="-124" on="1"/>
        <pt x="211" y="-114" on="1"/>
        <pt x="211" y="-100" on="0"/>
        <pt x="195" y="-79" on="0"/>
        <pt x="167" y="-71" on="1"/>
        <pt x="175" y="-13" on="1"/>
        <pt x="114" y="-6" on="0"/>
        <pt x="49" y="96" on="0"/>
        <pt x="49" y="214" on="1"/>
        <pt x="49" y="486" on="1"/>
        <pt x="49" y="617" on="0"/>
        <pt x="129" y="715" on="0"/>
        <pt x="264" y="715" on="0"/>
        <pt x="335" y="645" on="0"/>
        <pt x="343" y="555" on="1"/>
        <pt x="270" y="537" on="1"/>
        <pt x="264" y="601" on="0"/>
        <pt x="231" y="650" on="0"/>
        <pt x="166" y="650" on="0"/>
        <pt x="128" y="587" on="0"/>
        <pt x="128" y="503" on="1"/>
        <pt x="128" y="193" on="1"/>
        <pt x="128" y="111" on="0"/>
        <pt x="166" y="50" on="0"/>
        <pt x="236" y="50" on="0"/>
        <pt x="271" y="103" on="0"/>
        <pt x="277" y="177" on="1"/>
        <pt x="347" y="168" on="1"/>
        <pt x="338" y="66" on="0"/>
        <pt x="267" y="-14" on="0"/>
        <pt x="206" y="-15" on="1"/>
        <pt x="203" y="-49" on="1"/>
        <pt x="258" y="-65" on="0"/>
      </contour>
    </TTGlyph>
    <TTGlyph name="D" xMin="63" yMin="0" xMax="357" yMax="700">
      <contour>
        <pt x="63" y="0" on="1"/>
        <pt x="63" y="700" on="1"/>
        <pt x="199" y="700" on="1"/>
        <pt x="275" y="700" on="0"/>
        <pt x="357" y="603" on="0"/>
        <pt x="357" y="476" on="1"/>
        <pt x="357" y="224" on="1"/>
        <pt x="357" y="97" on="0"/>
        <pt x="275" y="0" on="0"/>
        <pt x="199" y="0" on="1"/>
      </contour>
      <contour>
        <pt x="278" y="206" on="1"/>
        <pt x="278" y="493" on="1"/>
        <pt x="278" y="636" on="0"/>
        <pt x="199" y="636" on="1"/>
        <pt x="143" y="636" on="1"/>
        <pt x="143" y="63" on="1"/>
        <pt x="199" y="63" on="1"/>
        <pt x="278" y="63" on="0"/>
      </contour>
    </TTGlyph>
    <TTGlyph name="Delta" xMin="16" yMin="0" xMax="378" yMax="700">
      <contour>
        <pt x="250" y="700" on="1"/>
        <pt x="378" y="0" on="1"/>
        <pt x="16" y="0" on="1"/>
        <pt x="144" y="700" on="1"/>
      </contour>
      <contour>
        <pt x="196" y="588" on="1"/>
        <pt x="107" y="64" on="1"/>
        <pt x="285" y="64" on="1"/>
      </contour>
    </TTGlyph>
    <TTGlyph name="E" xMin="63" yMin="0" xMax="317" yMax="700">
      <contour>
        <pt x="143" y="317" on="1"/>
        <pt x="143" y="64" on="1"/>
        <pt x="317" y="64" on="1"/>
        <pt x="317" y="0" on="1"/>
        <pt x="63" y="0" on="1"/>
        <pt x="63" y="700" on="1"/>
        <pt x="314" y="700" on="1"/>
        <pt x="314" y="636" on="1"/>
        <pt x="143" y="636" on="1"/>
        <pt x="143" y="381" on="1"/>
        <pt x="299" y="381" on="1"/>
        <pt x="299" y="317" on="1"/>
      </contour>
    </TTGlyph>
    <TTGlyph name="Eacute" xMin="63" yMin="0" xMax="317" yMax="916">
      <contour>
        <pt x="143" y="317" on="1"/>
        <pt x="143" y="64" on="1"/>
        <pt x="317" y="64" on="1"/>
        <pt x="317" y="0" on="1"/>
        <pt x="63" y="0" on="1"/>
        <pt x="63" y="700" on="1"/>
        <pt x="314" y="700" on="1"/>
        <pt x="314" y="636" on="1"/>
        <pt x="143" y="636" on="1"/>
        <pt x="143" y="381" on="1"/>
        <pt x="299" y="381" on="1"/>
        <pt x="299" y="317" on="1"/>
      </contour>
      <contour>
        <pt x="120" y="798" on="1"/>
        <pt x="250" y="916" on="1"/>
        <pt x="285" y="849" on="1"/>
        <pt x="142" y="762" on="1"/>
      </contour>
    </TTGlyph>
    <TTGlyph name="Ecircumflex" xMin="63" yMin="0" xMax="317" yMax="910">
      <contour>
        <pt x="143" y="317" on="1"/>
        <pt x="143" y="64" on="1"/>
        <pt x="317" y="64" on="1"/>
        <pt x="317" y="0" on="1"/>
        <pt x="63" y="0" on="1"/>
        <pt x="63" y="700" on="1"/>
        <pt x="314" y="700" on="1"/>
        <pt x="314" y="636" on="1"/>
        <pt x="143" y="636" on="1"/>
        <pt x="143" y="381" on="1"/>
        <pt x="299" y="381" on="1"/>
        <pt x="299" y="317" on="1"/>
      </contour>
      <contour>
        <pt x="203" y="910" on="1"/>
        <pt x="295" y="794" on="1"/>
        <pt x="271" y="760" on="1"/>
        <pt x="194" y="830" on="1"/>
        <pt x="117" y="760" on="1"/>
        <pt x="94" y="794" on="1"/>
        <pt x="184" y="910" on="1"/>
      </contour>
    </TTGlyph>
    <TTGlyph name="Edieresis" xMin="63" yMin="0" xMax="317" yMax="900">
      <contour>
        <pt x="143" y="317" on="1"/>
        <pt x="143" y="64" on="1"/>
        <pt x="317" y="64" on="1"/>
        <pt x="317" y="0" on="1"/>
        <pt x="63" y="0" on="1"/>
        <pt x="63" y="700" on="1"/>
        <pt x="314" y="700" on="1"/>
        <pt x="314" y="636" on="1"/>
        <pt x="143" y="636" on="1"/>
        <pt x="143" y="381" on="1"/>
        <pt x="299" y="381" on="1"/>
        <pt x="299" y="317" on="1"/>
      </contour>
      <contour>
        <pt x="70" y="806" on="1"/>
        <pt x="70" y="900" on="1"/>
        <pt x="151" y="900" on="1"/>
        <pt x="151" y="806" on="1"/>
      </contour>
      <contour>
        <pt x="210" y="806" on="1"/>
        <pt x="210" y="900" on="1"/>
        <pt x="290" y="900" on="1"/>
        <pt x="290" y="806" on="1"/>
      </contour>
    </TTGlyph>
    <TTGlyph name="Egrave" xMin="63" yMin="0" xMax="317" yMax="916">
      <contour>
        <pt x="143" y="317" on="1"/>
        <pt x="143" y="64" on="1"/>
        <pt x="317" y="64" on="1"/>
        <pt x="317" y="0" on="1"/>
        <pt x="63" y="0" on="1"/>
        <pt x="63" y="700" on="1"/>
        <pt x="314" y="700" on="1"/>
        <pt x="314" y="636" on="1"/>
        <pt x="143" y="636" on="1"/>
        <pt x="143" y="381" on="1"/>
        <pt x="299" y="381" on="1"/>
        <pt x="299" y="317" on="1"/>
      </contour>
      <contour>
        <pt x="133" y="916" on="1"/>
        <pt x="263" y="798" on="1"/>
        <pt x="241" y="762" on="1"/>
        <pt x="98" y="849" on="1"/>
      </contour>
    </TTGlyph>
    <TTGlyph name="Eth" xMin="16" yMin="0" xMax="357" yMax="700">
      <contour>
        <pt x="16" y="324" on="1"/>
        <pt x="16" y="376" on="1"/>
        <pt x="63" y="376" on="1"/>
        <pt x="63" y="700" on="1"/>
        <pt x="199" y="700" on="1"/>
        <pt x="275" y="700" on="0"/>
        <pt x="357" y="603" on="0"/>
        <pt x="357" y="476" on="1"/>
        <pt x="357" y="224" on="1"/>
        <pt x="357" y="97" on="0"/>
        <pt x="275" y="0" on="0"/>
        <pt x="199" y="0" on="1"/>
        <pt x="63" y="0" on="1"/>
        <pt x="63" y="324" on="1"/>
      </contour>
      <contour>
        <pt x="278" y="206" on="1"/>
        <pt x="278" y="493" on="1"/>
        <pt x="278" y="636" on="0"/>
        <pt x="199" y="636" on="1"/>
        <pt x="143" y="636" on="1"/>
        <pt x="143" y="376" on="1"/>
        <pt x="221" y="376" on="1"/>
        <pt x="221" y="324" on="1"/>
        <pt x="143" y="324" on="1"/>
        <pt x="143" y="63" on="1"/>
        <pt x="199" y="63" on="1"/>
        <pt x="278" y="63" on="0"/>
      </contour>
    </TTGlyph>
    <TTGlyph name="Euro" xMin="12" yMin="-15" xMax="354" yMax="715">
      <contour>
        <pt x="12" y="404" on="1"/>
        <pt x="12" y="456" on="1"/>
        <pt x="51" y="456" on="1"/>
        <pt x="51" y="486" on="1"/>
        <pt x="51" y="617" on="0"/>
        <pt x="132" y="715" on="0"/>
        <pt x="268" y="715" on="0"/>
        <pt x="340" y="651" on="0"/>
        <pt x="348" y="569" on="1"/>
        <pt x="274" y="558" on="1"/>
        <pt x="268" y="611" on="0"/>
        <pt x="236" y="650" on="0"/>
        <pt x="170" y="650" on="0"/>
        <pt x="129" y="587" on="0"/>
        <pt x="129" y="503" on="1"/>
        <pt x="129" y="456" on="1"/>
        <pt x="249" y="456" on="1"/>
        <pt x="249" y="404" on="1"/>
        <pt x="129" y="404" on="1"/>
        <pt x="129" y="306" on="1"/>
        <pt x="249" y="306" on="1"/>
        <pt x="249" y="254" on="1"/>
        <pt x="129" y="254" on="1"/>
        <pt x="129" y="193" on="1"/>
        <pt x="129" y="112" on="0"/>
        <pt x="170" y="50" on="0"/>
        <pt x="240" y="50" on="0"/>
        <pt x="275" y="96" on="0"/>
        <pt x="281" y="161" on="1"/>
        <pt x="354" y="155" on="1"/>
        <pt x="346" y="60" on="0"/>
        <pt x="272" y="-15" on="0"/>
        <pt x="132" y="-15" on="0"/>
        <pt x="51" y="83" on="0"/>
        <pt x="51" y="214" on="1"/>
        <pt x="51" y="254" on="1"/>
        <pt x="12" y="254" on="1"/>
        <pt x="12" y="306" on="1"/>
        <pt x="51" y="306" on="1"/>
        <pt x="51" y="404" on="1"/>
      </contour>
    </TTGlyph>
    <TTGlyph name="F" xMin="63" yMin="0" xMax="303" yMax="700">
      <contour>
        <pt x="143" y="317" on="1"/>
        <pt x="143" y="0" on="1"/>
        <pt x="63" y="0" on="1"/>
        <pt x="63" y="700" on="1"/>
        <pt x="303" y="700" on="1"/>
        <pt x="303" y="636" on="1"/>
        <pt x="143" y="636" on="1"/>
        <pt x="143" y="381" on="1"/>
        <pt x="288" y="381" on="1"/>
        <pt x="288" y="317" on="1"/>
      </contour>
    </TTGlyph>
    <TTGlyph name="G" xMin="49" yMin="-15" xMax="352" yMax="715">
      <contour>
        <pt x="195" y="307" on="1"/>
        <pt x="195" y="371" on="1"/>
        <pt x="352" y="371" on="1"/>
        <pt x="352" y="1" on="1"/>
        <pt x="303" y="1" on="1"/>
        <pt x="289" y="66" on="1"/>
        <pt x="259" y="-15" on="0"/>
        <pt x="181" y="-15" on="1"/>
        <pt x="118" y="-15" on="0"/>
        <pt x="49" y="82" on="0"/>
        <pt x="49" y="209" on="1"/>
        <pt x="49" y="486" on="1"/>
        <pt x="49" y="617" on="0"/>
        <pt x="129" y="715" on="0"/>
        <pt x="264" y="715" on="0"/>
        <pt x="335" y="645" on="0"/>
        <pt x="343" y="555" on="1"/>
        <pt x="270" y="537" on="1"/>
        <pt x="264" y="601" on="0"/>
        <pt x="231" y="650" on="0"/>
        <pt x="166" y="650" on="0"/>
        <pt x="128" y="587" on="0"/>
        <pt x="128" y="503" on="1"/>
        <pt x="128" y="194" on="1"/>
        <pt x="128" y="112" on="0"/>
        <pt x="165" y="50" on="0"/>
        <pt x="199" y="50" on="1"/>
        <pt x="275" y="50" on="0"/>
        <pt x="277" y="185" on="1"/>
        <pt x="277" y="307" on="1"/>
      </contour>
    </TTGlyph>
    <TTGlyph name="H" xMin="63" yMin="0" xMax="373" yMax="700">
      <contour>
        <pt x="294" y="0" on="1"/>
        <pt x="294" y="317" on="1"/>
        <pt x="143" y="317" on="1"/>
        <pt x="143" y="0" on="1"/>
        <pt x="63" y="0" on="1"/>
        <pt x="63" y="700" on="1"/>
        <pt x="143" y="700" on="1"/>
        <pt x="143" y="381" on="1"/>
        <pt x="294" y="381" on="1"/>
        <pt x="294" y="700" on="1"/>
        <pt x="373" y="700" on="1"/>
        <pt x="373" y="0" on="1"/>
      </contour>
    </TTGlyph>
    <TTGlyph name="I" xMin="63" yMin="0" xMax="143" yMax="700">
      <contour>
        <pt x="63" y="0" on="1"/>
        <pt x="63" y="700" on="1"/>
        <pt x="143" y="700" on="1"/>
        <pt x="143" y="0" on="1"/>
      </contour>
    </TTGlyph>
    <TTGlyph name="Iacute" xMin="21" yMin="0" xMax="186" yMax="916">
      <contour>
        <pt x="63" y="0" on="1"/>
        <pt x="63" y="700" on="1"/>
        <pt x="143" y="700" on="1"/>
        <pt x="143" y="0" on="1"/>
      </contour>
      <contour>
        <pt x="21" y="798" on="1"/>
        <pt x="151" y="916" on="1"/>
        <pt x="186" y="849" on="1"/>
        <pt x="43" y="762" on="1"/>
      </contour>
    </TTGlyph>
    <TTGlyph name="Icircumflex" xMin="3" yMin="0" xMax="204" yMax="910">
      <contour>
        <pt x="63" y="0" on="1"/>
        <pt x="63" y="700" on="1"/>
        <pt x="143" y="700" on="1"/>
        <pt x="143" y="0" on="1"/>
      </contour>
      <contour>
        <pt x="112" y="910" on="1"/>
        <pt x="204" y="794" on="1"/>
        <pt x="180" y="760" on="1"/>
        <pt x="103" y="830" on="1"/>
        <pt x="26" y="760" on="1"/>
        <pt x="3" y="794" on="1"/>
        <pt x="93" y="910" on="1"/>
      </contour>
    </TTGlyph>
    <TTGlyph name="Idieresis" xMin="-6" yMin="0" xMax="214" yMax="900">
      <contour>
        <pt x="63" y="0" on="1"/>
        <pt x="63" y="700" on="1"/>
        <pt x="143" y="700" on="1"/>
        <pt x="143" y="0" on="1"/>
      </contour>
      <contour>
        <pt x="-6" y="806" on="1"/>
        <pt x="-6" y="900" on="1"/>
        <pt x="75" y="900" on="1"/>
        <pt x="75" y="806" on="1"/>
      </contour>
      <contour>
        <pt x="134" y="806" on="1"/>
        <pt x="134" y="900" on="1"/>
        <pt x="214" y="900" on="1"/>
        <pt x="214" y="806" on="1"/>
      </contour>
    </TTGlyph>
    <TTGlyph name="Igrave" xMin="21" yMin="0" xMax="186" yMax="916">
      <contour>
        <pt x="63" y="0" on="1"/>
        <pt x="63" y="700" on="1"/>
        <pt x="143" y="700" on="1"/>
        <pt x="143" y="0" on="1"/>
      </contour>
      <contour>
        <pt x="56" y="916" on="1"/>
        <pt x="186" y="798" on="1"/>
        <pt x="164" y="762" on="1"/>
        <pt x="21" y="849" on="1"/>
      </contour>
    </TTGlyph>
    <TTGlyph name="J" xMin="10" yMin="-15" xMax="242" yMax="700">
      <contour>
        <pt x="86" y="81" on="0"/>
        <pt x="107" y="48" on="0"/>
        <pt x="125" y="48" on="1"/>
        <pt x="163" y="48" on="0"/>
        <pt x="163" y="141" on="1"/>
        <pt x="163" y="700" on="1"/>
        <pt x="242" y="700" on="1"/>
        <pt x="242" y="157" on="1"/>
        <pt x="242" y="-15" on="0"/>
        <pt x="121" y="-15" on="1"/>
        <pt x="81" y="-15" on="0"/>
        <pt x="16" y="46" on="0"/>
        <pt x="10" y="118" on="1"/>
        <pt x="82" y="128" on="1"/>
      </contour>
    </TTGlyph>
    <TTGlyph name="K" xMin="63" yMin="0" xMax="376" yMax="700">
      <contour>
        <pt x="143" y="0" on="1"/>
        <pt x="63" y="0" on="1"/>
        <pt x="63" y="700" on="1"/>
        <pt x="143" y="700" on="1"/>
        <pt x="143" y="404" on="1"/>
        <pt x="290" y="700" on="1"/>
        <pt x="370" y="700" on="1"/>
        <pt x="217" y="399" on="1"/>
        <pt x="376" y="0" on="1"/>
        <pt x="296" y="0" on="1"/>
        <pt x="175" y="315" on="1"/>
        <pt x="143" y="252" on="1"/>
      </contour>
    </TTGlyph>
    <TTGlyph name="L" xMin="63" yMin="0" xMax="298" yMax="700">
      <contour>
        <pt x="63" y="0" on="1"/>
        <pt x="63" y="700" on="1"/>
        <pt x="143" y="700" on="1"/>
        <pt x="143" y="64" on="1"/>
        <pt x="298" y="64" on="1"/>
        <pt x="298" y="0" on="1"/>
      </contour>
    </TTGlyph>
    <TTGlyph name="Lslash" xMin="18" yMin="0" xMax="298" yMax="700">
      <contour>
        <pt x="63" y="700" on="1"/>
        <pt x="143" y="700" on="1"/>
        <pt x="143" y="396" on="1"/>
        <pt x="223" y="435" on="1"/>
        <pt x="223" y="381" on="1"/>
        <pt x="143" y="342" on="1"/>
        <pt x="143" y="64" on="1"/>
        <pt x="298" y="64" on="1"/>
        <pt x="298" y="0" on="1"/>
        <pt x="63" y="0" on="1"/>
        <pt x="63" y="303" on="1"/>
        <pt x="18" y="281" on="1"/>
        <pt x="18" y="336" on="1"/>
        <pt x="63" y="357" on="1"/>
      </contour>
    </TTGlyph>
    <TTGlyph name="M" xMin="63" yMin="0" xMax="478" yMax="700">
      <contour>
        <pt x="141" y="0" on="1"/>
        <pt x="63" y="0" on="1"/>
        <pt x="63" y="700" on="1"/>
        <pt x="185" y="700" on="1"/>
        <pt x="270" y="215" on="1"/>
        <pt x="356" y="700" on="1"/>
        <pt x="478" y="700" on="1"/>
        <pt x="478" y="0" on="1"/>
        <pt x="400" y="0" on="1"/>
        <pt x="400" y="632" on="1"/>
        <pt x="315" y="150" on="1"/>
        <pt x="226" y="150" on="1"/>
        <pt x="141" y="632" on="1"/>
      </contour>
    </TTGlyph>
    <TTGlyph name="N" xMin="63" yMin="0" xMax="387" yMax="700">
      <contour>
        <pt x="141" y="0" on="1"/>
        <pt x="63" y="0" on="1"/>
        <pt x="63" y="700" on="1"/>
        <pt x="146" y="700" on="1"/>
        <pt x="309" y="188" on="1"/>
        <pt x="309" y="700" on="1"/>
        <pt x="387" y="700" on="1"/>
        <pt x="387" y="0" on="1"/>
        <pt x="304" y="0" on="1"/>
        <pt x="141" y="511" on="1"/>
      </contour>
    </TTGlyph>
    <TTGlyph name="Ntilde" xMin="63" yMin="0" xMax="387" yMax="890">
      <contour>
        <pt x="141" y="0" on="1"/>
        <pt x="63" y="0" on="1"/>
        <pt x="63" y="700" on="1"/>
        <pt x="146" y="700" on="1"/>
        <pt x="309" y="188" on="1"/>
        <pt x="309" y="700" on="1"/>
        <pt x="387" y="700" on="1"/>
        <pt x="387" y="0" on="1"/>
        <pt x="304" y="0" on="1"/>
        <pt x="141" y="511" on="1"/>
      </contour>
      <contour>
        <pt x="262" y="789" on="1"/>
        <pt x="248" y="789" on="0"/>
        <pt x="197" y="818" on="0"/>
        <pt x="185" y="818" on="1"/>
        <pt x="164" y="818" on="0"/>
        <pt x="140" y="787" on="1"/>
        <pt x="117" y="825" on="1"/>
        <pt x="150" y="888" on="0"/>
        <pt x="190" y="888" on="1"/>
        <pt x="204" y="888" on="0"/>
        <pt x="255" y="860" on="0"/>
        <pt x="267" y="860" on="1"/>
        <pt x="289" y="860" on="0"/>
        <pt x="311" y="890" on="1"/>
        <pt x="335" y="852" on="1"/>
        <pt x="298" y="789" on="0"/>
      </contour>
    </TTGlyph>
    <TTGlyph name="O" xMin="49" yMin="-15" xMax="362" yMax="715">
      <contour>
        <pt x="362" y="491" on="1"/>
        <pt x="362" y="209" on="1"/>
        <pt x="362" y="82" on="0"/>
        <pt x="281" y="-15" on="0"/>
        <pt x="130" y="-15" on="0"/>
        <pt x="49" y="82" on="0"/>
        <pt x="49" y="209" on="1"/>
        <pt x="49" y="491" on="1"/>
        <pt x="49" y="618" on="0"/>
        <pt x="130" y="715" on="0"/>
        <pt x="281" y="715" on="0"/>
        <pt x="362" y="618" on="0"/>
      </contour>
      <contour>
        <pt x="283" y="194" on="1"/>
        <pt x="283" y="506" on="1"/>
        <pt x="283" y="650" on="0"/>
        <pt x="206" y="650" on="1"/>
        <pt x="169" y="650" on="0"/>
        <pt x="128" y="588" on="0"/>
        <pt x="128" y="506" on="1"/>
        <pt x="128" y="194" on="1"/>
        <pt x="128" y="112" on="0"/>
        <pt x="169" y="50" on="0"/>
        <pt x="206" y="50" on="1"/>
        <pt x="283" y="50" on="0"/>
      </contour>
    </TTGlyph>
    <TTGlyph name="OE" xMin="49" yMin="-15" xMax="537" yMax="715">
      <contour>
        <pt x="362" y="491" on="1"/>
        <pt x="362" y="381" on="1"/>
        <pt x="519" y="381" on="1"/>
        <pt x="519" y="317" on="1"/>
        <pt x="362" y="317" on="1"/>
        <pt x="362" y="209" on="1"/>
        <pt x="362" y="115" on="0"/>
        <pt x="339" y="64" on="1"/>
        <pt x="537" y="64" on="1"/>
        <pt x="537" y="0" on="1"/>
        <pt x="281" y="0" on="1"/>
        <pt x="251" y="-15" on="0"/>
        <pt x="206" y="-15" on="1"/>
        <pt x="130" y="-15" on="0"/>
        <pt x="49" y="82" on="0"/>
        <pt x="49" y="209" on="1"/>
        <pt x="49" y="491" on="1"/>
        <pt x="49" y="618" on="0"/>
        <pt x="130" y="715" on="0"/>
        <pt x="206" y="715" on="1"/>
        <pt x="251" y="715" on="0"/>
        <pt x="281" y="700" on="1"/>
        <pt x="533" y="700" on="1"/>
        <pt x="533" y="636" on="1"/>
        <pt x="339" y="636" on="1"/>
        <pt x="362" y="584" on="0"/>
      </contour>
      <contour>
        <pt x="283" y="194" on="1"/>
        <pt x="283" y="506" on="1"/>
        <pt x="283" y="650" on="0"/>
        <pt x="206" y="650" on="1"/>
        <pt x="169" y="650" on="0"/>
        <pt x="128" y="588" on="0"/>
        <pt x="128" y="506" on="1"/>
        <pt x="128" y="194" on="1"/>
        <pt x="128" y="112" on="0"/>
        <pt x="169" y="50" on="0"/>
        <pt x="206" y="50" on="1"/>
        <pt x="283" y="50" on="0"/>
      </contour>
    </TTGlyph>
    <TTGlyph name="Oacute" xMin="49" yMin="-15" xMax="362" yMax="916">
      <contour>
        <pt x="362" y="491" on="1"/>
        <pt x="362" y="209" on="1"/>
        <pt x="362" y="82" on="0"/>
        <pt x="281" y="-15" on="0"/>
        <pt x="130" y="-15" on="0"/>
        <pt x="49" y="82" on="0"/>
        <pt x="49" y="209" on="1"/>
        <pt x="49" y="491" on="1"/>
        <pt x="49" y="618" on="0"/>
        <pt x="130" y="715" on="0"/>
        <pt x="281" y="715" on="0"/>
        <pt x="362" y="618" on="0"/>
      </contour>
      <contour>
        <pt x="283" y="194" on="1"/>
        <pt x="283" y="506" on="1"/>
        <pt x="283" y="650" on="0"/>
        <pt x="206" y="650" on="1"/>
        <pt x="169" y="650" on="0"/>
        <pt x="128" y="588" on="0"/>
        <pt x="128" y="506" on="1"/>
        <pt x="128" y="194" on="1"/>
        <pt x="128" y="112" on="0"/>
        <pt x="169" y="50" on="0"/>
        <pt x="206" y="50" on="1"/>
        <pt x="283" y="50" on="0"/>
      </contour>
      <contour>
        <pt x="124" y="798" on="1"/>
        <pt x="254" y="916" on="1"/>
        <pt x="289" y="849" on="1"/>
        <pt x="146" y="762" on="1"/>
      </contour>
    </TTGlyph>
    <TTGlyph name="Ocircumflex" xMin="49" yMin="-15" xMax="362" yMax="910">
      <contour>
        <pt x="362" y="491" on="1"/>
        <pt x="362" y="209" on="1"/>
        <pt x="362" y="82" on="0"/>
        <pt x="281" y="-15" on="0"/>
        <pt x="130" y="-15" on="0"/>
        <pt x="49" y="82" on="0"/>
        <pt x="49" y="209" on="1"/>
        <pt x="49" y="491" on="1"/>
        <pt x="49" y="618" on="0"/>
        <pt x="130" y="715" on="0"/>
        <pt x="281" y="715" on="0"/>
        <pt x="362" y="618" on="0"/>
      </contour>
      <contour>
        <pt x="283" y="194" on="1"/>
        <pt x="283" y="506" on="1"/>
        <pt x="283" y="650" on="0"/>
        <pt x="206" y="650" on="1"/>
        <pt x="169" y="650" on="0"/>
        <pt x="128" y="588" on="0"/>
        <pt x="128" y="506" on="1"/>
        <pt x="128" y="194" on="1"/>
        <pt x="128" y="112" on="0"/>
        <pt x="169" y="50" on="0"/>
        <pt x="206" y="50" on="1"/>
        <pt x="283" y="50" on="0"/>
      </contour>
      <contour>
        <pt x="215" y="910" on="1"/>
        <pt x="307" y="794" on="1"/>
        <pt x="283" y="760" on="1"/>
        <pt x="206" y="830" on="1"/>
        <pt x="129" y="760" on="1"/>
        <pt x="106" y="794" on="1"/>
        <pt x="196" y="910" on="1"/>
      </contour>
    </TTGlyph>
    <TTGlyph name="Odieresis" xMin="49" yMin="-15" xMax="362" yMax="900">
      <contour>
        <pt x="362" y="491" on="1"/>
        <pt x="362" y="209" on="1"/>
        <pt x="362" y="82" on="0"/>
        <pt x="281" y="-15" on="0"/>
        <pt x="130" y="-15" on="0"/>
        <pt x="49" y="82" on="0"/>
        <pt x="49" y="209" on="1"/>
        <pt x="49" y="491" on="1"/>
        <pt x="49" y="618" on="0"/>
        <pt x="130" y="715" on="0"/>
        <pt x="281" y="715" on="0"/>
        <pt x="362" y="618" on="0"/>
      </contour>
      <contour>
        <pt x="283" y="194" on="1"/>
        <pt x="283" y="506" on="1"/>
        <pt x="283" y="650" on="0"/>
        <pt x="206" y="650" on="1"/>
        <pt x="169" y="650" on="0"/>
        <pt x="128" y="588" on="0"/>
        <pt x="128" y="506" on="1"/>
        <pt x="128" y="194" on="1"/>
        <pt x="128" y="112" on="0"/>
        <pt x="169" y="50" on="0"/>
        <pt x="206" y="50" on="1"/>
        <pt x="283" y="50" on="0"/>
      </contour>
      <contour>
        <pt x="96" y="806" on="1"/>
        <pt x="96" y="900" on="1"/>
        <pt x="177" y="900" on="1"/>
        <pt x="177" y="806" on="1"/>
      </contour>
      <contour>
        <pt x="236" y="806" on="1"/>
        <pt x="236" y="900" on="1"/>
        <pt x="316" y="900" on="1"/>
        <pt x="316" y="806" on="1"/>
      </contour>
    </TTGlyph>
    <TTGlyph name="Ograve" xMin="49" yMin="-15" xMax="362" yMax="916">
      <contour>
        <pt x="362" y="491" on="1"/>
        <pt x="362" y="209" on="1"/>
        <pt x="362" y="82" on="0"/>
        <pt x="281" y="-15" on="0"/>
        <pt x="130" y="-15" on="0"/>
        <pt x="49" y="82" on="0"/>
        <pt x="49" y="209" on="1"/>
        <pt x="49" y="491" on="1"/>
        <pt x="49" y="618" on="0"/>
        <pt x="130" y="715" on="0"/>
        <pt x="281" y="715" on="0"/>
        <pt x="362" y="618" on="0"/>
      </contour>
      <contour>
        <pt x="283" y="194" on="1"/>
        <pt x="283" y="506" on="1"/>
        <pt x="283" y="650" on="0"/>
        <pt x="206" y="650" on="1"/>
        <pt x="169" y="650" on="0"/>
        <pt x="128" y="588" on="0"/>
        <pt x="128" y="506" on="1"/>
        <pt x="128" y="194" on="1"/>
        <pt x="128" y="112" on="0"/>
        <pt x="169" y="50" on="0"/>
        <pt x="206" y="50" on="1"/>
        <pt x="283" y="50" on="0"/>
      </contour>
      <contour>
        <pt x="159" y="916" on="1"/>
        <pt x="289" y="798" on="1"/>
        <pt x="267" y="762" on="1"/>
        <pt x="124" y="849" on="1"/>
      </contour>
    </TTGlyph>
    <TTGlyph name="Omega" xMin="46" yMin="0" xMax="416" yMax="715">
      <contour>
        <pt x="256" y="0" on="1"/>
        <pt x="256" y="223" on="1"/>
        <pt x="338" y="235" on="0"/>
        <pt x="338" y="366" on="1"/>
        <pt x="338" y="506" on="1"/>
        <pt x="338" y="587" on="0"/>
        <pt x="283" y="650" on="0"/>
        <pt x="183" y="650" on="0"/>
        <pt x="127" y="587" on="0"/>
        <pt x="127" y="506" on="1"/>
        <pt x="127" y="366" on="1"/>
        <pt x="127" y="238" on="0"/>
        <pt x="201" y="223" on="1"/>
        <pt x="207" y="223" on="1"/>
        <pt x="207" y="0" on="1"/>
        <pt x="46" y="0" on="1"/>
        <pt x="46" y="64" on="1"/>
        <pt x="138" y="64" on="1"/>
        <pt x="138" y="175" on="1"/>
        <pt x="49" y="218" on="0"/>
        <pt x="49" y="381" on="1"/>
        <pt x="49" y="491" on="1"/>
        <pt x="49" y="618" on="0"/>
        <pt x="144" y="715" on="0"/>
        <pt x="321" y="715" on="0"/>
        <pt x="416" y="618" on="0"/>
        <pt x="416" y="491" on="1"/>
        <pt x="416" y="381" on="1"/>
        <pt x="416" y="218" on="0"/>
        <pt x="326" y="175" on="1"/>
        <pt x="326" y="64" on="1"/>
        <pt x="416" y="64" on="1"/>
        <pt x="416" y="0" on="1"/>
      </contour>
    </TTGlyph>
    <TTGlyph name="Oslash" xMin="49" yMin="-52" xMax="362" yMax="752">
      <contour>
        <pt x="49" y="209" on="1"/>
        <pt x="49" y="491" on="1"/>
        <pt x="49" y="618" on="0"/>
        <pt x="130" y="715" on="0"/>
        <pt x="206" y="715" on="1"/>
        <pt x="234" y="715" on="0"/>
        <pt x="256" y="709" on="1"/>
        <pt x="266" y="752" on="1"/>
        <pt x="318" y="752" on="1"/>
        <pt x="303" y="685" on="1"/>
        <pt x="362" y="634" on="0"/>
        <pt x="362" y="491" on="1"/>
        <pt x="362" y="209" on="1"/>
        <pt x="362" y="82" on="0"/>
        <pt x="281" y="-15" on="0"/>
        <pt x="206" y="-15" on="1"/>
        <pt x="178" y="-15" on="0"/>
        <pt x="155" y="-9" on="1"/>
        <pt x="146" y="-52" on="1"/>
        <pt x="94" y="-52" on="1"/>
        <pt x="108" y="14" on="1"/>
        <pt x="49" y="62" on="0"/>
      </contour>
      <contour>
        <pt x="128" y="194" on="1"/>
        <pt x="128" y="153" on="0"/>
        <pt x="132" y="129" on="1"/>
        <pt x="242" y="640" on="1"/>
        <pt x="226" y="650" on="0"/>
        <pt x="206" y="650" on="1"/>
        <pt x="169" y="650" on="0"/>
        <pt x="128" y="588" on="0"/>
        <pt x="128" y="506" on="1"/>
      </contour>
      <contour>
        <pt x="283" y="194" on="1"/>
        <pt x="283" y="506" on="1"/>
        <pt x="283" y="540" on="0"/>
        <pt x="278" y="568" on="1"/>
        <pt x="169" y="59" on="1"/>
        <pt x="183" y="50" on="0"/>
        <pt x="206" y="50" on="1"/>
        <pt x="283" y="50" on="0"/>
      </contour>
    </TTGlyph>
    <TTGlyph name="Otilde" xMin="49" yMin="-15" xMax="362" yMax="890">
      <contour>
        <pt x="362" y="491" on="1"/>
        <pt x="362" y="209" on="1"/>
        <pt x="362" y="82" on="0"/>
        <pt x="281" y="-15" on="0"/>
        <pt x="130" y="-15" on="0"/>
        <pt x="49" y="82" on="0"/>
        <pt x="49" y="209" on="1"/>
        <pt x="49" y="491" on="1"/>
        <pt x="49" y="618" on="0"/>
        <pt x="130" y="715" on="0"/>
        <pt x="281" y="715" on="0"/>
        <pt x="362" y="618" on="0"/>
      </contour>
      <contour>
        <pt x="283" y="194" on="1"/>
        <pt x="283" y="506" on="1"/>
        <pt x="283" y="650" on="0"/>
        <pt x="206" y="650" on="1"/>
        <pt x="169" y="650" on="0"/>
        <pt x="128" y="588" on="0"/>
        <pt x="128" y="506" on="1"/>
        <pt x="128" y="194" on="1"/>
        <pt x="128" y="112" on="0"/>
        <pt x="169" y="50" on="0"/>
        <pt x="206" y="50" on="1"/>
        <pt x="283" y="50" on="0"/>
      </contour>
      <contour>
        <pt x="242" y="789" on="1"/>
        <pt x="228" y="789" on="0"/>
        <pt x="177" y="818" on="0"/>
        <pt x="165" y="818" on="1"/>
        <pt x="144" y="818" on="0"/>
        <pt x="120" y="787" on="1"/>
        <pt x="97" y="825" on="1"/>
        <pt x="130" y="888" on="0"/>
        <pt x="170" y="888" on="1"/>
        <pt x="184" y="888" on="0"/>
        <pt x="235" y="860" on="0"/>
        <pt x="247" y="860" on="1"/>
        <pt x="269" y="860" on="0"/>
        <pt x="291" y="890" on="1"/>
        <pt x="315" y="852" on="1"/>
        <pt x="278" y="789" on="0"/>
      </contour>
    </TTGlyph>
    <TTGlyph name="P" xMin="63" yMin="0" xMax="343" yMax="700">
      <contour>
        <pt x="63" y="0" on="1"/>
        <pt x="63" y="700" on="1"/>
        <pt x="187" y="700" on="1"/>
        <pt x="262" y="700" on="0"/>
        <pt x="343" y="603" on="0"/>
        <pt x="343" y="476" on="1"/>
        <pt x="343" y="471" on="1"/>
        <pt x="343" y="344" on="0"/>
        <pt x="262" y="248" on="0"/>
        <pt x="187" y="248" on="1"/>
        <pt x="143" y="248" on="1"/>
        <pt x="143" y="0" on="1"/>
      </contour>
      <contour>
        <pt x="264" y="458" on="1"/>
        <pt x="264" y="489" on="1"/>
        <pt x="264" y="636" on="0"/>
        <pt x="187" y="636" on="1"/>
        <pt x="143" y="636" on="1"/>
        <pt x="143" y="311" on="1"/>
        <pt x="187" y="311" on="1"/>
        <pt x="264" y="311" on="0"/>
      </contour>
    </TTGlyph>
    <TTGlyph name="Q" xMin="49" yMin="-56" xMax="362" yMax="715">
      <contour>
        <pt x="362" y="491" on="1"/>
        <pt x="362" y="259" on="1"/>
        <pt x="362" y="111" on="0"/>
        <pt x="299" y="61" on="1"/>
        <pt x="340" y="-56" on="1"/>
        <pt x="268" y="-56" on="1"/>
        <pt x="236" y="37" on="1"/>
        <pt x="226" y="35" on="0"/>
        <pt x="206" y="35" on="1"/>
        <pt x="130" y="35" on="0"/>
        <pt x="49" y="132" on="0"/>
        <pt x="49" y="259" on="1"/>
        <pt x="49" y="491" on="1"/>
        <pt x="49" y="618" on="0"/>
        <pt x="130" y="715" on="0"/>
        <pt x="281" y="715" on="0"/>
        <pt x="362" y="618" on="0"/>
      </contour>
      <contour>
        <pt x="283" y="244" on="1"/>
        <pt x="283" y="506" on="1"/>
        <pt x="283" y="650" on="0"/>
        <pt x="206" y="650" on="1"/>
        <pt x="169" y="650" on="0"/>
        <pt x="128" y="588" on="0"/>
        <pt x="128" y="506" on="1"/>
        <pt x="128" y="244" on="1"/>
        <pt x="128" y="162" on="0"/>
        <pt x="169" y="100" on="0"/>
        <pt x="206" y="100" on="1"/>
        <pt x="214" y="100" on="1"/>
        <pt x="162" y="254" on="1"/>
        <pt x="232" y="254" on="1"/>
        <pt x="269" y="146" on="1"/>
        <pt x="283" y="180" on="0"/>
      </contour>
    </TTGlyph>
    <TTGlyph name="R" xMin="63" yMin="0" xMax="352" yMax="700">
      <contour>
        <pt x="63" y="0" on="1"/>
        <pt x="63" y="700" on="1"/>
        <pt x="187" y="700" on="1"/>
        <pt x="261" y="700" on="0"/>
        <pt x="343" y="606" on="0"/>
        <pt x="343" y="484" on="1"/>
        <pt x="343" y="479" on="1"/>
        <pt x="343" y="327" on="0"/>
        <pt x="269" y="286" on="1"/>
        <pt x="352" y="0" on="1"/>
        <pt x="270" y="0" on="1"/>
        <pt x="192" y="268" on="1"/>
        <pt x="143" y="268" on="1"/>
        <pt x="143" y="0" on="1"/>
      </contour>
      <contour>
        <pt x="264" y="469" on="1"/>
        <pt x="264" y="499" on="1"/>
        <pt x="264" y="576" on="0"/>
        <pt x="223" y="636" on="0"/>
        <pt x="187" y="636" on="1"/>
        <pt x="143" y="636" on="1"/>
        <pt x="143" y="331" on="1"/>
        <pt x="187" y="331" on="1"/>
        <pt x="264" y="331" on="0"/>
      </contour>
    </TTGlyph>
    <TTGlyph name="S" xMin="42" yMin="-15" xMax="356" yMax="715">
      <contour>
        <pt x="278" y="157" on="1"/>
        <pt x="278" y="237" on="0"/>
        <pt x="224" y="280" on="1"/>
        <pt x="144" y="339" on="1"/>
        <pt x="54" y="403" on="0"/>
        <pt x="54" y="528" on="1"/>
        <pt x="54" y="632" on="0"/>
        <pt x="133" y="715" on="0"/>
        <pt x="270" y="715" on="0"/>
        <pt x="346" y="638" on="0"/>
        <pt x="354" y="537" on="1"/>
        <pt x="278" y="520" on="1"/>
        <pt x="274" y="648" on="0"/>
        <pt x="133" y="648" on="0"/>
        <pt x="133" y="539" on="1"/>
        <pt x="133" y="491" on="0"/>
        <pt x="154" y="431" on="0"/>
        <pt x="184" y="407" on="1"/>
        <pt x="263" y="348" on="1"/>
        <pt x="291" y="328" on="0"/>
        <pt x="325" y="292" on="0"/>
        <pt x="356" y="213" on="0"/>
        <pt x="356" y="159" on="1"/>
        <pt x="356" y="63" on="0"/>
        <pt x="273" y="-15" on="0"/>
        <pt x="131" y="-15" on="0"/>
        <pt x="51" y="77" on="0"/>
        <pt x="42" y="195" on="1"/>
        <pt x="117" y="208" on="1"/>
        <pt x="121" y="123" on="0"/>
        <pt x="162" y="51" on="0"/>
        <pt x="199" y="51" on="1"/>
        <pt x="278" y="51" on="0"/>
      </contour>
    </TTGlyph>
    <TTGlyph name="Scaron" xMin="42" yMin="-15" xMax="356" yMax="910">
      <contour>
        <pt x="278" y="157" on="1"/>
        <pt x="278" y="237" on="0"/>
        <pt x="224" y="280" on="1"/>
        <pt x="144" y="339" on="1"/>
        <pt x="54" y="403" on="0"/>
        <pt x="54" y="528" on="1"/>
        <pt x="54" y="632" on="0"/>
        <pt x="133" y="715" on="0"/>
        <pt x="270" y="715" on="0"/>
        <pt x="346" y="638" on="0"/>
        <pt x="354" y="537" on="1"/>
        <pt x="278" y="520" on="1"/>
        <pt x="274" y="648" on="0"/>
        <pt x="133" y="648" on="0"/>
        <pt x="133" y="539" on="1"/>
        <pt x="133" y="491" on="0"/>
        <pt x="154" y="431" on="0"/>
        <pt x="184" y="407" on="1"/>
        <pt x="263" y="348" on="1"/>
        <pt x="291" y="328" on="0"/>
        <pt x="325" y="292" on="0"/>
        <pt x="356" y="213" on="0"/>
        <pt x="356" y="159" on="1"/>
        <pt x="356" y="63" on="0"/>
        <pt x="273" y="-15" on="0"/>
        <pt x="131" y="-15" on="0"/>
        <pt x="51" y="77" on="0"/>
        <pt x="42" y="195" on="1"/>
        <pt x="117" y="208" on="1"/>
        <pt x="121" y="123" on="0"/>
        <pt x="162" y="51" on="0"/>
        <pt x="199" y="51" on="1"/>
        <pt x="278" y="51" on="0"/>
      </contour>
      <contour>
        <pt x="196" y="760" on="1"/>
        <pt x="106" y="875" on="1"/>
        <pt x="129" y="910" on="1"/>
        <pt x="206" y="840" on="1"/>
        <pt x="283" y="910" on="1"/>
        <pt x="307" y="875" on="1"/>
        <pt x="215" y="760" on="1"/>
      </contour>
    </TTGlyph>
    <TTGlyph name="T" xMin="13" yMin="0" xMax="286" yMax="700">
      <contour>
        <pt x="13" y="636" on="1"/>
        <pt x="13" y="700" on="1"/>
        <pt x="286" y="700" on="1"/>
        <pt x="286" y="636" on="1"/>
        <pt x="189" y="636" on="1"/>
        <pt x="189" y="0" on="1"/>
        <pt x="110" y="0" on="1"/>
        <pt x="110" y="636" on="1"/>
      </contour>
    </TTGlyph>
    <TTGlyph name="Thorn" xMin="63" yMin="0" xMax="343" yMax="700">
      <contour>
        <pt x="63" y="0" on="1"/>
        <pt x="63" y="700" on="1"/>
        <pt x="143" y="700" on="1"/>
        <pt x="143" y="576" on="1"/>
        <pt x="187" y="576" on="1"/>
        <pt x="262" y="576" on="0"/>
        <pt x="343" y="479" on="0"/>
        <pt x="343" y="352" on="1"/>
        <pt x="343" y="347" on="1"/>
        <pt x="343" y="220" on="0"/>
        <pt x="262" y="124" on="0"/>
        <pt x="187" y="124" on="1"/>
        <pt x="143" y="124" on="1"/>
        <pt x="143" y="0" on="1"/>
      </contour>
      <contour>
        <pt x="264" y="334" on="1"/>
        <pt x="264" y="365" on="1"/>
        <pt x="264" y="512" on="0"/>
        <pt x="187" y="512" on="1"/>
        <pt x="143" y="512" on="1"/>
        <pt x="143" y="187" on="1"/>
        <pt x="187" y="187" on="1"/>
        <pt x="264" y="187" on="0"/>
      </contour>
    </TTGlyph>
    <TTGlyph name="U" xMin="56" yMin="-15" xMax="366" yMax="700">
      <contour>
        <pt x="287" y="700" on="1"/>
        <pt x="366" y="700" on="1"/>
        <pt x="366" y="209" on="1"/>
        <pt x="366" y="82" on="0"/>
        <pt x="285" y="-15" on="0"/>
        <pt x="137" y="-15" on="0"/>
        <pt x="56" y="82" on="0"/>
        <pt x="56" y="209" on="1"/>
        <pt x="56" y="700" on="1"/>
        <pt x="135" y="700" on="1"/>
        <pt x="135" y="194" on="1"/>
        <pt x="135" y="113" on="0"/>
        <pt x="175" y="50" on="0"/>
        <pt x="246" y="50" on="0"/>
        <pt x="287" y="113" on="0"/>
        <pt x="287" y="194" on="1"/>
      </contour>
    </TTGlyph>
    <TTGlyph name="Uacute" xMin="56" yMin="-15" xMax="366" yMax="916">
      <contour>
        <pt x="287" y="700" on="1"/>
        <pt x="366" y="700" on="1"/>
        <pt x="366" y="209" on="1"/>
        <pt x="366" y="82" on="0"/>
        <pt x="285" y="-15" on="0"/>
        <pt x="137" y="-15" on="0"/>
        <pt x="56" y="82" on="0"/>
        <pt x="56" y="209" on="1"/>
        <pt x="56" y="700" on="1"/>
        <pt x="135" y="700" on="1"/>
        <pt x="135" y="194" on="1"/>
        <pt x="135" y="113" on="0"/>
        <pt x="175" y="50" on="0"/>
        <pt x="246" y="50" on="0"/>
        <pt x="287" y="113" on="0"/>
        <pt x="287" y="194" on="1"/>
      </contour>
      <contour>
        <pt x="130" y="798" on="1"/>
        <pt x="260" y="916" on="1"/>
        <pt x="295" y="849" on="1"/>
        <pt x="152" y="762" on="1"/>
      </contour>
    </TTGlyph>
    <TTGlyph name="Ucircumflex" xMin="56" yMin="-15" xMax="366" yMax="910">
      <contour>
        <pt x="287" y="700" on="1"/>
        <pt x="366" y="700" on="1"/>
        <pt x="366" y="209" on="1"/>
        <pt x="366" y="82" on="0"/>
        <pt x="285" y="-15" on="0"/>
        <pt x="137" y="-15" on="0"/>
        <pt x="56" y="82" on="0"/>
        <pt x="56" y="209" on="1"/>
        <pt x="56" y="700" on="1"/>
        <pt x="135" y="700" on="1"/>
        <pt x="135" y="194" on="1"/>
        <pt x="135" y="113" on="0"/>
        <pt x="175" y="50" on="0"/>
        <pt x="246" y="50" on="0"/>
        <pt x="287" y="113" on="0"/>
        <pt x="287" y="194" on="1"/>
      </contour>
      <contour>
        <pt x="220" y="910" on="1"/>
        <pt x="312" y="794" on="1"/>
        <pt x="288" y="760" on="1"/>
        <pt x="211" y="830" on="1"/>
        <pt x="134" y="760" on="1"/>
        <pt x="111" y="794" on="1"/>
        <pt x="201" y="910" on="1"/>
      </contour>
    </TTGlyph>
    <TTGlyph name="Udieresis" xMin="56" yMin="-15" xMax="366" yMax="900">
      <contour>
        <pt x="287" y="700" on="1"/>
        <pt x="366" y="700" on="1"/>
        <pt x="366" y="209" on="1"/>
        <pt x="366" y="82" on="0"/>
        <pt x="285" y="-15" on="0"/>
        <pt x="137" y="-15" on="0"/>
        <pt x="56" y="82" on="0"/>
        <pt x="56" y="209" on="1"/>
        <pt x="56" y="700" on="1"/>
        <pt x="135" y="700" on="1"/>
        <pt x="135" y="194" on="1"/>
        <pt x="135" y="113" on="0"/>
        <pt x="175" y="50" on="0"/>
        <pt x="246" y="50" on="0"/>
        <pt x="287" y="113" on="0"/>
        <pt x="287" y="194" on="1"/>
      </contour>
      <contour>
        <pt x="100" y="806" on="1"/>
        <pt x="100" y="900" on="1"/>
        <pt x="181" y="900" on="1"/>
        <pt x="181" y="806" on="1"/>
      </contour>
      <contour>
        <pt x="240" y="806" on="1"/>
        <pt x="240" y="900" on="1"/>
        <pt x="320" y="900" on="1"/>
        <pt x="320" y="806" on="1"/>
      </contour>
    </TTGlyph>
    <TTGlyph name="Ugrave" xMin="56" yMin="-15" xMax="366" yMax="916">
      <contour>
        <pt x="287" y="700" on="1"/>
        <pt x="366" y="700" on="1"/>
        <pt x="366" y="209" on="1"/>
        <pt x="366" y="82" on="0"/>
        <pt x="285" y="-15" on="0"/>
        <pt x="137" y="-15" on="0"/>
        <pt x="56" y="82" on="0"/>
        <pt x="56" y="209" on="1"/>
        <pt x="56" y="700" on="1"/>
        <pt x="135" y="700" on="1"/>
        <pt x="135" y="194" on="1"/>
        <pt x="135" y="113" on="0"/>
        <pt x="175" y="50" on="0"/>
        <pt x="246" y="50" on="0"/>
        <pt x="287" y="113" on="0"/>
        <pt x="287" y="194" on="1"/>
      </contour>
      <contour>
        <pt x="165" y="916" on="1"/>
        <pt x="295" y="798" on="1"/>
        <pt x="273" y="762" on="1"/>
        <pt x="130" y="849" on="1"/>
      </contour>
    </TTGlyph>
    <TTGlyph name="V" xMin="16" yMin="0" xMax="376" yMax="700">
      <contour>
        <pt x="96" y="700" on="1"/>
        <pt x="196" y="116" on="1"/>
        <pt x="296" y="700" on="1"/>
        <pt x="376" y="700" on="1"/>
        <pt x="246" y="0" on="1"/>
        <pt x="146" y="0" on="1"/>
        <pt x="16" y="700" on="1"/>
      </contour>
    </TTGlyph>
    <TTGlyph name="W" xMin="19" yMin="0" xMax="559" yMax="700">
      <contour>
        <pt x="372" y="0" on="1"/>
        <pt x="289" y="509" on="1"/>
        <pt x="206" y="0" on="1"/>
        <pt x="124" y="0" on="1"/>
        <pt x="19" y="700" on="1"/>
        <pt x="99" y="700" on="1"/>
        <pt x="171" y="164" on="1"/>
        <pt x="259" y="700" on="1"/>
        <pt x="321" y="700" on="1"/>
        <pt x="406" y="165" on="1"/>
        <pt x="479" y="700" on="1"/>
        <pt x="559" y="700" on="1"/>
        <pt x="454" y="0" on="1"/>
      </contour>
    </TTGlyph>
    <TTGlyph name="X" xMin="16" yMin="0" xMax="365" yMax="700">
      <contour>
        <pt x="102" y="700" on="1"/>
        <pt x="196" y="449" on="1"/>
        <pt x="289" y="700" on="1"/>
        <pt x="365" y="700" on="1"/>
        <pt x="231" y="356" on="1"/>
        <pt x="365" y="0" on="1"/>
        <pt x="287" y="0" on="1"/>
        <pt x="189" y="259" on="1"/>
        <pt x="92" y="0" on="1"/>
        <pt x="16" y="0" on="1"/>
        <pt x="153" y="355" on="1"/>
        <pt x="24" y="700" on="1"/>
      </contour>
    </TTGlyph>
    <TTGlyph name="Y" xMin="16" yMin="0" xMax="357" yMax="700">
      <contour>
        <pt x="226" y="0" on="1"/>
        <pt x="148" y="0" on="1"/>
        <pt x="148" y="234" on="1"/>
        <pt x="16" y="700" on="1"/>
        <pt x="94" y="700" on="1"/>
        <pt x="187" y="339" on="1"/>
        <pt x="279" y="700" on="1"/>
        <pt x="357" y="700" on="1"/>
        <pt x="226" y="234" on="1"/>
      </contour>
    </TTGlyph>
    <TTGlyph name="Yacute" xMin="16" yMin="0" xMax="357" yMax="916">
      <contour>
        <pt x="226" y="0" on="1"/>
        <pt x="148" y="0" on="1"/>
        <pt x="148" y="234" on="1"/>
        <pt x="16" y="700" on="1"/>
        <pt x="94" y="700" on="1"/>
        <pt x="187" y="339" on="1"/>
        <pt x="279" y="700" on="1"/>
        <pt x="357" y="700" on="1"/>
        <pt x="226" y="234" on="1"/>
      </contour>
      <contour>
        <pt x="127" y="798" on="1"/>
        <pt x="257" y="916" on="1"/>
        <pt x="292" y="849" on="1"/>
        <pt x="149" y="762" on="1"/>
      </contour>
    </TTGlyph>
    <TTGlyph name="Ydieresis" xMin="16" yMin="0" xMax="357" yMax="900">
      <contour>
        <pt x="226" y="0" on="1"/>
        <pt x="148" y="0" on="1"/>
        <pt x="148" y="234" on="1"/>
        <pt x="16" y="700" on="1"/>
        <pt x="94" y="700" on="1"/>
        <pt x="187" y="339" on="1"/>
        <pt x="279" y="700" on="1"/>
        <pt x="357" y="700" on="1"/>
        <pt x="226" y="234" on="1"/>
      </contour>
      <contour>
        <pt x="77" y="806" on="1"/>
        <pt x="77" y="900" on="1"/>
        <pt x="158" y="900" on="1"/>
        <pt x="158" y="806" on="1"/>
      </contour>
      <contour>
        <pt x="217" y="806" on="1"/>
        <pt x="217" y="900" on="1"/>
        <pt x="297" y="900" on="1"/>
        <pt x="297" y="806" on="1"/>
      </contour>
    </TTGlyph>
    <TTGlyph name="Z" xMin="23" yMin="0" xMax="328" yMax="700">
      <contour>
        <pt x="23" y="0" on="1"/>
        <pt x="23" y="38" on="1"/>
        <pt x="245" y="636" on="1"/>
        <pt x="42" y="636" on="1"/>
        <pt x="42" y="700" on="1"/>
        <pt x="328" y="700" on="1"/>
        <pt x="328" y="662" on="1"/>
        <pt x="106" y="64" on="1"/>
        <pt x="328" y="64" on="1"/>
        <pt x="328" y="0" on="1"/>
      </contour>
    </TTGlyph>
    <TTGlyph name="Zcaron" xMin="23" yMin="0" xMax="328" yMax="910">
      <contour>
        <pt x="23" y="0" on="1"/>
        <pt x="23" y="38" on="1"/>
        <pt x="245" y="636" on="1"/>
        <pt x="42" y="636" on="1"/>
        <pt x="42" y="700" on="1"/>
        <pt x="328" y="700" on="1"/>
        <pt x="328" y="662" on="1"/>
        <pt x="106" y="64" on="1"/>
        <pt x="328" y="64" on="1"/>
        <pt x="328" y="0" on="1"/>
      </contour>
      <contour>
        <pt x="179" y="760" on="1"/>
        <pt x="89" y="875" on="1"/>
        <pt x="112" y="910" on="1"/>
        <pt x="189" y="840" on="1"/>
        <pt x="266" y="910" on="1"/>
        <pt x="290" y="875" on="1"/>
        <pt x="198" y="760" on="1"/>
      </contour>
    </TTGlyph>
    <TTGlyph name="a" xMin="45" yMin="-15" xMax="312" yMax="555">
      <contour>
        <pt x="45" y="262" on="0"/>
        <pt x="101" y="331" on="0"/>
        <pt x="205" y="331" on="0"/>
        <pt x="235" y="291" on="1"/>
        <pt x="235" y="396" on="1"/>
        <pt x="235" y="492" on="0"/>
        <pt x="175" y="492" on="1"/>
        <pt x="124" y="492" on="0"/>
        <pt x="78" y="433" on="1"/>
        <pt x="51" y="489" on="1"/>
        <pt x="74" y="517" on="0"/>
        <pt x="145" y="555" on="0"/>
        <pt x="182" y="555" on="1"/>
        <pt x="312" y="555" on="0"/>
        <pt x="312" y="379" on="1"/>
        <pt x="312" y="0" on="1"/>
        <pt x="265" y="0" on="1"/>
        <pt x="249" y="65" on="1"/>
        <pt x="238" y="25" on="0"/>
        <pt x="187" y="-15" on="0"/>
        <pt x="155" y="-15" on="1"/>
        <pt x="101" y="-15" on="0"/>
        <pt x="45" y="54" on="0"/>
        <pt x="45" y="149" on="1"/>
        <pt x="45" y="167" on="1"/>
      </contour>
      <contour>
        <pt x="171" y="48" on="1"/>
        <pt x="200" y="48" on="0"/>
        <pt x="233" y="90" on="0"/>
        <pt x="235" y="145" on="1"/>
        <pt x="235" y="172" on="1"/>
        <pt x="233" y="231" on="0"/>
        <pt x="200" y="277" on="0"/>
        <pt x="171" y="277" on="1"/>
        <pt x="121" y="277" on="0"/>
        <pt x="121" y="182" on="1"/>
        <pt x="121" y="143" on="1"/>
        <pt x="121" y="48" on="0"/>
      </contour>
    </TTGlyph>
    <TTGlyph name="aacute" xMin="45" yMin="-15" xMax="312" yMax="756">
      <contour>
        <pt x="45" y="262" on="0"/>
        <pt x="101" y="331" on="0"/>
        <pt x="205" y="331" on="0"/>
        <pt x="235" y="291" on="1"/>
        <pt x="235" y="396" on="1"/>
        <pt x="235" y="492" on="0"/>
        <pt x="175" y="492" on="1"/>
        <pt x="124" y="492" on="0"/>
        <pt x="78" y="433" on="1"/>
        <pt x="51" y="489" on="1"/>
        <pt x="74" y="517" on="0"/>
        <pt x="145" y="555" on="0"/>
        <pt x="182" y="555" on="1"/>
        <pt x="312" y="555" on="0"/>
        <pt x="312" y="379" on="1"/>
        <pt x="312" y="0" on="1"/>
        <pt x="265" y="0" on="1"/>
        <pt x="249" y="65" on="1"/>
        <pt x="238" y="25" on="0"/>
        <pt x="187" y="-15" on="0"/>
        <pt x="155" y="-15" on="1"/>
        <pt x="101" y="-15" on="0"/>
        <pt x="45" y="54" on="0"/>
        <pt x="45" y="149" on="1"/>
        <pt x="45" y="167" on="1"/>
      </contour>
      <contour>
        <pt x="171" y="48" on="1"/>
        <pt x="200" y="48" on="0"/>
        <pt x="233" y="90" on="0"/>
        <pt x="235" y="145" on="1"/>
        <pt x="235" y="172" on="1"/>
        <pt x="233" y="231" on="0"/>
        <pt x="200" y="277" on="0"/>
        <pt x="171" y="277" on="1"/>
        <pt x="121" y="277" on="0"/>
        <pt x="121" y="182" on="1"/>
        <pt x="121" y="143" on="1"/>
        <pt x="121" y="48" on="0"/>
      </contour>
      <contour>
        <pt x="124" y="638" on="1"/>
        <pt x="254" y="756" on="1"/>
        <pt x="289" y="689" on="1"/>
        <pt x="146" y="602" on="1"/>
      </contour>
    </TTGlyph>
    <TTGlyph name="acircumflex" xMin="45" yMin="-15" xMax="312" yMax="750">
      <contour>
        <pt x="45" y="262" on="0"/>
        <pt x="101" y="331" on="0"/>
        <pt x="205" y="331" on="0"/>
        <pt x="235" y="291" on="1"/>
        <pt x="235" y="396" on="1"/>
        <pt x="235" y="492" on="0"/>
        <pt x="175" y="492" on="1"/>
        <pt x="124" y="492" on="0"/>
        <pt x="78" y="433" on="1"/>
        <pt x="51" y="489" on="1"/>
        <pt x="74" y="517" on="0"/>
        <pt x="145" y="555" on="0"/>
        <pt x="182" y="555" on="1"/>
        <pt x="312" y="555" on="0"/>
        <pt x="312" y="379" on="1"/>
        <pt x="312" y="0" on="1"/>
        <pt x="265" y="0" on="1"/>
        <pt x="249" y="65" on="1"/>
        <pt x="238" y="25" on="0"/>
        <pt x="187" y="-15" on="0"/>
        <pt x="155" y="-15" on="1"/>
        <pt x="101" y="-15" on="0"/>
        <pt x="45" y="54" on="0"/>
        <pt x="45" y="149" on="1"/>
        <pt x="45" y="167" on="1"/>
      </contour>
      <contour>
        <pt x="171" y="48" on="1"/>
        <pt x="200" y="48" on="0"/>
        <pt x="233" y="90" on="0"/>
        <pt x="235" y="145" on="1"/>
        <pt x="235" y="172" on="1"/>
        <pt x="233" y="231" on="0"/>
        <pt x="200" y="277" on="0"/>
        <pt x="171" y="277" on="1"/>
        <pt x="121" y="277" on="0"/>
        <pt x="121" y="182" on="1"/>
        <pt x="121" y="143" on="1"/>
        <pt x="121" y="48" on="0"/>
      </contour>
      <contour>
        <pt x="193" y="750" on="1"/>
        <pt x="285" y="634" on="1"/>
        <pt x="261" y="600" on="1"/>
        <pt x="184" y="670" on="1"/>
        <pt x="107" y="600" on="1"/>
        <pt x="84" y="634" on="1"/>
        <pt x="174" y="750" on="1"/>
      </contour>
    </TTGlyph>
    <TTGlyph name="acute" xMin="62" yMin="602" xMax="227" yMax="756">
      <contour>
        <pt x="62" y="638" on="1"/>
        <pt x="192" y="756" on="1"/>
        <pt x="227" y="689" on="1"/>
        <pt x="84" y="602" on="1"/>
      </contour>
    </TTGlyph>
    <TTGlyph name="adieresis" xMin="45" yMin="-15" xMax="312" yMax="740">
      <contour>
        <pt x="45" y="262" on="0"/>
        <pt x="101" y="331" on="0"/>
        <pt x="205" y="331" on="0"/>
        <pt x="235" y="291" on="1"/>
        <pt x="235" y="396" on="1"/>
        <pt x="235" y="492" on="0"/>
        <pt x="175" y="492" on="1"/>
        <pt x="124" y="492" on="0"/>
        <pt x="78" y="433" on="1"/>
        <pt x="51" y="489" on="1"/>
        <pt x="74" y="517" on="0"/>
        <pt x="145" y="555" on="0"/>
        <pt x="182" y="555" on="1"/>
        <pt x="312" y="555" on="0"/>
        <pt x="312" y="379" on="1"/>
        <pt x="312" y="0" on="1"/>
        <pt x="265" y="0" on="1"/>
        <pt x="249" y="65" on="1"/>
        <pt x="238" y="25" on="0"/>
        <pt x="187" y="-15" on="0"/>
        <pt x="155" y="-15" on="1"/>
        <pt x="101" y="-15" on="0"/>
        <pt x="45" y="54" on="0"/>
        <pt x="45" y="149" on="1"/>
        <pt x="45" y="167" on="1"/>
      </contour>
      <contour>
        <pt x="171" y="48" on="1"/>
        <pt x="200" y="48" on="0"/>
        <pt x="233" y="90" on="0"/>
        <pt x="235" y="145" on="1"/>
        <pt x="235" y="172" on="1"/>
        <pt x="233" y="231" on="0"/>
        <pt x="200" y="277" on="0"/>
        <pt x="171" y="277" on="1"/>
        <pt x="121" y="277" on="0"/>
        <pt x="121" y="182" on="1"/>
        <pt x="121" y="143" on="1"/>
        <pt x="121" y="48" on="0"/>
      </contour>
      <contour>
        <pt x="75" y="646" on="1"/>
        <pt x="75" y="740" on="1"/>
        <pt x="156" y="740" on="1"/>
        <pt x="156" y="646" on="1"/>
      </contour>
      <contour>
        <pt x="215" y="646" on="1"/>
        <pt x="215" y="740" on="1"/>
        <pt x="295" y="740" on="1"/>
        <pt x="295" y="646" on="1"/>
      </contour>
    </TTGlyph>
    <TTGlyph name="ae" xMin="45" yMin="-15" xMax="518" yMax="555">
      <contour>
        <pt x="379" y="-15" on="1"/>
        <pt x="282" y="-15" on="0"/>
        <pt x="252" y="68" on="1"/>
        <pt x="242" y="27" on="0"/>
        <pt x="189" y="-15" on="0"/>
        <pt x="155" y="-15" on="1"/>
        <pt x="101" y="-15" on="0"/>
        <pt x="45" y="48" on="0"/>
        <pt x="45" y="135" on="1"/>
        <pt x="45" y="157" on="1"/>
        <pt x="45" y="244" on="0"/>
        <pt x="101" y="307" on="0"/>
        <pt x="155" y="307" on="1"/>
        <pt x="235" y="307" on="1"/>
        <pt x="235" y="396" on="1"/>
        <pt x="235" y="492" on="0"/>
        <pt x="175" y="492" on="1"/>
        <pt x="124" y="492" on="0"/>
        <pt x="78" y="433" on="1"/>
        <pt x="51" y="489" on="1"/>
        <pt x="74" y="517" on="0"/>
        <pt x="145" y="555" on="0"/>
        <pt x="182" y="555" on="1"/>
        <pt x="245" y="555" on="0"/>
        <pt x="277" y="515" on="1"/>
        <pt x="312" y="555" on="0"/>
        <pt x="447" y="555" on="0"/>
        <pt x="518" y="465" on="0"/>
        <pt x="518" y="345" on="1"/>
        <pt x="518" y="243" on="1"/>
        <pt x="312" y="243" on="1"/>
        <pt x="312" y="181" on="1"/>
        <pt x="312" y="47" on="0"/>
        <pt x="377" y="47" on="1"/>
        <pt x="407" y="47" on="0"/>
        <pt x="441" y="92" on="0"/>
        <pt x="447" y="151" on="1"/>
        <pt x="515" y="140" on="1"/>
        <pt x="507" y="53" on="0"/>
        <pt x="440" y="-15" on="0"/>
      </contour>
      <contour>
        <pt x="441" y="359" on="1"/>
        <pt x="441" y="493" on="0"/>
        <pt x="312" y="493" on="0"/>
        <pt x="312" y="359" on="1"/>
        <pt x="312" y="307" on="1"/>
        <pt x="441" y="307" on="1"/>
      </contour>
      <contour>
        <pt x="171" y="243" on="1"/>
        <pt x="121" y="243" on="0"/>
        <pt x="121" y="163" on="1"/>
        <pt x="121" y="127" on="1"/>
        <pt x="121" y="48" on="0"/>
        <pt x="171" y="48" on="1"/>
        <pt x="201" y="48" on="0"/>
        <pt x="235" y="87" on="0"/>
        <pt x="235" y="139" on="1"/>
        <pt x="235" y="243" on="1"/>
      </contour>
    </TTGlyph>
    <TTGlyph name="agrave" xMin="45" yMin="-15" xMax="312" yMax="756">
      <contour>
        <pt x="45" y="262" on="0"/>
        <pt x="101" y="331" on="0"/>
        <pt x="205" y="331" on="0"/>
        <pt x="235" y="291" on="1"/>
        <pt x="235" y="396" on="1"/>
        <pt x="235" y="492" on="0"/>
        <pt x="175" y="492" on="1"/>
        <pt x="124" y="492" on="0"/>
        <pt x="78" y="433" on="1"/>
        <pt x="51" y="489" on="1"/>
        <pt x="74" y="517" on="0"/>
        <pt x="145" y="555" on="0"/>
        <pt x="182" y="555" on="1"/>
        <pt x="312" y="555" on="0"/>
        <pt x="312" y="379" on="1"/>
        <pt x="312" y="0" on="1"/>
        <pt x="265" y="0" on="1"/>
        <pt x="249" y="65" on="1"/>
        <pt x="238" y="25" on="0"/>
        <pt x="187" y="-15" on="0"/>
        <pt x="155" y="-15" on="1"/>
        <pt x="101" y="-15" on="0"/>
        <pt x="45" y="54" on="0"/>
        <pt x="45" y="149" on="1"/>
        <pt x="45" y="167" on="1"/>
      </contour>
      <contour>
        <pt x="171" y="48" on="1"/>
        <pt x="200" y="48" on="0"/>
        <pt x="233" y="90" on="0"/>
        <pt x="235" y="145" on="1"/>
        <pt x="235" y="172" on="1"/>
        <pt x="233" y="231" on="0"/>
        <pt x="200" y="277" on="0"/>
        <pt x="171" y="277" on="1"/>
        <pt x="121" y="277" on="0"/>
        <pt x="121" y="182" on="1"/>
        <pt x="121" y="143" on="1"/>
        <pt x="121" y="48" on="0"/>
      </contour>
      <contour>
        <pt x="137" y="756" on="1"/>
        <pt x="267" y="638" on="1"/>
        <pt x="245" y="602" on="1"/>
        <pt x="102" y="689" on="1"/>
      </contour>
    </TTGlyph>
    <TTGlyph name="ampersand" xMin="26" yMin="-15" xMax="409" yMax="715">
      <contour>
        <pt x="26" y="164" on="1"/>
        <pt x="26" y="196" on="1"/>
        <pt x="26" y="267" on="0"/>
        <pt x="77" y="341" on="0"/>
        <pt x="125" y="359" on="1"/>
        <pt x="77" y="445" on="0"/>
        <pt x="77" y="547" on="1"/>
        <pt x="77" y="715" on="0"/>
        <pt x="216" y="715" on="1"/>
        <pt x="278" y="715" on="0"/>
        <pt x="348" y="634" on="0"/>
        <pt x="357" y="532" on="1"/>
        <pt x="286" y="521" on="1"/>
        <pt x="281" y="596" on="0"/>
        <pt x="249" y="650" on="0"/>
        <pt x="186" y="650" on="0"/>
        <pt x="153" y="605" on="0"/>
        <pt x="153" y="471" on="0"/>
        <pt x="192" y="398" on="1"/>
        <pt x="285" y="226" on="1"/>
        <pt x="295" y="291" on="0"/>
        <pt x="299" y="365" on="1"/>
        <pt x="365" y="365" on="1"/>
        <pt x="354" y="218" on="0"/>
        <pt x="332" y="141" on="1"/>
        <pt x="409" y="0" on="1"/>
        <pt x="323" y="0" on="1"/>
        <pt x="294" y="53" on="1"/>
        <pt x="250" y="-15" on="0"/>
        <pt x="162" y="-15" on="1"/>
        <pt x="99" y="-15" on="0"/>
        <pt x="26" y="63" on="0"/>
      </contour>
      <contour>
        <pt x="174" y="50" on="1"/>
        <pt x="231" y="50" on="0"/>
        <pt x="258" y="117" on="1"/>
        <pt x="157" y="301" on="1"/>
        <pt x="103" y="271" on="0"/>
        <pt x="103" y="196" on="1"/>
        <pt x="103" y="163" on="1"/>
        <pt x="103" y="98" on="0"/>
        <pt x="141" y="50" on="0"/>
      </contour>
    </TTGlyph>
    <TTGlyph name="apple" xMin="90" yMin="-103" xMax="741" yMax="547">
      <contour>
        <pt x="530" y="-80" on="1"/>
        <pt x="509" y="-79" on="1"/>
        <pt x="499" y="-79" on="0"/>
        <pt x="465" y="-101" on="0"/>
        <pt x="457" y="-101" on="1"/>
        <pt x="416" y="-92" on="1"/>
        <pt x="408" y="-92" on="0"/>
        <pt x="381" y="-103" on="0"/>
        <pt x="365" y="-103" on="0"/>
        <pt x="336" y="-80" on="0"/>
        <pt x="325" y="-80" on="1"/>
        <pt x="303" y="-82" on="1"/>
        <pt x="289" y="-82" on="0"/>
        <pt x="259" y="-51" on="0"/>
        <pt x="247" y="-44" on="0"/>
        <pt x="223" y="-42" on="0"/>
        <pt x="207" y="-33" on="0"/>
        <pt x="194" y="0" on="0"/>
        <pt x="185" y="7" on="0"/>
        <pt x="159" y="17" on="0"/>
        <pt x="149" y="33" on="0"/>
        <pt x="145" y="59" on="0"/>
        <pt x="138" y="70" on="0"/>
        <pt x="130" y="77" on="1"/>
        <pt x="110" y="93" on="0"/>
        <pt x="110" y="112" on="1"/>
        <pt x="112" y="134" on="1"/>
        <pt x="112" y="142" on="0"/>
        <pt x="90" y="174" on="0"/>
        <pt x="90" y="190" on="0"/>
        <pt x="101" y="216" on="0"/>
        <pt x="101" y="231" on="0"/>
        <pt x="90" y="254" on="0"/>
        <pt x="90" y="271" on="0"/>
        <pt x="112" y="308" on="0"/>
        <pt x="112" y="316" on="1"/>
        <pt x="112" y="338" on="1"/>
        <pt x="112" y="351" on="0"/>
        <pt x="141" y="378" on="0"/>
        <pt x="146" y="387" on="0"/>
        <pt x="150" y="415" on="0"/>
        <pt x="157" y="427" on="0"/>
        <pt x="185" y="438" on="0"/>
        <pt x="194" y="446" on="0"/>
        <pt x="207" y="474" on="0"/>
        <pt x="211" y="479" on="1"/>
        <pt x="218" y="485" on="0"/>
        <pt x="251" y="491" on="0"/>
        <pt x="262" y="497" on="0"/>
        <pt x="288" y="527" on="0"/>
        <pt x="301" y="528" on="1"/>
        <pt x="325" y="526" on="1"/>
        <pt x="336" y="526" on="0"/>
        <pt x="365" y="547" on="0"/>
        <pt x="374" y="547" on="1"/>
        <pt x="414" y="536" on="1"/>
        <pt x="454" y="547" on="1"/>
        <pt x="466" y="547" on="0"/>
        <pt x="495" y="525" on="0"/>
        <pt x="506" y="525" on="1"/>
        <pt x="531" y="527" on="1"/>
        <pt x="545" y="527" on="0"/>
        <pt x="569" y="498" on="0"/>
        <pt x="580" y="492" on="0"/>
        <pt x="608" y="486" on="0"/>
        <pt x="621" y="477" on="0"/>
        <pt x="630" y="451" on="0"/>
        <pt x="639" y="443" on="0"/>
        <pt x="675" y="424" on="0"/>
        <pt x="684" y="409" on="0"/>
        <pt x="685" y="380" on="0"/>
        <pt x="690" y="372" on="0"/>
        <pt x="720" y="347" on="0"/>
        <pt x="720" y="332" on="1"/>
        <pt x="719" y="310" on="1"/>
        <pt x="719" y="298" on="0"/>
        <pt x="741" y="264" on="0"/>
        <pt x="741" y="248" on="0"/>
        <pt x="731" y="225" on="0"/>
        <pt x="731" y="220" on="1"/>
        <pt x="741" y="180" on="1"/>
        <pt x="740" y="172" on="0"/>
        <pt x="718" y="149" on="0"/>
        <pt x="718" y="137" on="1"/>
        <pt x="720" y="108" on="1"/>
        <pt x="720" y="93" on="0"/>
        <pt x="691" y="70" on="0"/>
        <pt x="686" y="62" on="0"/>
        <pt x="679" y="27" on="0"/>
        <pt x="669" y="16" on="0"/>
        <pt x="646" y="5" on="0"/>
        <pt x="637" y="-4" on="0"/>
        <pt x="621" y="-34" on="0"/>
        <pt x="609" y="-42" on="0"/>
        <pt x="577" y="-51" on="0"/>
        <pt x="568" y="-56" on="0"/>
        <pt x="544" y="-80" on="0"/>
      </contour>
      <contour>
        <pt x="416" y="-5" on="1"/>
        <pt x="445" y="-12" on="1"/>
        <pt x="451" y="-12" on="0"/>
        <pt x="462" y="-5" on="1"/>
        <pt x="475" y="4" on="0"/>
        <pt x="485" y="4" on="1"/>
        <pt x="499" y="3" on="1"/>
        <pt x="509" y="3" on="0"/>
        <pt x="525" y="21" on="0"/>
        <pt x="532" y="24" on="0"/>
        <pt x="556" y="31" on="0"/>
        <pt x="565" y="37" on="0"/>
        <pt x="576" y="58" on="0"/>
        <pt x="583" y="64" on="0"/>
        <pt x="600" y="72" on="0"/>
        <pt x="606" y="81" on="0"/>
        <pt x="612" y="105" on="0"/>
        <pt x="616" y="112" on="0"/>
        <pt x="636" y="129" on="0"/>
        <pt x="636" y="141" on="1"/>
        <pt x="635" y="159" on="1"/>
        <pt x="635" y="168" on="0"/>
        <pt x="651" y="187" on="0"/>
        <pt x="652" y="192" on="1"/>
        <pt x="644" y="220" on="1"/>
        <pt x="652" y="246" on="1"/>
        <pt x="652" y="253" on="0"/>
        <pt x="635" y="278" on="0"/>
        <pt x="635" y="286" on="1"/>
        <pt x="636" y="301" on="1"/>
        <pt x="636" y="312" on="0"/>
        <pt x="615" y="330" on="0"/>
        <pt x="611" y="338" on="0"/>
        <pt x="610" y="359" on="0"/>
        <pt x="604" y="368" on="0"/>
        <pt x="579" y="381" on="0"/>
        <pt x="571" y="388" on="0"/>
        <pt x="565" y="407" on="0"/>
        <pt x="555" y="414" on="0"/>
        <pt x="535" y="417" on="0"/>
        <pt x="527" y="422" on="0"/>
        <pt x="509" y="444" on="0"/>
        <pt x="499" y="444" on="1"/>
        <pt x="481" y="442" on="1"/>
        <pt x="472" y="442" on="0"/>
        <pt x="454" y="458" on="0"/>
        <pt x="445" y="458" on="1"/>
        <pt x="415" y="450" on="1"/>
        <pt x="386" y="458" on="1"/>
        <pt x="379" y="458" on="0"/>
        <pt x="357" y="443" on="0"/>
        <pt x="348" y="443" on="1"/>
        <pt x="333" y="444" on="1"/>
        <pt x="323" y="444" on="0"/>
        <pt x="304" y="421" on="0"/>
        <pt x="297" y="417" on="0"/>
        <pt x="272" y="413" on="0"/>
        <pt x="264" y="405" on="0"/>
        <pt x="254" y="385" on="0"/>
        <pt x="248" y="378" on="0"/>
        <pt x="228" y="370" on="0"/>
        <pt x="222" y="362" on="0"/>
        <pt x="220" y="342" on="0"/>
        <pt x="217" y="336" on="0"/>
        <pt x="194" y="316" on="0"/>
        <pt x="194" y="306" on="1"/>
        <pt x="195" y="292" on="1"/>
        <pt x="195" y="284" on="0"/>
        <pt x="180" y="258" on="0"/>
        <pt x="180" y="250" on="1"/>
        <pt x="187" y="223" on="1"/>
        <pt x="180" y="193" on="1"/>
        <pt x="180" y="186" on="0"/>
        <pt x="195" y="164" on="0"/>
        <pt x="195" y="157" on="1"/>
        <pt x="193" y="142" on="1"/>
        <pt x="193" y="132" on="0"/>
        <pt x="204" y="122" on="1"/>
        <pt x="216" y="111" on="1"/>
        <pt x="220" y="105" on="0"/>
        <pt x="223" y="85" on="0"/>
        <pt x="229" y="73" on="0"/>
        <pt x="248" y="67" on="0"/>
        <pt x="255" y="61" on="0"/>
        <pt x="265" y="37" on="0"/>
        <pt x="276" y="30" on="0"/>
        <pt x="293" y="29" on="0"/>
        <pt x="303" y="24" on="0"/>
        <pt x="324" y="2" on="0"/>
        <pt x="334" y="2" on="1"/>
        <pt x="347" y="3" on="1"/>
        <pt x="356" y="3" on="0"/>
        <pt x="378" y="-13" on="0"/>
        <pt x="383" y="-14" on="1"/>
      </contour>
      <contour>
        <pt x="263" y="286" on="0"/>
        <pt x="352" y="375" on="0"/>
        <pt x="479" y="375" on="0"/>
        <pt x="569" y="286" on="0"/>
        <pt x="569" y="159" on="0"/>
        <pt x="479" y="69" on="0"/>
        <pt x="352" y="69" on="0"/>
        <pt x="263" y="159" on="0"/>
      </contour>
      <contour>
        <pt x="454" y="263" on="1"/>
        <pt x="501" y="263" on="1"/>
        <pt x="501" y="324" on="1"/>
        <pt x="329" y="324" on="1"/>
        <pt x="329" y="263" on="1"/>
        <pt x="378" y="263" on="1"/>
        <pt x="378" y="105" on="1"/>
        <pt x="454" y="105" on="1"/>
      </contour>
    </TTGlyph>
    <TTGlyph name="approxequal" xMin="56" yMin="201" xMax="320" yMax="497">
      <contour>
        <pt x="56" y="481" on="1"/>
        <pt x="82" y="464" on="0"/>
        <pt x="137" y="464" on="0"/>
        <pt x="238" y="497" on="0"/>
        <pt x="296" y="497" on="0"/>
        <pt x="320" y="481" on="1"/>
        <pt x="320" y="419" on="1"/>
        <pt x="294" y="436" on="0"/>
        <pt x="238" y="436" on="0"/>
        <pt x="138" y="401" on="0"/>
        <pt x="81" y="401" on="0"/>
        <pt x="56" y="419" on="1"/>
      </contour>
      <contour>
        <pt x="56" y="281" on="1"/>
        <pt x="81" y="264" on="0"/>
        <pt x="137" y="264" on="0"/>
        <pt x="238" y="297" on="0"/>
        <pt x="296" y="297" on="0"/>
        <pt x="320" y="281" on="1"/>
        <pt x="320" y="219" on="1"/>
        <pt x="294" y="236" on="0"/>
        <pt x="238" y="236" on="0"/>
        <pt x="138" y="201" on="0"/>
        <pt x="81" y="201" on="0"/>
        <pt x="56" y="219" on="1"/>
      </contour>
    </TTGlyph>
    <TTGlyph name="aring" xMin="45" yMin="-15" xMax="312" yMax="794">
      <contour>
        <pt x="45" y="262" on="0"/>
        <pt x="101" y="331" on="0"/>
        <pt x="205" y="331" on="0"/>
        <pt x="235" y="291" on="1"/>
        <pt x="235" y="396" on="1"/>
        <pt x="235" y="492" on="0"/>
        <pt x="175" y="492" on="1"/>
        <pt x="124" y="492" on="0"/>
        <pt x="78" y="433" on="1"/>
        <pt x="51" y="489" on="1"/>
        <pt x="74" y="517" on="0"/>
        <pt x="145" y="555" on="0"/>
        <pt x="182" y="555" on="1"/>
        <pt x="312" y="555" on="0"/>
        <pt x="312" y="379" on="1"/>
        <pt x="312" y="0" on="1"/>
        <pt x="265" y="0" on="1"/>
        <pt x="249" y="65" on="1"/>
        <pt x="238" y="25" on="0"/>
        <pt x="187" y="-15" on="0"/>
        <pt x="155" y="-15" on="1"/>
        <pt x="101" y="-15" on="0"/>
        <pt x="45" y="54" on="0"/>
        <pt x="45" y="149" on="1"/>
        <pt x="45" y="167" on="1"/>
      </contour>
      <contour>
        <pt x="171" y="48" on="1"/>
        <pt x="200" y="48" on="0"/>
        <pt x="233" y="90" on="0"/>
        <pt x="235" y="145" on="1"/>
        <pt x="235" y="172" on="1"/>
        <pt x="233" y="231" on="0"/>
        <pt x="200" y="277" on="0"/>
        <pt x="171" y="277" on="1"/>
        <pt x="121" y="277" on="0"/>
        <pt x="121" y="182" on="1"/>
        <pt x="121" y="143" on="1"/>
        <pt x="121" y="48" on="0"/>
      </contour>
      <contour>
        <pt x="275" y="697" on="1"/>
        <pt x="275" y="683" on="1"/>
        <pt x="275" y="627" on="0"/>
        <pt x="235" y="586" on="0"/>
        <pt x="163" y="586" on="0"/>
        <pt x="123" y="627" on="0"/>
        <pt x="123" y="683" on="1"/>
        <pt x="123" y="697" on="1"/>
        <pt x="123" y="753" on="0"/>
        <pt x="163" y="794" on="0"/>
        <pt x="235" y="794" on="0"/>
        <pt x="275" y="753" on="0"/>
      </contour>
      <contour>
        <pt x="226" y="677" on="1"/>
        <pt x="226" y="703" on="1"/>
        <pt x="226" y="752" on="0"/>
        <pt x="172" y="752" on="0"/>
        <pt x="172" y="703" on="1"/>
        <pt x="172" y="677" on="1"/>
        <pt x="172" y="628" on="0"/>
        <pt x="226" y="628" on="0"/>
      </contour>
    </TTGlyph>
    <TTGlyph name="asciicircum" xMin="21" yMin="320" xMax="245" yMax="698">
      <contour>
        <pt x="132" y="604" on="1"/>
        <pt x="83" y="320" on="1"/>
        <pt x="21" y="320" on="1"/>
        <pt x="99" y="698" on="1"/>
        <pt x="167" y="698" on="1"/>
        <pt x="245" y="320" on="1"/>
        <pt x="183" y="320" on="1"/>
      </contour>
    </TTGlyph>
    <TTGlyph name="asciitilde" xMin="56" yMin="301" xMax="320" yMax="397">
      <contour>
        <pt x="56" y="381" on="1"/>
        <pt x="81" y="364" on="0"/>
        <pt x="137" y="364" on="0"/>
        <pt x="238" y="397" on="0"/>
        <pt x="296" y="397" on="0"/>
        <pt x="320" y="381" on="1"/>
        <pt x="320" y="319" on="1"/>
        <pt x="294" y="336" on="0"/>
        <pt x="238" y="336" on="0"/>
        <pt x="138" y="301" on="0"/>
        <pt x="81" y="301" on="0"/>
        <pt x="56" y="319" on="1"/>
      </contour>
    </TTGlyph>
    <TTGlyph name="asterisk" xMin="48" yMin="359" xMax="343" yMax="772">
      <contour>
        <pt x="309" y="421" on="1"/>
        <pt x="222" y="515" on="1"/>
        <pt x="226" y="359" on="1"/>
        <pt x="165" y="359" on="1"/>
        <pt x="168" y="515" on="1"/>
        <pt x="82" y="421" on="1"/>
        <pt x="48" y="467" on="1"/>
        <pt x="149" y="565" on="1"/>
        <pt x="48" y="663" on="1"/>
        <pt x="82" y="710" on="1"/>
        <pt x="168" y="614" on="1"/>
        <pt x="165" y="772" on="1"/>
        <pt x="226" y="772" on="1"/>
        <pt x="222" y="614" on="1"/>
        <pt x="309" y="710" on="1"/>
        <pt x="343" y="663" on="1"/>
        <pt x="241" y="565" on="1"/>
        <pt x="343" y="467" on="1"/>
      </contour>
    </TTGlyph>
    <TTGlyph name="at" xMin="49" yMin="-55" xMax="567" yMax="725">
      <contour>
        <pt x="567" y="130" on="1"/>
        <pt x="370" y="130" on="1"/>
        <pt x="359" y="217" on="1"/>
        <pt x="345" y="115" on="0"/>
        <pt x="270" y="115" on="1"/>
        <pt x="224" y="115" on="0"/>
        <pt x="176" y="185" on="0"/>
        <pt x="176" y="277" on="1"/>
        <pt x="176" y="393" on="1"/>
        <pt x="176" y="485" on="0"/>
        <pt x="225" y="555" on="0"/>
        <pt x="270" y="555" on="1"/>
        <pt x="346" y="555" on="0"/>
        <pt x="362" y="458" on="1"/>
        <pt x="377" y="540" on="1"/>
        <pt x="427" y="540" on="1"/>
        <pt x="427" y="183" on="1"/>
        <pt x="526" y="183" on="1"/>
        <pt x="526" y="389" on="1"/>
        <pt x="526" y="558" on="0"/>
        <pt x="463" y="620" on="1"/>
        <pt x="432" y="650" on="0"/>
        <pt x="358" y="675" on="0"/>
        <pt x="257" y="675" on="0"/>
        <pt x="183" y="650" on="0"/>
        <pt x="152" y="620" on="1"/>
        <pt x="90" y="557" on="0"/>
        <pt x="90" y="389" on="1"/>
        <pt x="90" y="281" on="1"/>
        <pt x="90" y="113" on="0"/>
        <pt x="152" y="50" on="1"/>
        <pt x="183" y="20" on="0"/>
        <pt x="257" y="-5" on="0"/>
        <pt x="308" y="-5" on="1"/>
        <pt x="393" y="-5" on="0"/>
        <pt x="441" y="31" on="1"/>
        <pt x="458" y="-11" on="1"/>
        <pt x="402" y="-55" on="0"/>
        <pt x="308" y="-55" on="1"/>
        <pt x="248" y="-55" on="0"/>
        <pt x="160" y="-26" on="0"/>
        <pt x="124" y="10" on="1"/>
        <pt x="49" y="82" on="0"/>
        <pt x="49" y="281" on="1"/>
        <pt x="49" y="389" on="1"/>
        <pt x="49" y="587" on="0"/>
        <pt x="124" y="660" on="1"/>
        <pt x="160" y="696" on="0"/>
        <pt x="248" y="725" on="0"/>
        <pt x="368" y="725" on="0"/>
        <pt x="456" y="696" on="0"/>
        <pt x="492" y="660" on="1"/>
        <pt x="567" y="587" on="0"/>
        <pt x="567" y="389" on="1"/>
      </contour>
      <contour>
        <pt x="337" y="198" on="0"/>
        <pt x="353" y="270" on="0"/>
        <pt x="353" y="429" on="0"/>
        <pt x="323" y="493" on="0"/>
        <pt x="294" y="493" on="1"/>
        <pt x="254" y="493" on="0"/>
        <pt x="254" y="405" on="1"/>
        <pt x="254" y="265" on="1"/>
        <pt x="254" y="216" on="0"/>
        <pt x="276" y="177" on="0"/>
        <pt x="315" y="177" on="0"/>
      </contour>
    </TTGlyph>
    <TTGlyph name="atilde" xMin="45" yMin="-15" xMax="312" yMax="730">
      <contour>
        <pt x="45" y="262" on="0"/>
        <pt x="101" y="331" on="0"/>
        <pt x="205" y="331" on="0"/>
        <pt x="235" y="291" on="1"/>
        <pt x="235" y="396" on="1"/>
        <pt x="235" y="492" on="0"/>
        <pt x="175" y="492" on="1"/>
        <pt x="124" y="492" on="0"/>
        <pt x="78" y="433" on="1"/>
        <pt x="51" y="489" on="1"/>
        <pt x="74" y="517" on="0"/>
        <pt x="145" y="555" on="0"/>
        <pt x="182" y="555" on="1"/>
        <pt x="312" y="555" on="0"/>
        <pt x="312" y="379" on="1"/>
        <pt x="312" y="0" on="1"/>
        <pt x="265" y="0" on="1"/>
        <pt x="249" y="65" on="1"/>
        <pt x="238" y="25" on="0"/>
        <pt x="187" y="-15" on="0"/>
        <pt x="155" y="-15" on="1"/>
        <pt x="101" y="-15" on="0"/>
        <pt x="45" y="54" on="0"/>
        <pt x="45" y="149" on="1"/>
        <pt x="45" y="167" on="1"/>
      </contour>
      <contour>
        <pt x="171" y="48" on="1"/>
        <pt x="200" y="48" on="0"/>
        <pt x="233" y="90" on="0"/>
        <pt x="235" y="145" on="1"/>
        <pt x="235" y="172" on="1"/>
        <pt x="233" y="231" on="0"/>
        <pt x="200" y="277" on="0"/>
        <pt x="171" y="277" on="1"/>
        <pt x="121" y="277" on="0"/>
        <pt x="121" y="182" on="1"/>
        <pt x="121" y="143" on="1"/>
        <pt x="121" y="48" on="0"/>
      </contour>
      <contour>
        <pt x="229" y="629" on="1"/>
        <pt x="215" y="629" on="0"/>
        <pt x="164" y="658" on="0"/>
        <pt x="152" y="658" on="1"/>
        <pt x="131" y="658" on="0"/>
        <pt x="107" y="627" on="1"/>
        <pt x="84" y="665" on="1"/>
        <pt x="117" y="728" on="0"/>
        <pt x="157" y="728" on="1"/>
        <pt x="171" y="728" on="0"/>
        <pt x="222" y="700" on="0"/>
        <pt x="234" y="700" on="1"/>
        <pt x="256" y="700" on="0"/>
        <pt x="278" y="730" on="1"/>
        <pt x="302" y="692" on="1"/>
        <pt x="265" y="629" on="0"/>
      </contour>
    </TTGlyph>
    <TTGlyph name="b" xMin="63" yMin="-15" xMax="341" yMax="740">
      <contour>
        <pt x="136" y="740" on="1"/>
        <pt x="136" y="475" on="1"/>
        <pt x="163" y="555" on="0"/>
        <pt x="232" y="555" on="1"/>
        <pt x="285" y="555" on="0"/>
        <pt x="341" y="465" on="0"/>
        <pt x="341" y="345" on="1"/>
        <pt x="341" y="195" on="1"/>
        <pt x="341" y="75" on="0"/>
        <pt x="285" y="-15" on="0"/>
        <pt x="232" y="-15" on="1"/>
        <pt x="153" y="-15" on="0"/>
        <pt x="132" y="96" on="1"/>
        <pt x="110" y="0" on="1"/>
        <pt x="63" y="0" on="1"/>
        <pt x="63" y="740" on="1"/>
      </contour>
      <contour>
        <pt x="136" y="270" on="1"/>
        <pt x="136" y="180" on="0"/>
        <pt x="159" y="76" on="0"/>
        <pt x="189" y="47" on="0"/>
        <pt x="214" y="47" on="1"/>
        <pt x="268" y="47" on="0"/>
        <pt x="268" y="171" on="1"/>
        <pt x="268" y="369" on="1"/>
        <pt x="268" y="493" on="0"/>
        <pt x="215" y="493" on="1"/>
        <pt x="192" y="493" on="0"/>
        <pt x="161" y="465" on="0"/>
        <pt x="137" y="369" on="0"/>
        <pt x="136" y="284" on="1"/>
      </contour>
    </TTGlyph>
    <TTGlyph name="backslash" xMin="13" yMin="-52" xMax="237" yMax="752">
      <contour>
        <pt x="65" y="752" on="1"/>
        <pt x="237" y="-52" on="1"/>
        <pt x="185" y="-52" on="1"/>
        <pt x="13" y="752" on="1"/>
      </contour>
    </TTGlyph>
    <TTGlyph name="bar" xMin="91" yMin="-52" xMax="143" yMax="752">
      <contour>
        <pt x="91" y="-52" on="1"/>
        <pt x="91" y="752" on="1"/>
        <pt x="143" y="752" on="1"/>
        <pt x="143" y="-52" on="1"/>
      </contour>
    </TTGlyph>
    <TTGlyph name="braceleft" xMin="20" yMin="-105" xMax="260" yMax="806">
      <contour>
        <pt x="85" y="106" on="1"/>
        <pt x="85" y="202" on="1"/>
        <pt x="85" y="263" on="0"/>
        <pt x="60" y="322" on="0"/>
        <pt x="23" y="322" on="1"/>
        <pt x="21" y="322" on="0"/>
        <pt x="20" y="322" on="1"/>
        <pt x="20" y="379" on="1"/>
        <pt x="60" y="379" on="0"/>
        <pt x="85" y="439" on="0"/>
        <pt x="85" y="499" on="1"/>
        <pt x="85" y="595" on="1"/>
        <pt x="85" y="782" on="0"/>
        <pt x="181" y="803" on="1"/>
        <pt x="208" y="806" on="1"/>
        <pt x="238" y="806" on="0"/>
        <pt x="260" y="793" on="1"/>
        <pt x="245" y="728" on="1"/>
        <pt x="228" y="738" on="0"/>
        <pt x="211" y="738" on="1"/>
        <pt x="184" y="738" on="0"/>
        <pt x="162" y="684" on="0"/>
        <pt x="162" y="616" on="1"/>
        <pt x="162" y="535" on="1"/>
        <pt x="162" y="401" on="0"/>
        <pt x="116" y="350" on="1"/>
        <pt x="162" y="299" on="0"/>
        <pt x="162" y="166" on="1"/>
        <pt x="162" y="85" on="1"/>
        <pt x="162" y="17" on="0"/>
        <pt x="184" y="-37" on="0"/>
        <pt x="211" y="-37" on="1"/>
        <pt x="228" y="-37" on="0"/>
        <pt x="245" y="-27" on="1"/>
        <pt x="260" y="-92" on="1"/>
        <pt x="238" y="-105" on="0"/>
        <pt x="208" y="-105" on="1"/>
        <pt x="181" y="-102" on="1"/>
        <pt x="85" y="-81" on="0"/>
      </contour>
    </TTGlyph>
    <TTGlyph name="braceright" xMin="4" yMin="-105" xMax="244" yMax="806">
      <contour>
        <pt x="53" y="-37" on="1"/>
        <pt x="80" y="-37" on="0"/>
        <pt x="102" y="17" on="0"/>
        <pt x="102" y="85" on="1"/>
        <pt x="102" y="166" on="1"/>
        <pt x="102" y="299" on="0"/>
        <pt x="148" y="350" on="1"/>
        <pt x="102" y="401" on="0"/>
        <pt x="102" y="535" on="1"/>
        <pt x="102" y="616" on="1"/>
        <pt x="102" y="684" on="0"/>
        <pt x="80" y="738" on="0"/>
        <pt x="53" y="738" on="1"/>
        <pt x="36" y="738" on="0"/>
        <pt x="19" y="728" on="1"/>
        <pt x="4" y="793" on="1"/>
        <pt x="26" y="806" on="0"/>
        <pt x="56" y="806" on="1"/>
        <pt x="83" y="803" on="1"/>
        <pt x="179" y="782" on="0"/>
        <pt x="179" y="595" on="1"/>
        <pt x="179" y="499" on="1"/>
        <pt x="179" y="439" on="0"/>
        <pt x="204" y="379" on="0"/>
        <pt x="244" y="379" on="1"/>
        <pt x="244" y="322" on="1"/>
        <pt x="243" y="322" on="0"/>
        <pt x="241" y="322" on="1"/>
        <pt x="204" y="322" on="0"/>
        <pt x="179" y="263" on="0"/>
        <pt x="179" y="202" on="1"/>
        <pt x="179" y="106" on="1"/>
        <pt x="179" y="-81" on="0"/>
        <pt x="83" y="-102" on="1"/>
        <pt x="56" y="-105" on="1"/>
        <pt x="26" y="-105" on="0"/>
        <pt x="4" y="-92" on="1"/>
        <pt x="19" y="-27" on="1"/>
        <pt x="36" y="-37" on="0"/>
      </contour>
    </TTGlyph>
    <TTGlyph name="bracketleft" xMin="63" yMin="-100" xMax="236" yMax="800">
      <contour>
        <pt x="63" y="-100" on="1"/>
        <pt x="63" y="800" on="1"/>
        <pt x="236" y="800" on="1"/>
        <pt x="236" y="736" on="1"/>
        <pt x="142" y="736" on="1"/>
        <pt x="142" y="-36" on="1"/>
        <pt x="236" y="-36" on="1"/>
        <pt x="236" y="-100" on="1"/>
      </contour>
    </TTGlyph>
    <TTGlyph name="bracketright" xMin="10" yMin="-100" xMax="183" yMax="800">
      <contour>
        <pt x="183" y="800" on="1"/>
        <pt x="183" y="-100" on="1"/>
        <pt x="10" y="-100" on="1"/>
        <pt x="10" y="-36" on="1"/>
        <pt x="104" y="-36" on="1"/>
        <pt x="104" y="736" on="1"/>
        <pt x="10" y="736" on="1"/>
        <pt x="10" y="800" on="1"/>
      </contour>
    </TTGlyph>
    <TTGlyph name="breve" xMin="42" yMin="613" xMax="228" yMax="728">
      <contour>
        <pt x="144" y="613" on="1"/>
        <pt x="125" y="613" on="1"/>
        <pt x="76" y="613" on="0"/>
        <pt x="42" y="672" on="0"/>
        <pt x="42" y="728" on="1"/>
        <pt x="83" y="728" on="1"/>
        <pt x="83" y="704" on="0"/>
        <pt x="101" y="681" on="0"/>
        <pt x="128" y="681" on="1"/>
        <pt x="142" y="681" on="1"/>
        <pt x="186" y="681" on="0"/>
        <pt x="186" y="728" on="1"/>
        <pt x="228" y="728" on="1"/>
        <pt x="228" y="672" on="0"/>
        <pt x="193" y="613" on="0"/>
      </contour>
    </TTGlyph>
    <TTGlyph name="brokenbar" xMin="91" yMin="-52" xMax="143" yMax="752">
      <contour>
        <pt x="91" y="448" on="1"/>
        <pt x="91" y="752" on="1"/>
        <pt x="143" y="752" on="1"/>
        <pt x="143" y="448" on="1"/>
      </contour>
      <contour>
        <pt x="91" y="-52" on="1"/>
        <pt x="91" y="252" on="1"/>
        <pt x="143" y="252" on="1"/>
        <pt x="143" y="-52" on="1"/>
      </contour>
    </TTGlyph>
    <TTGlyph name="bullet" xMin="27" yMin="265" xMax="175" yMax="435">
      <contour>
        <pt x="100" y="265" on="1"/>
        <pt x="27" y="350" on="1"/>
        <pt x="100" y="435" on="1"/>
        <pt x="175" y="350" on="1"/>
      </contour>
    </TTGlyph>
    <TTGlyph name="c" xMin="49" yMin="-15" xMax="318" yMax="555">
      <contour>
        <pt x="310" y="60" on="0"/>
        <pt x="240" y="-15" on="0"/>
        <pt x="119" y="-15" on="0"/>
        <pt x="49" y="70" on="0"/>
        <pt x="49" y="175" on="1"/>
        <pt x="49" y="345" on="1"/>
        <pt x="49" y="464" on="0"/>
        <pt x="119" y="555" on="0"/>
        <pt x="240" y="555" on="0"/>
        <pt x="308" y="489" on="0"/>
        <pt x="315" y="403" on="1"/>
        <pt x="245" y="384" on="1"/>
        <pt x="241" y="493" on="0"/>
        <pt x="184" y="493" on="1"/>
        <pt x="155" y="493" on="0"/>
        <pt x="125" y="441" on="0"/>
        <pt x="125" y="359" on="1"/>
        <pt x="125" y="168" on="1"/>
        <pt x="125" y="98" on="0"/>
        <pt x="156" y="48" on="0"/>
        <pt x="214" y="48" on="0"/>
        <pt x="246" y="97" on="0"/>
        <pt x="253" y="167" on="1"/>
        <pt x="318" y="157" on="1"/>
      </contour>
    </TTGlyph>
    <TTGlyph name="caron" xMin="31" yMin="600" xMax="232" yMax="750">
      <contour>
        <pt x="121" y="600" on="1"/>
        <pt x="31" y="715" on="1"/>
        <pt x="54" y="750" on="1"/>
        <pt x="131" y="680" on="1"/>
        <pt x="208" y="750" on="1"/>
        <pt x="232" y="715" on="1"/>
        <pt x="140" y="600" on="1"/>
      </contour>
    </TTGlyph>
    <TTGlyph name="ccedilla" xMin="49" yMin="-195" xMax="318" yMax="555">
      <contour>
        <pt x="247" y="-122" on="1"/>
        <pt x="247" y="-195" on="0"/>
        <pt x="181" y="-195" on="1"/>
        <pt x="127" y="-195" on="0"/>
        <pt x="120" y="-128" on="1"/>
        <pt x="161" y="-120" on="1"/>
        <pt x="163" y="-141" on="0"/>
        <pt x="172" y="-154" on="0"/>
        <pt x="181" y="-154" on="1"/>
        <pt x="200" y="-154" on="0"/>
        <pt x="200" y="-124" on="1"/>
        <pt x="200" y="-114" on="1"/>
        <pt x="200" y="-100" on="0"/>
        <pt x="184" y="-79" on="0"/>
        <pt x="156" y="-71" on="1"/>
        <pt x="164" y="-14" on="1"/>
        <pt x="49" y="-5" on="0"/>
        <pt x="49" y="175" on="1"/>
        <pt x="49" y="345" on="1"/>
        <pt x="49" y="464" on="0"/>
        <pt x="119" y="555" on="0"/>
        <pt x="240" y="555" on="0"/>
        <pt x="308" y="489" on="0"/>
        <pt x="315" y="403" on="1"/>
        <pt x="245" y="384" on="1"/>
        <pt x="241" y="493" on="0"/>
        <pt x="184" y="493" on="1"/>
        <pt x="155" y="493" on="0"/>
        <pt x="125" y="441" on="0"/>
        <pt x="125" y="359" on="1"/>
        <pt x="125" y="168" on="1"/>
        <pt x="125" y="98" on="0"/>
        <pt x="156" y="48" on="0"/>
        <pt x="214" y="48" on="0"/>
        <pt x="246" y="97" on="0"/>
        <pt x="253" y="167" on="1"/>
        <pt x="318" y="157" on="1"/>
        <pt x="310" y="67" on="0"/>
        <pt x="248" y="-10" on="0"/>
        <pt x="195" y="-14" on="1"/>
        <pt x="192" y="-49" on="1"/>
        <pt x="247" y="-65" on="0"/>
      </contour>
    </TTGlyph>
    <TTGlyph name="cedilla" xMin="23" yMin="-195" xMax="150" yMax="0">
      <contour>
        <pt x="150" y="-122" on="1"/>
        <pt x="150" y="-195" on="0"/>
        <pt x="84" y="-195" on="1"/>
        <pt x="30" y="-195" on="0"/>
        <pt x="23" y="-128" on="1"/>
        <pt x="64" y="-120" on="1"/>
        <pt x="66" y="-141" on="0"/>
        <pt x="75" y="-154" on="0"/>
        <pt x="84" y="-154" on="1"/>
        <pt x="103" y="-154" on="0"/>
        <pt x="103" y="-124" on="1"/>
        <pt x="103" y="-114" on="1"/>
        <pt x="103" y="-100" on="0"/>
        <pt x="87" y="-79" on="0"/>
        <pt x="59" y="-71" on="1"/>
        <pt x="69" y="0" on="1"/>
        <pt x="100" y="0" on="1"/>
        <pt x="95" y="-49" on="1"/>
        <pt x="150" y="-65" on="0"/>
      </contour>
    </TTGlyph>
    <TTGlyph name="cent" xMin="49" yMin="-15" xMax="324" yMax="715">
      <contour>
        <pt x="160" y="-15" on="1"/>
        <pt x="160" y="86" on="1"/>
        <pt x="49" y="100" on="0"/>
        <pt x="49" y="275" on="1"/>
        <pt x="49" y="405" on="1"/>
        <pt x="49" y="512" on="0"/>
        <pt x="107" y="606" on="0"/>
        <pt x="160" y="613" on="1"/>
        <pt x="160" y="715" on="1"/>
        <pt x="212" y="715" on="1"/>
        <pt x="212" y="613" on="1"/>
        <pt x="308" y="601" on="0"/>
        <pt x="320" y="463" on="1"/>
        <pt x="251" y="444" on="1"/>
        <pt x="245" y="553" on="0"/>
        <pt x="187" y="553" on="1"/>
        <pt x="156" y="553" on="0"/>
        <pt x="125" y="501" on="0"/>
        <pt x="125" y="419" on="1"/>
        <pt x="125" y="268" on="1"/>
        <pt x="125" y="198" on="0"/>
        <pt x="157" y="148" on="0"/>
        <pt x="218" y="148" on="0"/>
        <pt x="251" y="198" on="0"/>
        <pt x="257" y="267" on="1"/>
        <pt x="324" y="257" on="1"/>
        <pt x="310" y="102" on="0"/>
        <pt x="212" y="87" on="1"/>
        <pt x="212" y="-15" on="1"/>
      </contour>
    </TTGlyph>
    <TTGlyph name="circumflex" xMin="31" yMin="600" xMax="232" yMax="750">
      <contour>
        <pt x="140" y="750" on="1"/>
        <pt x="232" y="634" on="1"/>
        <pt x="208" y="600" on="1"/>
        <pt x="131" y="670" on="1"/>
        <pt x="54" y="600" on="1"/>
        <pt x="31" y="634" on="1"/>
        <pt x="121" y="750" on="1"/>
      </contour>
    </TTGlyph>
    <TTGlyph name="colon" xMin="42" yMin="0" xMax="121" yMax="500">
      <contour>
        <pt x="42" y="0" on="1"/>
        <pt x="42" y="92" on="1"/>
        <pt x="121" y="92" on="1"/>
        <pt x="121" y="0" on="1"/>
      </contour>
      <contour>
        <pt x="42" y="408" on="1"/>
        <pt x="42" y="500" on="1"/>
        <pt x="121" y="500" on="1"/>
        <pt x="121" y="408" on="1"/>
      </contour>
    </TTGlyph>
    <TTGlyph name="comma" xMin="42" yMin="-120" xMax="121" yMax="92">
      <contour>
        <pt x="42" y="0" on="1"/>
        <pt x="42" y="92" on="1"/>
        <pt x="121" y="92" on="1"/>
        <pt x="121" y="4" on="1"/>
        <pt x="82" y="-120" on="1"/>
        <pt x="52" y="-114" on="1"/>
        <pt x="64" y="0" on="1"/>
      </contour>
    </TTGlyph>
    <TTGlyph name="copyright" xMin="56" yMin="215" xMax="471" yMax="839">
      <contour>
        <pt x="218" y="384" on="0"/>
        <pt x="240" y="345" on="0"/>
        <pt x="283" y="345" on="0"/>
        <pt x="306" y="379" on="0"/>
        <pt x="310" y="426" on="1"/>
        <pt x="360" y="420" on="1"/>
        <pt x="354" y="354" on="0"/>
        <pt x="305" y="300" on="0"/>
        <pt x="215" y="300" on="0"/>
        <pt x="163" y="364" on="0"/>
        <pt x="163" y="448" on="1"/>
        <pt x="163" y="607" on="1"/>
        <pt x="163" y="691" on="0"/>
        <pt x="215" y="755" on="0"/>
        <pt x="303" y="755" on="0"/>
        <pt x="350" y="709" on="0"/>
        <pt x="356" y="650" on="1"/>
        <pt x="304" y="637" on="1"/>
        <pt x="300" y="679" on="0"/>
        <pt x="280" y="710" on="0"/>
        <pt x="240" y="710" on="0"/>
        <pt x="218" y="670" on="0"/>
        <pt x="218" y="617" on="1"/>
        <pt x="218" y="435" on="1"/>
      </contour>
      <contour>
        <pt x="471" y="570" on="1"/>
        <pt x="471" y="484" on="1"/>
        <pt x="471" y="331" on="0"/>
        <pt x="363" y="215" on="0"/>
        <pt x="163" y="215" on="0"/>
        <pt x="56" y="331" on="0"/>
        <pt x="56" y="484" on="1"/>
        <pt x="56" y="570" on="1"/>
        <pt x="56" y="723" on="0"/>
        <pt x="163" y="839" on="0"/>
        <pt x="363" y="839" on="0"/>
        <pt x="471" y="723" on="0"/>
      </contour>
      <contour>
        <pt x="438" y="484" on="1"/>
        <pt x="438" y="570" on="1"/>
        <pt x="438" y="700" on="0"/>
        <pt x="347" y="799" on="0"/>
        <pt x="179" y="799" on="0"/>
        <pt x="89" y="700" on="0"/>
        <pt x="89" y="570" on="1"/>
        <pt x="89" y="484" on="1"/>
        <pt x="89" y="354" on="0"/>
        <pt x="179" y="255" on="0"/>
        <pt x="347" y="255" on="0"/>
        <pt x="438" y="354" on="0"/>
      </contour>
    </TTGlyph>
    <TTGlyph name="d" xMin="49" yMin="-15" xMax="329" yMax="740">
      <contour>
        <pt x="158" y="-15" on="1"/>
        <pt x="106" y="-15" on="0"/>
        <pt x="49" y="76" on="0"/>
        <pt x="49" y="195" on="1"/>
        <pt x="49" y="345" on="1"/>
        <pt x="49" y="464" on="0"/>
        <pt x="106" y="555" on="0"/>
        <pt x="158" y="555" on="1"/>
        <pt x="230" y="555" on="0"/>
        <pt x="256" y="469" on="1"/>
        <pt x="256" y="740" on="1"/>
        <pt x="329" y="740" on="1"/>
        <pt x="329" y="0" on="1"/>
        <pt x="282" y="0" on="1"/>
        <pt x="258" y="104" on="1"/>
        <pt x="238" y="-15" on="0"/>
      </contour>
      <contour>
        <pt x="253" y="179" on="0"/>
        <pt x="253" y="361" on="0"/>
        <pt x="230" y="464" on="0"/>
        <pt x="199" y="493" on="0"/>
        <pt x="174" y="493" on="1"/>
        <pt x="123" y="493" on="0"/>
        <pt x="123" y="369" on="1"/>
        <pt x="123" y="171" on="1"/>
        <pt x="123" y="102" on="0"/>
        <pt x="151" y="47" on="0"/>
        <pt x="201" y="47" on="0"/>
        <pt x="231" y="76" on="0"/>
      </contour>
    </TTGlyph>
    <TTGlyph name="dagger" xMin="53" yMin="0" xMax="361" yMax="883">
      <contour>
        <pt x="361" y="636" on="1"/>
        <pt x="245" y="636" on="1"/>
        <pt x="245" y="0" on="1"/>
        <pt x="170" y="0" on="1"/>
        <pt x="170" y="636" on="1"/>
        <pt x="53" y="636" on="1"/>
        <pt x="53" y="700" on="1"/>
        <pt x="170" y="700" on="1"/>
        <pt x="170" y="883" on="1"/>
        <pt x="245" y="883" on="1"/>
        <pt x="245" y="700" on="1"/>
        <pt x="361" y="700" on="1"/>
      </contour>
    </TTGlyph>
    <TTGlyph name="daggerdbl" xMin="53" yMin="0" xMax="361" yMax="883">
      <contour>
        <pt x="361" y="183" on="1"/>
        <pt x="245" y="183" on="1"/>
        <pt x="245" y="0" on="1"/>
        <pt x="170" y="0" on="1"/>
        <pt x="170" y="183" on="1"/>
        <pt x="53" y="183" on="1"/>
        <pt x="53" y="247" on="1"/>
        <pt x="170" y="247" on="1"/>
        <pt x="170" y="636" on="1"/>
        <pt x="53" y="636" on="1"/>
        <pt x="53" y="700" on="1"/>
        <pt x="170" y="700" on="1"/>
        <pt x="170" y="883" on="1"/>
        <pt x="245" y="883" on="1"/>
        <pt x="245" y="700" on="1"/>
        <pt x="361" y="700" on="1"/>
        <pt x="361" y="636" on="1"/>
        <pt x="245" y="636" on="1"/>
        <pt x="245" y="247" on="1"/>
        <pt x="361" y="247" on="1"/>
      </contour>
    </TTGlyph>
    <TTGlyph name="degree" xMin="41" yMin="316" xMax="280" yMax="715">
      <contour>
        <pt x="280" y="568" on="1"/>
        <pt x="280" y="463" on="1"/>
        <pt x="280" y="379" on="0"/>
        <pt x="218" y="316" on="0"/>
        <pt x="103" y="316" on="0"/>
        <pt x="41" y="379" on="0"/>
        <pt x="41" y="463" on="1"/>
        <pt x="41" y="568" on="1"/>
        <pt x="41" y="651" on="0"/>
        <pt x="103" y="715" on="0"/>
        <pt x="218" y="715" on="0"/>
        <pt x="280" y="651" on="0"/>
      </contour>
      <contour>
        <pt x="218" y="453" on="1"/>
        <pt x="218" y="577" on="1"/>
        <pt x="218" y="666" on="0"/>
        <pt x="103" y="666" on="0"/>
        <pt x="103" y="577" on="1"/>
        <pt x="103" y="453" on="1"/>
        <pt x="103" y="403" on="0"/>
        <pt x="133" y="365" on="0"/>
        <pt x="161" y="365" on="1"/>
        <pt x="218" y="365" on="0"/>
      </contour>
    </TTGlyph>
    <TTGlyph name="dieresis" xMin="54" yMin="646" xMax="274" yMax="740">
      <contour>
        <pt x="54" y="646" on="1"/>
        <pt x="54" y="740" on="1"/>
        <pt x="135" y="740" on="1"/>
        <pt x="135" y="646" on="1"/>
      </contour>
      <contour>
        <pt x="194" y="646" on="1"/>
        <pt x="194" y="740" on="1"/>
        <pt x="274" y="740" on="1"/>
        <pt x="274" y="646" on="1"/>
      </contour>
    </TTGlyph>
    <TTGlyph name="divide" xMin="56" yMin="137" xMax="320" yMax="563">
      <contour>
        <pt x="154" y="137" on="1"/>
        <pt x="154" y="215" on="1"/>
        <pt x="221" y="215" on="1"/>
        <pt x="221" y="137" on="1"/>
      </contour>
      <contour>
        <pt x="154" y="485" on="1"/>
        <pt x="154" y="563" on="1"/>
        <pt x="221" y="563" on="1"/>
        <pt x="221" y="485" on="1"/>
      </contour>
      <contour>
        <pt x="56" y="319" on="1"/>
        <pt x="56" y="381" on="1"/>
        <pt x="320" y="381" on="1"/>
        <pt x="320" y="319" on="1"/>
      </contour>
    </TTGlyph>
    <TTGlyph name="dollar" xMin="42" yMin="-112" xMax="343" yMax="812">
      <contour>
        <pt x="172" y="-112" on="1"/>
        <pt x="172" y="10" on="1"/>
        <pt x="116" y="16" on="0"/>
        <pt x="50" y="104" on="0"/>
        <pt x="42" y="205" on="1"/>
        <pt x="116" y="218" on="1"/>
        <pt x="123" y="74" on="0"/>
        <pt x="193" y="74" on="1"/>
        <pt x="267" y="74" on="0"/>
        <pt x="267" y="170" on="1"/>
        <pt x="267" y="240" on="0"/>
        <pt x="214" y="282" on="1"/>
        <pt x="139" y="338" on="1"/>
        <pt x="98" y="367" on="0"/>
        <pt x="54" y="449" on="0"/>
        <pt x="54" y="515" on="1"/>
        <pt x="54" y="676" on="0"/>
        <pt x="172" y="689" on="1"/>
        <pt x="172" y="812" on="1"/>
        <pt x="225" y="812" on="1"/>
        <pt x="225" y="688" on="1"/>
        <pt x="274" y="682" on="0"/>
        <pt x="333" y="606" on="0"/>
        <pt x="342" y="523" on="1"/>
        <pt x="266" y="505" on="1"/>
        <pt x="263" y="623" on="0"/>
        <pt x="196" y="623" on="1"/>
        <pt x="131" y="623" on="0"/>
        <pt x="131" y="525" on="1"/>
        <pt x="131" y="481" on="0"/>
        <pt x="150" y="429" on="0"/>
        <pt x="178" y="407" on="1"/>
        <pt x="254" y="349" on="1"/>
        <pt x="281" y="330" on="0"/>
        <pt x="313" y="297" on="0"/>
        <pt x="343" y="223" on="0"/>
        <pt x="343" y="173" on="1"/>
        <pt x="343" y="27" on="0"/>
        <pt x="225" y="11" on="1"/>
        <pt x="225" y="-112" on="1"/>
      </contour>
    </TTGlyph>
    <TTGlyph name="dotaccent" xMin="60" yMin="646" xMax="143" yMax="740">
      <contour>
        <pt x="60" y="646" on="1"/>
        <pt x="60" y="740" on="1"/>
        <pt x="143" y="740" on="1"/>
        <pt x="143" y="646" on="1"/>
      </contour>
    </TTGlyph>
    <TTGlyph name="dotlessi" xMin="63" yMin="0" xMax="140" yMax="540">
      <contour>
        <pt x="63" y="0" on="1"/>
        <pt x="63" y="540" on="1"/>
        <pt x="140" y="540" on="1"/>
        <pt x="140" y="0" on="1"/>
      </contour>
    </TTGlyph>
    <TTGlyph name="e" xMin="49" yMin="-15" xMax="330" yMax="555">
      <contour>
        <pt x="321" y="53" on="0"/>
        <pt x="253" y="-15" on="0"/>
        <pt x="124" y="-15" on="0"/>
        <pt x="49" y="76" on="0"/>
        <pt x="49" y="195" on="1"/>
        <pt x="49" y="345" on="1"/>
        <pt x="49" y="464" on="0"/>
        <pt x="124" y="555" on="0"/>
        <pt x="260" y="555" on="0"/>
        <pt x="330" y="465" on="0"/>
        <pt x="330" y="345" on="1"/>
        <pt x="330" y="238" on="1"/>
        <pt x="125" y="238" on="1"/>
        <pt x="125" y="181" on="1"/>
        <pt x="125" y="47" on="0"/>
        <pt x="189" y="47" on="1"/>
        <pt x="220" y="47" on="0"/>
        <pt x="254" y="91" on="0"/>
        <pt x="261" y="151" on="1"/>
        <pt x="328" y="140" on="1"/>
      </contour>
      <contour>
        <pt x="125" y="359" on="1"/>
        <pt x="125" y="302" on="1"/>
        <pt x="253" y="302" on="1"/>
        <pt x="253" y="359" on="1"/>
        <pt x="253" y="493" on="0"/>
        <pt x="190" y="493" on="1"/>
        <pt x="125" y="493" on="0"/>
      </contour>
    </TTGlyph>
    <TTGlyph name="eacute" xMin="49" yMin="-15" xMax="330" yMax="756">
      <contour>
        <pt x="321" y="53" on="0"/>
        <pt x="253" y="-15" on="0"/>
        <pt x="124" y="-15" on="0"/>
        <pt x="49" y="76" on="0"/>
        <pt x="49" y="195" on="1"/>
        <pt x="49" y="345" on="1"/>
        <pt x="49" y="464" on="0"/>
        <pt x="124" y="555" on="0"/>
        <pt x="260" y="555" on="0"/>
        <pt x="330" y="465" on="0"/>
        <pt x="330" y="345" on="1"/>
        <pt x="330" y="238" on="1"/>
        <pt x="125" y="238" on="1"/>
        <pt x="125" y="181" on="1"/>
        <pt x="125" y="47" on="0"/>
        <pt x="189" y="47" on="1"/>
        <pt x="220" y="47" on="0"/>
        <pt x="254" y="91" on="0"/>
        <pt x="261" y="151" on="1"/>
        <pt x="328" y="140" on="1"/>
      </contour>
      <contour>
        <pt x="125" y="359" on="1"/>
        <pt x="125" y="302" on="1"/>
        <pt x="253" y="302" on="1"/>
        <pt x="253" y="359" on="1"/>
        <pt x="253" y="493" on="0"/>
        <pt x="190" y="493" on="1"/>
        <pt x="125" y="493" on="0"/>
      </contour>
      <contour>
        <pt x="115" y="638" on="1"/>
        <pt x="245" y="756" on="1"/>
        <pt x="280" y="689" on="1"/>
        <pt x="137" y="602" on="1"/>
      </contour>
    </TTGlyph>
    <TTGlyph name="ecircumflex" xMin="49" yMin="-15" xMax="330" yMax="750">
      <contour>
        <pt x="321" y="53" on="0"/>
        <pt x="253" y="-15" on="0"/>
        <pt x="124" y="-15" on="0"/>
        <pt x="49" y="76" on="0"/>
        <pt x="49" y="195" on="1"/>
        <pt x="49" y="345" on="1"/>
        <pt x="49" y="464" on="0"/>
        <pt x="124" y="555" on="0"/>
        <pt x="260" y="555" on="0"/>
        <pt x="330" y="465" on="0"/>
        <pt x="330" y="345" on="1"/>
        <pt x="330" y="238" on="1"/>
        <pt x="125" y="238" on="1"/>
        <pt x="125" y="181" on="1"/>
        <pt x="125" y="47" on="0"/>
        <pt x="189" y="47" on="1"/>
        <pt x="220" y="47" on="0"/>
        <pt x="254" y="91" on="0"/>
        <pt x="261" y="151" on="1"/>
        <pt x="328" y="140" on="1"/>
      </contour>
      <contour>
        <pt x="125" y="359" on="1"/>
        <pt x="125" y="302" on="1"/>
        <pt x="253" y="302" on="1"/>
        <pt x="253" y="359" on="1"/>
        <pt x="253" y="493" on="0"/>
        <pt x="190" y="493" on="1"/>
        <pt x="125" y="493" on="0"/>
      </contour>
      <contour>
        <pt x="199" y="750" on="1"/>
        <pt x="291" y="634" on="1"/>
        <pt x="267" y="600" on="1"/>
        <pt x="190" y="670" on="1"/>
        <pt x="113" y="600" on="1"/>
        <pt x="90" y="634" on="1"/>
        <pt x="180" y="750" on="1"/>
      </contour>
    </TTGlyph>
    <TTGlyph name="edieresis" xMin="49" yMin="-15" xMax="330" yMax="740">
      <contour>
        <pt x="321" y="53" on="0"/>
        <pt x="253" y="-15" on="0"/>
        <pt x="124" y="-15" on="0"/>
        <pt x="49" y="76" on="0"/>
        <pt x="49" y="195" on="1"/>
        <pt x="49" y="345" on="1"/>
        <pt x="49" y="464" on="0"/>
        <pt x="124" y="555" on="0"/>
        <pt x="260" y="555" on="0"/>
        <pt x="330" y="465" on="0"/>
        <pt x="330" y="345" on="1"/>
        <pt x="330" y="238" on="1"/>
        <pt x="125" y="238" on="1"/>
        <pt x="125" y="181" on="1"/>
        <pt x="125" y="47" on="0"/>
        <pt x="189" y="47" on="1"/>
        <pt x="220" y="47" on="0"/>
        <pt x="254" y="91" on="0"/>
        <pt x="261" y="151" on="1"/>
        <pt x="328" y="140" on="1"/>
      </contour>
      <contour>
        <pt x="125" y="359" on="1"/>
        <pt x="125" y="302" on="1"/>
        <pt x="253" y="302" on="1"/>
        <pt x="253" y="359" on="1"/>
        <pt x="253" y="493" on="0"/>
        <pt x="190" y="493" on="1"/>
        <pt x="125" y="493" on="0"/>
      </contour>
      <contour>
        <pt x="80" y="646" on="1"/>
        <pt x="80" y="740" on="1"/>
        <pt x="161" y="740" on="1"/>
        <pt x="161" y="646" on="1"/>
      </contour>
      <contour>
        <pt x="220" y="646" on="1"/>
        <pt x="220" y="740" on="1"/>
        <pt x="300" y="740" on="1"/>
        <pt x="300" y="646" on="1"/>
      </contour>
    </TTGlyph>
    <TTGlyph name="egrave" xMin="49" yMin="-15" xMax="330" yMax="756">
      <contour>
        <pt x="321" y="53" on="0"/>
        <pt x="253" y="-15" on="0"/>
        <pt x="124" y="-15" on="0"/>
        <pt x="49" y="76" on="0"/>
        <pt x="49" y="195" on="1"/>
        <pt x="49" y="345" on="1"/>
        <pt x="49" y="464" on="0"/>
        <pt x="124" y="555" on="0"/>
        <pt x="260" y="555" on="0"/>
        <pt x="330" y="465" on="0"/>
        <pt x="330" y="345" on="1"/>
        <pt x="330" y="238" on="1"/>
        <pt x="125" y="238" on="1"/>
        <pt x="125" y="181" on="1"/>
        <pt x="125" y="47" on="0"/>
        <pt x="189" y="47" on="1"/>
        <pt x="220" y="47" on="0"/>
        <pt x="254" y="91" on="0"/>
        <pt x="261" y="151" on="1"/>
        <pt x="328" y="140" on="1"/>
      </contour>
      <contour>
        <pt x="125" y="359" on="1"/>
        <pt x="125" y="302" on="1"/>
        <pt x="253" y="302" on="1"/>
        <pt x="253" y="359" on="1"/>
        <pt x="253" y="493" on="0"/>
        <pt x="190" y="493" on="1"/>
        <pt x="125" y="493" on="0"/>
      </contour>
      <contour>
        <pt x="143" y="756" on="1"/>
        <pt x="273" y="638" on="1"/>
        <pt x="251" y="602" on="1"/>
        <pt x="108" y="689" on="1"/>
      </contour>
    </TTGlyph>
    <TTGlyph name="eight" xMin="49" yMin="-15" xMax="368" yMax="715">
      <contour>
        <pt x="355" y="532" on="1"/>
        <pt x="355" y="395" on="0"/>
        <pt x="281" y="362" on="1"/>
        <pt x="368" y="327" on="0"/>
        <pt x="368" y="179" on="1"/>
        <pt x="368" y="69" on="0"/>
        <pt x="285" y="-15" on="0"/>
        <pt x="131" y="-15" on="0"/>
        <pt x="49" y="69" on="0"/>
        <pt x="49" y="179" on="1"/>
        <pt x="49" y="330" on="0"/>
        <pt x="135" y="362" on="1"/>
        <pt x="63" y="396" on="0"/>
        <pt x="63" y="532" on="1"/>
        <pt x="63" y="636" on="0"/>
        <pt x="138" y="715" on="0"/>
        <pt x="279" y="715" on="0"/>
        <pt x="355" y="636" on="0"/>
      </contour>
      <contour>
        <pt x="289" y="173" on="1"/>
        <pt x="289" y="204" on="1"/>
        <pt x="289" y="275" on="0"/>
        <pt x="247" y="330" on="0"/>
        <pt x="170" y="330" on="0"/>
        <pt x="128" y="275" on="0"/>
        <pt x="128" y="204" on="1"/>
        <pt x="128" y="173" on="1"/>
        <pt x="128" y="102" on="0"/>
        <pt x="170" y="47" on="0"/>
        <pt x="247" y="47" on="0"/>
        <pt x="289" y="102" on="0"/>
      </contour>
      <contour>
        <pt x="278" y="504" on="1"/>
        <pt x="278" y="540" on="1"/>
        <pt x="278" y="605" on="0"/>
        <pt x="242" y="653" on="0"/>
        <pt x="175" y="653" on="0"/>
        <pt x="139" y="605" on="0"/>
        <pt x="139" y="540" on="1"/>
        <pt x="139" y="504" on="1"/>
        <pt x="139" y="439" on="0"/>
        <pt x="175" y="391" on="0"/>
        <pt x="242" y="391" on="0"/>
        <pt x="278" y="439" on="0"/>
      </contour>
    </TTGlyph>
    <TTGlyph name="eightinferior" xMin="35" yMin="-15" xMax="248" yMax="423">
      <contour>
        <pt x="239" y="313" on="1"/>
        <pt x="239" y="231" on="0"/>
        <pt x="193" y="210" on="1"/>
        <pt x="248" y="190" on="0"/>
        <pt x="248" y="101" on="1"/>
        <pt x="248" y="35" on="0"/>
        <pt x="193" y="-15" on="0"/>
        <pt x="90" y="-15" on="0"/>
        <pt x="35" y="35" on="0"/>
        <pt x="35" y="101" on="1"/>
        <pt x="35" y="191" on="0"/>
        <pt x="90" y="210" on="1"/>
        <pt x="42" y="231" on="0"/>
        <pt x="42" y="313" on="1"/>
        <pt x="42" y="375" on="0"/>
        <pt x="94" y="423" on="0"/>
        <pt x="188" y="423" on="0"/>
        <pt x="239" y="375" on="0"/>
      </contour>
      <contour>
        <pt x="184" y="99" on="1"/>
        <pt x="184" y="119" on="1"/>
        <pt x="184" y="185" on="0"/>
        <pt x="142" y="185" on="1"/>
        <pt x="97" y="185" on="0"/>
        <pt x="97" y="119" on="1"/>
        <pt x="97" y="99" on="1"/>
        <pt x="97" y="33" on="0"/>
        <pt x="142" y="33" on="1"/>
        <pt x="184" y="33" on="0"/>
      </contour>
      <contour>
        <pt x="180" y="289" on="1"/>
        <pt x="180" y="319" on="1"/>
        <pt x="180" y="375" on="0"/>
        <pt x="103" y="375" on="0"/>
        <pt x="103" y="319" on="1"/>
        <pt x="103" y="289" on="1"/>
        <pt x="103" y="233" on="0"/>
        <pt x="180" y="233" on="0"/>
      </contour>
    </TTGlyph>
    <TTGlyph name="ellipsis" xMin="42" yMin="0" xMax="409" yMax="92">
      <contour>
        <pt x="42" y="0" on="1"/>
        <pt x="42" y="92" on="1"/>
        <pt x="121" y="92" on="1"/>
        <pt x="121" y="0" on="1"/>
      </contour>
      <contour>
        <pt x="186" y="0" on="1"/>
        <pt x="186" y="92" on="1"/>
        <pt x="265" y="92" on="1"/>
        <pt x="265" y="0" on="1"/>
      </contour>
      <contour>
        <pt x="330" y="0" on="1"/>
        <pt x="330" y="92" on="1"/>
        <pt x="409" y="92" on="1"/>
        <pt x="409" y="0" on="1"/>
      </contour>
    </TTGlyph>
    <TTGlyph name="emdash" xMin="42" yMin="274" xMax="450" yMax="336">
      <contour>
        <pt x="42" y="274" on="1"/>
        <pt x="42" y="336" on="1"/>
        <pt x="450" y="336" on="1"/>
        <pt x="450" y="274" on="1"/>
      </contour>
    </TTGlyph>
    <TTGlyph name="endash" xMin="42" yMin="274" xMax="360" yMax="336">
      <contour>
        <pt x="42" y="274" on="1"/>
        <pt x="42" y="336" on="1"/>
        <pt x="360" y="336" on="1"/>
        <pt x="360" y="274" on="1"/>
      </contour>
    </TTGlyph>
    <TTGlyph name="equal" xMin="56" yMin="219" xMax="320" yMax="481">
      <contour>
        <pt x="56" y="419" on="1"/>
        <pt x="56" y="481" on="1"/>
        <pt x="320" y="481" on="1"/>
        <pt x="320" y="419" on="1"/>
      </contour>
      <contour>
        <pt x="56" y="219" on="1"/>
        <pt x="56" y="281" on="1"/>
        <pt x="320" y="281" on="1"/>
        <pt x="320" y="219" on="1"/>
      </contour>
    </TTGlyph>
    <TTGlyph name="eth" xMin="49" yMin="-15" xMax="358" yMax="822">
      <contour>
        <pt x="330" y="413" on="1"/>
        <pt x="330" y="195" on="1"/>
        <pt x="330" y="76" on="0"/>
        <pt x="257" y="-15" on="0"/>
        <pt x="122" y="-15" on="0"/>
        <pt x="49" y="76" on="0"/>
        <pt x="49" y="195" on="1"/>
        <pt x="49" y="325" on="1"/>
        <pt x="49" y="535" on="0"/>
        <pt x="172" y="535" on="1"/>
        <pt x="230" y="535" on="0"/>
        <pt x="257" y="480" on="1"/>
        <pt x="254" y="574" on="0"/>
        <pt x="239" y="640" on="1"/>
        <pt x="153" y="598" on="1"/>
        <pt x="153" y="649" on="1"/>
        <pt x="225" y="684" on="1"/>
        <pt x="211" y="717" on="0"/>
        <pt x="167" y="753" on="0"/>
        <pt x="130" y="760" on="0"/>
        <pt x="102" y="760" on="1"/>
        <pt x="93" y="822" on="1"/>
        <pt x="162" y="822" on="0"/>
        <pt x="256" y="779" on="0"/>
        <pt x="286" y="713" on="1"/>
        <pt x="358" y="748" on="1"/>
        <pt x="358" y="698" on="1"/>
        <pt x="301" y="670" on="1"/>
        <pt x="330" y="575" on="0"/>
      </contour>
      <contour>
        <pt x="253" y="181" on="1"/>
        <pt x="253" y="339" on="1"/>
        <pt x="253" y="473" on="0"/>
        <pt x="190" y="473" on="1"/>
        <pt x="125" y="473" on="0"/>
        <pt x="125" y="339" on="1"/>
        <pt x="125" y="181" on="1"/>
        <pt x="125" y="47" on="0"/>
        <pt x="190" y="47" on="1"/>
        <pt x="253" y="47" on="0"/>
      </contour>
    </TTGlyph>
    <TTGlyph name="exclam" xMin="56" yMin="0" xMax="144" yMax="700">
      <contour>
        <pt x="73" y="167" on="1"/>
        <pt x="56" y="700" on="1"/>
        <pt x="144" y="700" on="1"/>
        <pt x="129" y="167" on="1"/>
      </contour>
      <contour>
        <pt x="61" y="0" on="1"/>
        <pt x="61" y="92" on="1"/>
        <pt x="140" y="92" on="1"/>
        <pt x="140" y="0" on="1"/>
      </contour>
    </TTGlyph>
    <TTGlyph name="exclamdown" xMin="56" yMin="-160" xMax="144" yMax="540">
      <contour>
        <pt x="56" y="-160" on="1"/>
        <pt x="73" y="373" on="1"/>
        <pt x="129" y="373" on="1"/>
        <pt x="144" y="-160" on="1"/>
      </contour>
      <contour>
        <pt x="61" y="448" on="1"/>
        <pt x="61" y="540" on="1"/>
        <pt x="140" y="540" on="1"/>
        <pt x="140" y="448" on="1"/>
      </contour>
    </TTGlyph>
    <TTGlyph name="f" xMin="19" yMin="0" xMax="238" yMax="755">
      <contour>
        <pt x="222" y="678" on="1"/>
        <pt x="205" y="688" on="0"/>
        <pt x="184" y="688" on="1"/>
        <pt x="138" y="688" on="0"/>
        <pt x="138" y="560" on="1"/>
        <pt x="138" y="540" on="1"/>
        <pt x="201" y="540" on="1"/>
        <pt x="201" y="478" on="1"/>
        <pt x="138" y="478" on="1"/>
        <pt x="138" y="0" on="1"/>
        <pt x="62" y="0" on="1"/>
        <pt x="62" y="478" on="1"/>
        <pt x="19" y="478" on="1"/>
        <pt x="19" y="540" on="1"/>
        <pt x="62" y="540" on="1"/>
        <pt x="62" y="545" on="1"/>
        <pt x="62" y="664" on="0"/>
        <pt x="122" y="755" on="0"/>
        <pt x="176" y="755" on="1"/>
        <pt x="210" y="755" on="0"/>
        <pt x="238" y="743" on="1"/>
      </contour>
    </TTGlyph>
    <TTGlyph name="fi" xMin="19" yMin="0" xMax="339" yMax="755">
      <contour>
        <pt x="222" y="678" on="1"/>
        <pt x="205" y="688" on="0"/>
        <pt x="184" y="688" on="1"/>
        <pt x="138" y="688" on="0"/>
        <pt x="138" y="560" on="1"/>
        <pt x="138" y="540" on="1"/>
        <pt x="201" y="540" on="1"/>
        <pt x="201" y="478" on="1"/>
        <pt x="138" y="478" on="1"/>
        <pt x="138" y="0" on="1"/>
        <pt x="62" y="0" on="1"/>
        <pt x="62" y="478" on="1"/>
        <pt x="19" y="478" on="1"/>
        <pt x="19" y="540" on="1"/>
        <pt x="62" y="540" on="1"/>
        <pt x="62" y="545" on="1"/>
        <pt x="62" y="664" on="0"/>
        <pt x="122" y="755" on="0"/>
        <pt x="176" y="755" on="1"/>
        <pt x="210" y="755" on="0"/>
        <pt x="238" y="743" on="1"/>
      </contour>
      <contour>
        <pt x="259" y="0" on="1"/>
        <pt x="259" y="540" on="1"/>
        <pt x="336" y="540" on="1"/>
        <pt x="336" y="0" on="1"/>
      </contour>
      <contour>
        <pt x="256" y="646" on="1"/>
        <pt x="256" y="740" on="1"/>
        <pt x="339" y="740" on="1"/>
        <pt x="339" y="646" on="1"/>
      </contour>
    </TTGlyph>
    <TTGlyph name="five" xMin="42" yMin="-15" xMax="343" yMax="700">
      <contour>
        <pt x="61" y="334" on="1"/>
        <pt x="61" y="700" on="1"/>
        <pt x="331" y="700" on="1"/>
        <pt x="331" y="636" on="1"/>
        <pt x="134" y="636" on="1"/>
        <pt x="134" y="396" on="1"/>
        <pt x="187" y="396" on="1"/>
        <pt x="263" y="396" on="0"/>
        <pt x="343" y="315" on="0"/>
        <pt x="343" y="80" on="0"/>
        <pt x="262" y="-15" on="0"/>
        <pt x="124" y="-15" on="0"/>
        <pt x="50" y="66" on="0"/>
        <pt x="42" y="168" on="1"/>
        <pt x="112" y="177" on="1"/>
        <pt x="118" y="102" on="0"/>
        <pt x="154" y="50" on="0"/>
        <pt x="225" y="50" on="0"/>
        <pt x="266" y="111" on="0"/>
        <pt x="266" y="191" on="1"/>
        <pt x="266" y="213" on="1"/>
        <pt x="266" y="281" on="0"/>
        <pt x="226" y="334" on="0"/>
        <pt x="187" y="334" on="1"/>
      </contour>
    </TTGlyph>
    <TTGlyph name="fiveinferior" xMin="35" yMin="-15" xMax="238" yMax="414">
      <contour>
        <pt x="48" y="192" on="1"/>
        <pt x="48" y="414" on="1"/>
        <pt x="228" y="414" on="1"/>
        <pt x="228" y="365" on="1"/>
        <pt x="109" y="365" on="1"/>
        <pt x="109" y="238" on="1"/>
        <pt x="132" y="238" on="1"/>
        <pt x="184" y="238" on="0"/>
        <pt x="238" y="188" on="0"/>
        <pt x="238" y="43" on="0"/>
        <pt x="183" y="-15" on="0"/>
        <pt x="89" y="-15" on="0"/>
        <pt x="41" y="34" on="0"/>
        <pt x="35" y="98" on="1"/>
        <pt x="93" y="108" on="1"/>
        <pt x="96" y="66" on="0"/>
        <pt x="116" y="34" on="0"/>
        <pt x="133" y="34" on="1"/>
        <pt x="175" y="34" on="0"/>
        <pt x="175" y="110" on="1"/>
        <pt x="175" y="127" on="1"/>
        <pt x="175" y="164" on="0"/>
        <pt x="154" y="192" on="0"/>
        <pt x="132" y="192" on="1"/>
      </contour>
    </TTGlyph>
    <TTGlyph name="fl" xMin="19" yMin="0" xMax="336" yMax="755">
      <contour>
        <pt x="222" y="678" on="1"/>
        <pt x="205" y="688" on="0"/>
        <pt x="184" y="688" on="1"/>
        <pt x="138" y="688" on="0"/>
        <pt x="138" y="560" on="1"/>
        <pt x="138" y="540" on="1"/>
        <pt x="201" y="540" on="1"/>
        <pt x="201" y="478" on="1"/>
        <pt x="138" y="478" on="1"/>
        <pt x="138" y="0" on="1"/>
        <pt x="62" y="0" on="1"/>
        <pt x="62" y="478" on="1"/>
        <pt x="19" y="478" on="1"/>
        <pt x="19" y="540" on="1"/>
        <pt x="62" y="540" on="1"/>
        <pt x="62" y="545" on="1"/>
        <pt x="62" y="664" on="0"/>
        <pt x="122" y="755" on="0"/>
        <pt x="176" y="755" on="1"/>
        <pt x="210" y="755" on="0"/>
        <pt x="238" y="743" on="1"/>
      </contour>
      <contour>
        <pt x="259" y="0" on="1"/>
        <pt x="259" y="740" on="1"/>
        <pt x="336" y="740" on="1"/>
        <pt x="336" y="0" on="1"/>
      </contour>
    </TTGlyph>
    <TTGlyph name="florin" xMin="-37" yMin="-195" xMax="240" yMax="755">
      <contour>
        <pt x="191" y="688" on="1"/>
        <pt x="165" y="688" on="0"/>
        <pt x="140" y="633" on="0"/>
        <pt x="140" y="560" on="1"/>
        <pt x="140" y="466" on="1"/>
        <pt x="203" y="466" on="1"/>
        <pt x="203" y="414" on="1"/>
        <pt x="140" y="414" on="1"/>
        <pt x="140" y="15" on="1"/>
        <pt x="140" y="-104" on="0"/>
        <pt x="79" y="-195" on="0"/>
        <pt x="24" y="-195" on="1"/>
        <pt x="-10" y="-195" on="0"/>
        <pt x="-37" y="-183" on="1"/>
        <pt x="-22" y="-118" on="1"/>
        <pt x="-3" y="-128" on="0"/>
        <pt x="12" y="-128" on="1"/>
        <pt x="37" y="-128" on="0"/>
        <pt x="63" y="-73" on="0"/>
        <pt x="63" y="0" on="1"/>
        <pt x="63" y="414" on="1"/>
        <pt x="12" y="414" on="1"/>
        <pt x="12" y="466" on="1"/>
        <pt x="63" y="466" on="1"/>
        <pt x="63" y="545" on="1"/>
        <pt x="63" y="664" on="0"/>
        <pt x="124" y="755" on="0"/>
        <pt x="179" y="755" on="1"/>
        <pt x="213" y="755" on="0"/>
        <pt x="240" y="743" on="1"/>
        <pt x="225" y="678" on="1"/>
        <pt x="206" y="688" on="0"/>
      </contour>
    </TTGlyph>
    <TTGlyph name="four" xMin="7" yMin="0" xMax="351" yMax="700">
      <contour>
        <pt x="231" y="0" on="1"/>
        <pt x="231" y="164" on="1"/>
        <pt x="7" y="164" on="1"/>
        <pt x="7" y="202" on="1"/>
        <pt x="175" y="700" on="1"/>
        <pt x="310" y="700" on="1"/>
        <pt x="310" y="228" on="1"/>
        <pt x="351" y="228" on="1"/>
        <pt x="351" y="164" on="1"/>
        <pt x="310" y="164" on="1"/>
        <pt x="310" y="0" on="1"/>
      </contour>
      <contour>
        <pt x="231" y="228" on="1"/>
        <pt x="231" y="644" on="1"/>
        <pt x="89" y="228" on="1"/>
      </contour>
    </TTGlyph>
    <TTGlyph name="fourinferior" xMin="13" yMin="0" xMax="242" yMax="420">
      <contour>
        <pt x="155" y="0" on="1"/>
        <pt x="155" y="93" on="1"/>
        <pt x="13" y="93" on="1"/>
        <pt x="13" y="126" on="1"/>
        <pt x="109" y="420" on="1"/>
        <pt x="218" y="420" on="1"/>
        <pt x="218" y="143" on="1"/>
        <pt x="242" y="143" on="1"/>
        <pt x="242" y="93" on="1"/>
        <pt x="218" y="93" on="1"/>
        <pt x="218" y="0" on="1"/>
      </contour>
      <contour>
        <pt x="155" y="143" on="1"/>
        <pt x="155" y="378" on="1"/>
        <pt x="79" y="143" on="1"/>
      </contour>
    </TTGlyph>
    <TTGlyph name="fraction" xMin="26" yMin="-15" xMax="266" yMax="715">
      <contour>
        <pt x="26" y="-15" on="1"/>
        <pt x="209" y="715" on="1"/>
        <pt x="266" y="715" on="1"/>
        <pt x="83" y="-15" on="1"/>
      </contour>
    </TTGlyph>
    <TTGlyph name="g" xMin="19" yMin="-195" xMax="369" yMax="555">
      <contour>
        <pt x="369" y="555" on="1"/>
        <pt x="369" y="476" on="1"/>
        <pt x="310" y="476" on="1"/>
        <pt x="327" y="433" on="0"/>
        <pt x="327" y="362" on="1"/>
        <pt x="327" y="353" on="1"/>
        <pt x="327" y="242" on="0"/>
        <pt x="258" y="160" on="0"/>
        <pt x="186" y="160" on="1"/>
        <pt x="158" y="160" on="0"/>
        <pt x="135" y="166" on="1"/>
        <pt x="113" y="150" on="0"/>
        <pt x="113" y="116" on="1"/>
        <pt x="113" y="56" on="0"/>
        <pt x="168" y="56" on="1"/>
        <pt x="230" y="56" on="1"/>
        <pt x="354" y="56" on="0"/>
        <pt x="354" y="-195" on="0"/>
        <pt x="230" y="-195" on="1"/>
        <pt x="142" y="-195" on="1"/>
        <pt x="19" y="-195" on="0"/>
        <pt x="19" y="-69" on="1"/>
        <pt x="19" y="17" on="0"/>
        <pt x="77" y="44" on="1"/>
        <pt x="53" y="63" on="0"/>
        <pt x="53" y="163" on="0"/>
        <pt x="96" y="185" on="1"/>
        <pt x="47" y="226" on="0"/>
        <pt x="47" y="353" on="1"/>
        <pt x="47" y="362" on="1"/>
        <pt x="47" y="473" on="0"/>
        <pt x="115" y="555" on="0"/>
        <pt x="246" y="555" on="0"/>
        <pt x="280" y="524" on="1"/>
        <pt x="358" y="555" on="1"/>
      </contour>
      <contour>
        <pt x="251" y="335" on="1"/>
        <pt x="251" y="380" on="1"/>
        <pt x="251" y="448" on="0"/>
        <pt x="218" y="498" on="0"/>
        <pt x="157" y="498" on="0"/>
        <pt x="123" y="448" on="0"/>
        <pt x="123" y="380" on="1"/>
        <pt x="123" y="335" on="1"/>
        <pt x="123" y="267" on="0"/>
        <pt x="157" y="217" on="0"/>
        <pt x="218" y="217" on="0"/>
        <pt x="251" y="267" on="0"/>
      </contour>
      <contour>
        <pt x="236" y="-6" on="1"/>
        <pt x="136" y="-6" on="1"/>
        <pt x="91" y="-6" on="0"/>
        <pt x="91" y="-131" on="0"/>
        <pt x="136" y="-131" on="1"/>
        <pt x="236" y="-131" on="1"/>
        <pt x="281" y="-131" on="0"/>
        <pt x="281" y="-6" on="0"/>
      </contour>
    </TTGlyph>
    <TTGlyph name="germandbls" xMin="56" yMin="-15" xMax="385" yMax="715">
      <contour>
        <pt x="161" y="127" on="1"/>
        <pt x="222" y="127" on="1"/>
        <pt x="222" y="46" on="0"/>
        <pt x="265" y="46" on="1"/>
        <pt x="290" y="46" on="0"/>
        <pt x="313" y="86" on="0"/>
        <pt x="313" y="201" on="0"/>
        <pt x="279" y="280" on="0"/>
        <pt x="234" y="323" on="1"/>
        <pt x="189" y="365" on="1"/>
        <pt x="187" y="365" on="1"/>
        <pt x="187" y="398" on="1"/>
        <pt x="225" y="413" on="0"/>
        <pt x="255" y="477" on="0"/>
        <pt x="255" y="535" on="1"/>
        <pt x="255" y="653" on="0"/>
        <pt x="194" y="653" on="1"/>
        <pt x="162" y="653" on="0"/>
        <pt x="135" y="588" on="0"/>
        <pt x="135" y="504" on="1"/>
        <pt x="135" y="0" on="1"/>
        <pt x="56" y="0" on="1"/>
        <pt x="56" y="505" on="1"/>
        <pt x="56" y="621" on="0"/>
        <pt x="125" y="715" on="0"/>
        <pt x="262" y="715" on="0"/>
        <pt x="334" y="630" on="0"/>
        <pt x="334" y="535" on="1"/>
        <pt x="334" y="424" on="0"/>
        <pt x="257" y="384" on="1"/>
        <pt x="289" y="355" on="1"/>
        <pt x="342" y="305" on="0"/>
        <pt x="385" y="209" on="0"/>
        <pt x="385" y="62" on="0"/>
        <pt x="320" y="-15" on="0"/>
        <pt x="270" y="-15" on="1"/>
        <pt x="161" y="-15" on="0"/>
      </contour>
    </TTGlyph>
    <TTGlyph name="grave" xMin="62" yMin="602" xMax="227" yMax="756">
      <contour>
        <pt x="97" y="756" on="1"/>
        <pt x="227" y="638" on="1"/>
        <pt x="205" y="602" on="1"/>
        <pt x="62" y="689" on="1"/>
      </contour>
    </TTGlyph>
    <TTGlyph name="greater" xMin="56" yMin="167" xMax="322" yMax="533">
      <contour>
        <pt x="322" y="383" on="1"/>
        <pt x="322" y="317" on="1"/>
        <pt x="56" y="167" on="1"/>
        <pt x="56" y="233" on="1"/>
        <pt x="253" y="350" on="1"/>
        <pt x="56" y="467" on="1"/>
        <pt x="56" y="533" on="1"/>
      </contour>
    </TTGlyph>
    <TTGlyph name="greaterequal" xMin="56" yMin="0" xMax="322" yMax="533">
      <contour>
        <pt x="322" y="383" on="1"/>
        <pt x="322" y="317" on="1"/>
        <pt x="56" y="167" on="1"/>
        <pt x="56" y="233" on="1"/>
        <pt x="253" y="350" on="1"/>
        <pt x="56" y="467" on="1"/>
        <pt x="56" y="533" on="1"/>
      </contour>
      <contour>
        <pt x="56" y="0" on="1"/>
        <pt x="56" y="62" on="1"/>
        <pt x="320" y="62" on="1"/>
        <pt x="320" y="0" on="1"/>
      </contour>
    </TTGlyph>
    <TTGlyph name="guillemotleft" xMin="32" yMin="137" xMax="309" yMax="503">
      <contour>
        <pt x="32" y="287" on="1"/>
        <pt x="32" y="353" on="1"/>
        <pt x="137" y="503" on="1"/>
        <pt x="165" y="477" on="1"/>
        <pt x="97" y="320" on="1"/>
        <pt x="165" y="163" on="1"/>
        <pt x="137" y="137" on="1"/>
      </contour>
      <contour>
        <pt x="176" y="287" on="1"/>
        <pt x="176" y="353" on="1"/>
        <pt x="281" y="503" on="1"/>
        <pt x="309" y="477" on="1"/>
        <pt x="241" y="320" on="1"/>
        <pt x="309" y="163" on="1"/>
        <pt x="281" y="137" on="1"/>
      </contour>
    </TTGlyph>
    <TTGlyph name="guillemotright" xMin="12" yMin="137" xMax="289" yMax="503">
      <contour>
        <pt x="289" y="353" on="1"/>
        <pt x="289" y="287" on="1"/>
        <pt x="184" y="137" on="1"/>
        <pt x="156" y="163" on="1"/>
        <pt x="224" y="320" on="1"/>
        <pt x="156" y="477" on="1"/>
        <pt x="184" y="503" on="1"/>
      </contour>
      <contour>
        <pt x="145" y="353" on="1"/>
        <pt x="145" y="287" on="1"/>
        <pt x="40" y="137" on="1"/>
        <pt x="12" y="163" on="1"/>
        <pt x="80" y="320" on="1"/>
        <pt x="12" y="477" on="1"/>
        <pt x="40" y="503" on="1"/>
      </contour>
    </TTGlyph>
    <TTGlyph name="guilsinglleft" xMin="32" yMin="137" xMax="165" yMax="503">
      <contour>
        <pt x="32" y="287" on="1"/>
        <pt x="32" y="353" on="1"/>
        <pt x="137" y="503" on="1"/>
        <pt x="165" y="477" on="1"/>
        <pt x="97" y="320" on="1"/>
        <pt x="165" y="163" on="1"/>
        <pt x="137" y="137" on="1"/>
      </contour>
    </TTGlyph>
    <TTGlyph name="guilsinglright" xMin="12" yMin="137" xMax="145" yMax="503">
      <contour>
        <pt x="145" y="353" on="1"/>
        <pt x="145" y="287" on="1"/>
        <pt x="40" y="137" on="1"/>
        <pt x="12" y="163" on="1"/>
        <pt x="80" y="320" on="1"/>
        <pt x="12" y="477" on="1"/>
        <pt x="40" y="503" on="1"/>
      </contour>
    </TTGlyph>
    <TTGlyph name="h" xMin="63" yMin="0" xMax="342" yMax="740">
      <contour>
        <pt x="140" y="0" on="1"/>
        <pt x="63" y="0" on="1"/>
        <pt x="63" y="740" on="1"/>
        <pt x="136" y="740" on="1"/>
        <pt x="136" y="476" on="1"/>
        <pt x="160" y="555" on="0"/>
        <pt x="235" y="555" on="1"/>
        <pt x="287" y="555" on="0"/>
        <pt x="342" y="463" on="0"/>
        <pt x="342" y="341" on="1"/>
        <pt x="342" y="0" on="1"/>
        <pt x="265" y="0" on="1"/>
        <pt x="265" y="368" on="1"/>
        <pt x="265" y="493" on="0"/>
        <pt x="216" y="493" on="1"/>
        <pt x="142" y="493" on="0"/>
        <pt x="140" y="279" on="1"/>
      </contour>
    </TTGlyph>
    <TTGlyph name="hungarumlaut" xMin="63" yMin="602" xMax="338" yMax="758">
      <contour>
        <pt x="63" y="634" on="1"/>
        <pt x="157" y="758" on="1"/>
        <pt x="201" y="698" on="1"/>
        <pt x="92" y="602" on="1"/>
      </contour>
      <contour>
        <pt x="200" y="634" on="1"/>
        <pt x="294" y="758" on="1"/>
        <pt x="338" y="698" on="1"/>
        <pt x="229" y="602" on="1"/>
      </contour>
    </TTGlyph>
    <TTGlyph name="hyphen" xMin="30" yMin="274" xMax="222" yMax="336">
      <contour>
        <pt x="30" y="274" on="1"/>
        <pt x="30" y="336" on="1"/>
        <pt x="222" y="336" on="1"/>
        <pt x="222" y="274" on="1"/>
      </contour>
    </TTGlyph>
    <TTGlyph name="i" xMin="60" yMin="0" xMax="143" yMax="740">
      <contour>
        <pt x="63" y="0" on="1"/>
        <pt x="63" y="540" on="1"/>
        <pt x="140" y="540" on="1"/>
        <pt x="140" y="0" on="1"/>
      </contour>
      <contour>
        <pt x="60" y="646" on="1"/>
        <pt x="60" y="740" on="1"/>
        <pt x="143" y="740" on="1"/>
        <pt x="143" y="646" on="1"/>
      </contour>
    </TTGlyph>
    <TTGlyph name="iacute" xMin="27" yMin="0" xMax="192" yMax="756">
      <contour>
        <pt x="63" y="0" on="1"/>
        <pt x="63" y="540" on="1"/>
        <pt x="140" y="540" on="1"/>
        <pt x="140" y="0" on="1"/>
      </contour>
      <contour>
        <pt x="27" y="638" on="1"/>
        <pt x="157" y="756" on="1"/>
        <pt x="192" y="689" on="1"/>
        <pt x="49" y="602" on="1"/>
      </contour>
    </TTGlyph>
    <TTGlyph name="icircumflex" xMin="2" yMin="0" xMax="203" yMax="750">
      <contour>
        <pt x="63" y="0" on="1"/>
        <pt x="63" y="540" on="1"/>
        <pt x="140" y="540" on="1"/>
        <pt x="140" y="0" on="1"/>
      </contour>
      <contour>
        <pt x="111" y="750" on="1"/>
        <pt x="203" y="634" on="1"/>
        <pt x="179" y="600" on="1"/>
        <pt x="102" y="670" on="1"/>
        <pt x="25" y="600" on="1"/>
        <pt x="2" y="634" on="1"/>
        <pt x="92" y="750" on="1"/>
      </contour>
    </TTGlyph>
    <TTGlyph name="idieresis" xMin="-8" yMin="0" xMax="212" yMax="740">
      <contour>
        <pt x="63" y="0" on="1"/>
        <pt x="63" y="540" on="1"/>
        <pt x="140" y="540" on="1"/>
        <pt x="140" y="0" on="1"/>
      </contour>
      <contour>
        <pt x="-8" y="646" on="1"/>
        <pt x="-8" y="740" on="1"/>
        <pt x="73" y="740" on="1"/>
        <pt x="73" y="646" on="1"/>
      </contour>
      <contour>
        <pt x="132" y="646" on="1"/>
        <pt x="132" y="740" on="1"/>
        <pt x="212" y="740" on="1"/>
        <pt x="212" y="646" on="1"/>
      </contour>
    </TTGlyph>
    <TTGlyph name="igrave" xMin="19" yMin="0" xMax="184" yMax="756">
      <contour>
        <pt x="63" y="0" on="1"/>
        <pt x="63" y="540" on="1"/>
        <pt x="140" y="540" on="1"/>
        <pt x="140" y="0" on="1"/>
      </contour>
      <contour>
        <pt x="54" y="756" on="1"/>
        <pt x="184" y="638" on="1"/>
        <pt x="162" y="602" on="1"/>
        <pt x="19" y="689" on="1"/>
      </contour>
    </TTGlyph>
    <TTGlyph name="infinity" xMin="37" yMin="179" xMax="447" yMax="522">
      <contour>
        <pt x="37" y="447" on="0"/>
        <pt x="95" y="522" on="0"/>
        <pt x="214" y="522" on="0"/>
        <pt x="240" y="465" on="1"/>
        <pt x="264" y="522" on="0"/>
        <pt x="389" y="522" on="0"/>
        <pt x="447" y="447" on="0"/>
        <pt x="447" y="254" on="0"/>
        <pt x="389" y="179" on="0"/>
        <pt x="270" y="179" on="0"/>
        <pt x="244" y="233" on="1"/>
        <pt x="218" y="179" on="0"/>
        <pt x="95" y="179" on="0"/>
        <pt x="37" y="254" on="0"/>
      </contour>
      <contour>
        <pt x="326" y="241" on="1"/>
        <pt x="389" y="241" on="0"/>
        <pt x="389" y="459" on="0"/>
        <pt x="326" y="459" on="1"/>
        <pt x="300" y="459" on="0"/>
        <pt x="275" y="418" on="0"/>
        <pt x="270" y="372" on="1"/>
        <pt x="264" y="323" on="1"/>
        <pt x="277" y="241" on="0"/>
      </contour>
      <contour>
        <pt x="157" y="459" on="1"/>
        <pt x="96" y="459" on="0"/>
        <pt x="96" y="241" on="0"/>
        <pt x="157" y="241" on="1"/>
        <pt x="184" y="241" on="0"/>
        <pt x="209" y="280" on="0"/>
        <pt x="214" y="324" on="1"/>
        <pt x="220" y="376" on="1"/>
        <pt x="207" y="459" on="0"/>
      </contour>
    </TTGlyph>
    <TTGlyph name="integral" xMin="-22" yMin="-195" xMax="256" yMax="715">
      <contour>
        <pt x="241" y="638" on="1"/>
        <pt x="222" y="648" on="0"/>
        <pt x="202" y="648" on="1"/>
        <pt x="156" y="648" on="0"/>
        <pt x="156" y="520" on="1"/>
        <pt x="156" y="15" on="1"/>
        <pt x="156" y="-104" on="0"/>
        <pt x="95" y="-195" on="0"/>
        <pt x="40" y="-195" on="1"/>
        <pt x="5" y="-195" on="0"/>
        <pt x="-22" y="-183" on="1"/>
        <pt x="-6" y="-118" on="1"/>
        <pt x="11" y="-128" on="0"/>
        <pt x="32" y="-128" on="1"/>
        <pt x="78" y="-128" on="0"/>
        <pt x="78" y="0" on="1"/>
        <pt x="78" y="505" on="1"/>
        <pt x="78" y="624" on="0"/>
        <pt x="140" y="715" on="0"/>
        <pt x="194" y="715" on="1"/>
        <pt x="229" y="715" on="0"/>
        <pt x="256" y="703" on="1"/>
      </contour>
    </TTGlyph>
    <TTGlyph name="j" xMin="-34" yMin="-195" xMax="145" yMax="740">
      <contour>
        <pt x="-19" y="-118" on="1"/>
        <pt x="-2" y="-128" on="0"/>
        <pt x="18" y="-128" on="1"/>
        <pt x="65" y="-128" on="0"/>
        <pt x="65" y="0" on="1"/>
        <pt x="65" y="540" on="1"/>
        <pt x="141" y="540" on="1"/>
        <pt x="141" y="15" on="1"/>
        <pt x="141" y="-104" on="0"/>
        <pt x="81" y="-195" on="0"/>
        <pt x="27" y="-195" on="1"/>
        <pt x="-7" y="-195" on="0"/>
        <pt x="-34" y="-183" on="1"/>
      </contour>
      <contour>
        <pt x="61" y="646" on="1"/>
        <pt x="61" y="740" on="1"/>
        <pt x="145" y="740" on="1"/>
        <pt x="145" y="646" on="1"/>
      </contour>
    </TTGlyph>
    <TTGlyph name="k" xMin="63" yMin="0" xMax="359" yMax="740">
      <contour>
        <pt x="140" y="0" on="1"/>
        <pt x="63" y="0" on="1"/>
        <pt x="63" y="740" on="1"/>
        <pt x="140" y="740" on="1"/>
        <pt x="140" y="327" on="1"/>
        <pt x="262" y="540" on="1"/>
        <pt x="342" y="540" on="1"/>
        <pt x="211" y="323" on="1"/>
        <pt x="359" y="0" on="1"/>
        <pt x="276" y="0" on="1"/>
        <pt x="166" y="248" on="1"/>
        <pt x="140" y="204" on="1"/>
      </contour>
    </TTGlyph>
    <TTGlyph name="l" xMin="63" yMin="0" xMax="140" yMax="740">
      <contour>
        <pt x="63" y="0" on="1"/>
        <pt x="63" y="740" on="1"/>
        <pt x="140" y="740" on="1"/>
        <pt x="140" y="0" on="1"/>
      </contour>
    </TTGlyph>
    <TTGlyph name="less" xMin="56" yMin="167" xMax="322" yMax="533">
      <contour>
        <pt x="56" y="317" on="1"/>
        <pt x="56" y="383" on="1"/>
        <pt x="322" y="533" on="1"/>
        <pt x="322" y="467" on="1"/>
        <pt x="126" y="350" on="1"/>
        <pt x="322" y="233" on="1"/>
        <pt x="322" y="167" on="1"/>
      </contour>
    </TTGlyph>
    <TTGlyph name="lessequal" xMin="56" yMin="0" xMax="322" yMax="533">
      <contour>
        <pt x="56" y="317" on="1"/>
        <pt x="56" y="383" on="1"/>
        <pt x="322" y="533" on="1"/>
        <pt x="322" y="467" on="1"/>
        <pt x="126" y="350" on="1"/>
        <pt x="322" y="233" on="1"/>
        <pt x="322" y="167" on="1"/>
      </contour>
      <contour>
        <pt x="56" y="0" on="1"/>
        <pt x="56" y="62" on="1"/>
        <pt x="320" y="62" on="1"/>
        <pt x="320" y="0" on="1"/>
      </contour>
    </TTGlyph>
    <TTGlyph name="logicalnot" xMin="56" yMin="174" xMax="320" yMax="381">
      <contour>
        <pt x="56" y="319" on="1"/>
        <pt x="56" y="381" on="1"/>
        <pt x="320" y="381" on="1"/>
        <pt x="320" y="174" on="1"/>
        <pt x="264" y="174" on="1"/>
        <pt x="264" y="319" on="1"/>
      </contour>
    </TTGlyph>
    <TTGlyph name="lozenge" xMin="31" yMin="0" xMax="364" yMax="700">
      <contour>
        <pt x="250" y="700" on="1"/>
        <pt x="364" y="350" on="1"/>
        <pt x="250" y="0" on="1"/>
        <pt x="144" y="0" on="1"/>
        <pt x="31" y="350" on="1"/>
        <pt x="144" y="700" on="1"/>
      </contour>
      <contour>
        <pt x="110" y="350" on="1"/>
        <pt x="196" y="63" on="1"/>
        <pt x="282" y="350" on="1"/>
        <pt x="196" y="636" on="1"/>
      </contour>
    </TTGlyph>
    <TTGlyph name="lslash" xMin="-1" yMin="0" xMax="204" yMax="740">
      <contour>
        <pt x="63" y="740" on="1"/>
        <pt x="140" y="740" on="1"/>
        <pt x="140" y="404" on="1"/>
        <pt x="204" y="435" on="1"/>
        <pt x="204" y="381" on="1"/>
        <pt x="140" y="349" on="1"/>
        <pt x="140" y="0" on="1"/>
        <pt x="63" y="0" on="1"/>
        <pt x="63" y="312" on="1"/>
        <pt x="-1" y="281" on="1"/>
        <pt x="-1" y="336" on="1"/>
        <pt x="63" y="367" on="1"/>
      </contour>
    </TTGlyph>
    <TTGlyph name="m" xMin="63" yMin="0" xMax="530" yMax="555">
      <contour>
        <pt x="140" y="0" on="1"/>
        <pt x="63" y="0" on="1"/>
        <pt x="63" y="540" on="1"/>
        <pt x="110" y="540" on="1"/>
        <pt x="130" y="455" on="1"/>
        <pt x="149" y="555" on="0"/>
        <pt x="229" y="555" on="1"/>
        <pt x="305" y="555" on="0"/>
        <pt x="325" y="457" on="1"/>
        <pt x="346" y="555" on="0"/>
        <pt x="424" y="555" on="1"/>
        <pt x="475" y="555" on="0"/>
        <pt x="530" y="463" on="0"/>
        <pt x="530" y="341" on="1"/>
        <pt x="530" y="0" on="1"/>
        <pt x="453" y="0" on="1"/>
        <pt x="453" y="368" on="1"/>
        <pt x="453" y="493" on="0"/>
        <pt x="406" y="493" on="1"/>
        <pt x="337" y="493" on="0"/>
        <pt x="335" y="279" on="1"/>
        <pt x="335" y="0" on="1"/>
        <pt x="258" y="0" on="1"/>
        <pt x="258" y="368" on="1"/>
        <pt x="258" y="493" on="0"/>
        <pt x="212" y="493" on="1"/>
        <pt x="142" y="493" on="0"/>
        <pt x="140" y="279" on="1"/>
      </contour>
    </TTGlyph>
    <TTGlyph name="macron" xMin="32" yMin="642" xMax="222" yMax="708">
      <contour>
        <pt x="32" y="642" on="1"/>
        <pt x="32" y="708" on="1"/>
        <pt x="222" y="708" on="1"/>
        <pt x="222" y="642" on="1"/>
      </contour>
    </TTGlyph>
    <TTGlyph name="minus" xMin="56" yMin="319" xMax="320" yMax="381">
      <contour>
        <pt x="56" y="319" on="1"/>
        <pt x="56" y="381" on="1"/>
        <pt x="320" y="381" on="1"/>
        <pt x="320" y="319" on="1"/>
      </contour>
    </TTGlyph>
    <TTGlyph name="mu" xMin="63" yMin="-180" xMax="335" yMax="540">
      <contour>
        <pt x="259" y="540" on="1"/>
        <pt x="335" y="540" on="1"/>
        <pt x="335" y="0" on="1"/>
        <pt x="288" y="0" on="1"/>
        <pt x="273" y="62" on="1"/>
        <pt x="256" y="-15" on="0"/>
        <pt x="199" y="-15" on="1"/>
        <pt x="146" y="-15" on="0"/>
        <pt x="127" y="53" on="1"/>
        <pt x="112" y="-180" on="1"/>
        <pt x="63" y="-180" on="1"/>
        <pt x="63" y="540" on="1"/>
        <pt x="140" y="540" on="1"/>
        <pt x="140" y="181" on="1"/>
        <pt x="140" y="105" on="0"/>
        <pt x="169" y="48" on="0"/>
        <pt x="222" y="48" on="0"/>
        <pt x="257" y="99" on="0"/>
        <pt x="259" y="152" on="1"/>
      </contour>
    </TTGlyph>
    <TTGlyph name="multiply" xMin="61" yMin="183" xMax="315" yMax="517">
      <contour>
        <pt x="101" y="183" on="1"/>
        <pt x="61" y="227" on="1"/>
        <pt x="152" y="350" on="1"/>
        <pt x="61" y="473" on="1"/>
        <pt x="101" y="517" on="1"/>
        <pt x="188" y="399" on="1"/>
        <pt x="275" y="517" on="1"/>
        <pt x="315" y="473" on="1"/>
        <pt x="224" y="350" on="1"/>
        <pt x="315" y="227" on="1"/>
        <pt x="275" y="183" on="1"/>
        <pt x="188" y="301" on="1"/>
      </contour>
    </TTGlyph>
    <TTGlyph name="n" xMin="63" yMin="0" xMax="342" yMax="555">
      <contour>
        <pt x="140" y="0" on="1"/>
        <pt x="63" y="0" on="1"/>
        <pt x="63" y="540" on="1"/>
        <pt x="110" y="540" on="1"/>
        <pt x="130" y="454" on="1"/>
        <pt x="151" y="555" on="0"/>
        <pt x="235" y="555" on="1"/>
        <pt x="287" y="555" on="0"/>
        <pt x="342" y="463" on="0"/>
        <pt x="342" y="341" on="1"/>
        <pt x="342" y="0" on="1"/>
        <pt x="265" y="0" on="1"/>
        <pt x="265" y="368" on="1"/>
        <pt x="265" y="493" on="0"/>
        <pt x="216" y="493" on="1"/>
        <pt x="142" y="493" on="0"/>
        <pt x="140" y="279" on="1"/>
      </contour>
    </TTGlyph>
    <TTGlyph name="nine" xMin="42" yMin="-15" xMax="355" yMax="715">
      <contour>
        <pt x="355" y="83" on="0"/>
        <pt x="274" y="-15" on="0"/>
        <pt x="131" y="-15" on="0"/>
        <pt x="55" y="65" on="0"/>
        <pt x="45" y="168" on="1"/>
        <pt x="115" y="178" on="1"/>
        <pt x="123" y="103" on="0"/>
        <pt x="161" y="50" on="0"/>
        <pt x="236" y="50" on="0"/>
        <pt x="277" y="113" on="0"/>
        <pt x="277" y="197" on="1"/>
        <pt x="277" y="327" on="1"/>
        <pt x="244" y="290" on="0"/>
        <pt x="121" y="290" on="0"/>
        <pt x="42" y="382" on="0"/>
        <pt x="42" y="623" on="0"/>
        <pt x="125" y="715" on="0"/>
        <pt x="275" y="715" on="0"/>
        <pt x="355" y="623" on="0"/>
        <pt x="355" y="501" on="1"/>
        <pt x="355" y="214" on="1"/>
      </contour>
      <contour>
        <pt x="118" y="515" on="1"/>
        <pt x="118" y="490" on="1"/>
        <pt x="118" y="352" on="0"/>
        <pt x="198" y="352" on="1"/>
        <pt x="234" y="352" on="0"/>
        <pt x="276" y="409" on="0"/>
        <pt x="277" y="482" on="1"/>
        <pt x="277" y="515" on="1"/>
        <pt x="277" y="653" on="0"/>
        <pt x="118" y="653" on="0"/>
      </contour>
    </TTGlyph>
    <TTGlyph name="nineinferior" xMin="35" yMin="-15" xMax="247" yMax="423">
      <contour>
        <pt x="247" y="42" on="0"/>
        <pt x="191" y="-15" on="0"/>
        <pt x="95" y="-15" on="0"/>
        <pt x="44" y="36" on="0"/>
        <pt x="39" y="100" on="1"/>
        <pt x="95" y="109" on="1"/>
        <pt x="99" y="66" on="0"/>
        <pt x="121" y="34" on="0"/>
        <pt x="161" y="34" on="0"/>
        <pt x="183" y="66" on="0"/>
        <pt x="183" y="108" on="1"/>
        <pt x="183" y="188" on="1"/>
        <pt x="158" y="166" on="0"/>
        <pt x="133" y="166" on="1"/>
        <pt x="35" y="166" on="0"/>
        <pt x="35" y="295" on="1"/>
        <pt x="35" y="368" on="0"/>
        <pt x="91" y="423" on="0"/>
        <pt x="192" y="423" on="0"/>
        <pt x="247" y="368" on="0"/>
        <pt x="247" y="295" on="1"/>
        <pt x="247" y="117" on="1"/>
      </contour>
      <contour>
        <pt x="96" y="303" on="1"/>
        <pt x="96" y="284" on="1"/>
        <pt x="96" y="212" on="0"/>
        <pt x="183" y="212" on="0"/>
        <pt x="183" y="284" on="1"/>
        <pt x="183" y="303" on="1"/>
        <pt x="183" y="375" on="0"/>
        <pt x="96" y="375" on="0"/>
      </contour>
    </TTGlyph>
    <TTGlyph name="notequal" xMin="56" yMin="-15" xMax="320" yMax="715">
      <contour>
        <pt x="56" y="419" on="1"/>
        <pt x="56" y="481" on="1"/>
        <pt x="193" y="481" on="1"/>
        <pt x="252" y="715" on="1"/>
        <pt x="309" y="715" on="1"/>
        <pt x="250" y="481" on="1"/>
        <pt x="320" y="481" on="1"/>
        <pt x="320" y="419" on="1"/>
        <pt x="234" y="419" on="1"/>
        <pt x="200" y="281" on="1"/>
        <pt x="320" y="281" on="1"/>
        <pt x="320" y="219" on="1"/>
        <pt x="184" y="219" on="1"/>
        <pt x="126" y="-15" on="1"/>
        <pt x="69" y="-15" on="1"/>
        <pt x="127" y="219" on="1"/>
        <pt x="56" y="219" on="1"/>
        <pt x="56" y="281" on="1"/>
        <pt x="143" y="281" on="1"/>
        <pt x="177" y="419" on="1"/>
      </contour>
    </TTGlyph>
    <TTGlyph name="ntilde" xMin="63" yMin="0" xMax="342" yMax="730">
      <contour>
        <pt x="140" y="0" on="1"/>
        <pt x="63" y="0" on="1"/>
        <pt x="63" y="540" on="1"/>
        <pt x="110" y="540" on="1"/>
        <pt x="130" y="454" on="1"/>
        <pt x="151" y="555" on="0"/>
        <pt x="235" y="555" on="1"/>
        <pt x="287" y="555" on="0"/>
        <pt x="342" y="463" on="0"/>
        <pt x="342" y="341" on="1"/>
        <pt x="342" y="0" on="1"/>
        <pt x="265" y="0" on="1"/>
        <pt x="265" y="368" on="1"/>
        <pt x="265" y="493" on="0"/>
        <pt x="216" y="493" on="1"/>
        <pt x="142" y="493" on="0"/>
        <pt x="140" y="279" on="1"/>
      </contour>
      <contour>
        <pt x="244" y="629" on="1"/>
        <pt x="230" y="629" on="0"/>
        <pt x="179" y="658" on="0"/>
        <pt x="167" y="658" on="1"/>
        <pt x="146" y="658" on="0"/>
        <pt x="122" y="627" on="1"/>
        <pt x="99" y="665" on="1"/>
        <pt x="132" y="728" on="0"/>
        <pt x="172" y="728" on="1"/>
        <pt x="186" y="728" on="0"/>
        <pt x="237" y="700" on="0"/>
        <pt x="249" y="700" on="1"/>
        <pt x="271" y="700" on="0"/>
        <pt x="293" y="730" on="1"/>
        <pt x="317" y="692" on="1"/>
        <pt x="280" y="629" on="0"/>
      </contour>
    </TTGlyph>
    <TTGlyph name="numbersign" xMin="27" yMin="-15" xMax="462" yMax="715">
      <contour>
        <pt x="249" y="-15" on="1"/>
        <pt x="283" y="211" on="1"/>
        <pt x="161" y="211" on="1"/>
        <pt x="127" y="-15" on="1"/>
        <pt x="65" y="-15" on="1"/>
        <pt x="99" y="211" on="1"/>
        <pt x="27" y="211" on="1"/>
        <pt x="40" y="273" on="1"/>
        <pt x="109" y="273" on="1"/>
        <pt x="132" y="427" on="1"/>
        <pt x="58" y="427" on="1"/>
        <pt x="69" y="489" on="1"/>
        <pt x="142" y="489" on="1"/>
        <pt x="177" y="715" on="1"/>
        <pt x="238" y="715" on="1"/>
        <pt x="204" y="489" on="1"/>
        <pt x="326" y="489" on="1"/>
        <pt x="361" y="715" on="1"/>
        <pt x="424" y="715" on="1"/>
        <pt x="389" y="489" on="1"/>
        <pt x="462" y="489" on="1"/>
        <pt x="449" y="427" on="1"/>
        <pt x="379" y="427" on="1"/>
        <pt x="356" y="273" on="1"/>
        <pt x="430" y="273" on="1"/>
        <pt x="417" y="211" on="1"/>
        <pt x="346" y="211" on="1"/>
        <pt x="312" y="-15" on="1"/>
      </contour>
      <contour>
        <pt x="194" y="427" on="1"/>
        <pt x="171" y="273" on="1"/>
        <pt x="293" y="273" on="1"/>
        <pt x="316" y="427" on="1"/>
      </contour>
    </TTGlyph>
    <TTGlyph name="o" xMin="49" yMin="-15" xMax="330" yMax="555">
      <contour>
        <pt x="330" y="345" on="1"/>
        <pt x="330" y="195" on="1"/>
        <pt x="330" y="76" on="0"/>
        <pt x="257" y="-15" on="0"/>
        <pt x="122" y="-15" on="0"/>
        <pt x="49" y="76" on="0"/>
        <pt x="49" y="195" on="1"/>
        <pt x="49" y="345" on="1"/>
        <pt x="49" y="464" on="0"/>
        <pt x="122" y="555" on="0"/>
        <pt x="257" y="555" on="0"/>
        <pt x="330" y="464" on="0"/>
      </contour>
      <contour>
        <pt x="253" y="181" on="1"/>
        <pt x="253" y="359" on="1"/>
        <pt x="253" y="493" on="0"/>
        <pt x="190" y="493" on="1"/>
        <pt x="125" y="493" on="0"/>
        <pt x="125" y="359" on="1"/>
        <pt x="125" y="181" on="1"/>
        <pt x="125" y="47" on="0"/>
        <pt x="190" y="47" on="1"/>
        <pt x="253" y="47" on="0"/>
      </contour>
    </TTGlyph>
    <TTGlyph name="oacute" xMin="49" yMin="-15" xMax="330" yMax="756">
      <contour>
        <pt x="330" y="345" on="1"/>
        <pt x="330" y="195" on="1"/>
        <pt x="330" y="76" on="0"/>
        <pt x="257" y="-15" on="0"/>
        <pt x="122" y="-15" on="0"/>
        <pt x="49" y="76" on="0"/>
        <pt x="49" y="195" on="1"/>
        <pt x="49" y="345" on="1"/>
        <pt x="49" y="464" on="0"/>
        <pt x="122" y="555" on="0"/>
        <pt x="257" y="555" on="0"/>
        <pt x="330" y="464" on="0"/>
      </contour>
      <contour>
        <pt x="253" y="181" on="1"/>
        <pt x="253" y="359" on="1"/>
        <pt x="253" y="493" on="0"/>
        <pt x="190" y="493" on="1"/>
        <pt x="125" y="493" on="0"/>
        <pt x="125" y="359" on="1"/>
        <pt x="125" y="181" on="1"/>
        <pt x="125" y="47" on="0"/>
        <pt x="190" y="47" on="1"/>
        <pt x="253" y="47" on="0"/>
      </contour>
      <contour>
        <pt x="115" y="638" on="1"/>
        <pt x="245" y="756" on="1"/>
        <pt x="280" y="689" on="1"/>
        <pt x="137" y="602" on="1"/>
      </contour>
    </TTGlyph>
    <TTGlyph name="ocircumflex" xMin="49" yMin="-15" xMax="330" yMax="750">
      <contour>
        <pt x="330" y="345" on="1"/>
        <pt x="330" y="195" on="1"/>
        <pt x="330" y="76" on="0"/>
        <pt x="257" y="-15" on="0"/>
        <pt x="122" y="-15" on="0"/>
        <pt x="49" y="76" on="0"/>
        <pt x="49" y="195" on="1"/>
        <pt x="49" y="345" on="1"/>
        <pt x="49" y="464" on="0"/>
        <pt x="122" y="555" on="0"/>
        <pt x="257" y="555" on="0"/>
        <pt x="330" y="464" on="0"/>
      </contour>
      <contour>
        <pt x="253" y="181" on="1"/>
        <pt x="253" y="359" on="1"/>
        <pt x="253" y="493" on="0"/>
        <pt x="190" y="493" on="1"/>
        <pt x="125" y="493" on="0"/>
        <pt x="125" y="359" on="1"/>
        <pt x="125" y="181" on="1"/>
        <pt x="125" y="47" on="0"/>
        <pt x="190" y="47" on="1"/>
        <pt x="253" y="47" on="0"/>
      </contour>
      <contour>
        <pt x="199" y="750" on="1"/>
        <pt x="291" y="634" on="1"/>
        <pt x="267" y="600" on="1"/>
        <pt x="190" y="670" on="1"/>
        <pt x="113" y="600" on="1"/>
        <pt x="90" y="634" on="1"/>
        <pt x="180" y="750" on="1"/>
      </contour>
    </TTGlyph>
    <TTGlyph name="odieresis" xMin="49" yMin="-15" xMax="330" yMax="740">
      <contour>
        <pt x="330" y="345" on="1"/>
        <pt x="330" y="195" on="1"/>
        <pt x="330" y="76" on="0"/>
        <pt x="257" y="-15" on="0"/>
        <pt x="122" y="-15" on="0"/>
        <pt x="49" y="76" on="0"/>
        <pt x="49" y="195" on="1"/>
        <pt x="49" y="345" on="1"/>
        <pt x="49" y="464" on="0"/>
        <pt x="122" y="555" on="0"/>
        <pt x="257" y="555" on="0"/>
        <pt x="330" y="464" on="0"/>
      </contour>
      <contour>
        <pt x="253" y="181" on="1"/>
        <pt x="253" y="359" on="1"/>
        <pt x="253" y="493" on="0"/>
        <pt x="190" y="493" on="1"/>
        <pt x="125" y="493" on="0"/>
        <pt x="125" y="359" on="1"/>
        <pt x="125" y="181" on="1"/>
        <pt x="125" y="47" on="0"/>
        <pt x="190" y="47" on="1"/>
        <pt x="253" y="47" on="0"/>
      </contour>
      <contour>
        <pt x="80" y="646" on="1"/>
        <pt x="80" y="740" on="1"/>
        <pt x="161" y="740" on="1"/>
        <pt x="161" y="646" on="1"/>
      </contour>
      <contour>
        <pt x="220" y="646" on="1"/>
        <pt x="220" y="740" on="1"/>
        <pt x="300" y="740" on="1"/>
        <pt x="300" y="646" on="1"/>
      </contour>
    </TTGlyph>
    <TTGlyph name="oe" xMin="49" yMin="-15" xMax="536" yMax="555">
      <contour>
        <pt x="527" y="53" on="0"/>
        <pt x="459" y="-15" on="0"/>
        <pt x="327" y="-15" on="0"/>
        <pt x="293" y="30" on="1"/>
        <pt x="260" y="-15" on="0"/>
        <pt x="122" y="-15" on="0"/>
        <pt x="49" y="76" on="0"/>
        <pt x="49" y="195" on="1"/>
        <pt x="49" y="345" on="1"/>
        <pt x="49" y="464" on="0"/>
        <pt x="122" y="555" on="0"/>
        <pt x="260" y="555" on="0"/>
        <pt x="293" y="510" on="1"/>
        <pt x="327" y="555" on="0"/>
        <pt x="466" y="555" on="0"/>
        <pt x="536" y="465" on="0"/>
        <pt x="536" y="345" on="1"/>
        <pt x="536" y="238" on="1"/>
        <pt x="331" y="238" on="1"/>
        <pt x="331" y="181" on="1"/>
        <pt x="331" y="47" on="0"/>
        <pt x="395" y="47" on="1"/>
        <pt x="426" y="47" on="0"/>
        <pt x="460" y="91" on="0"/>
        <pt x="467" y="151" on="1"/>
        <pt x="534" y="140" on="1"/>
      </contour>
      <contour>
        <pt x="253" y="181" on="1"/>
        <pt x="253" y="359" on="1"/>
        <pt x="253" y="493" on="0"/>
        <pt x="190" y="493" on="1"/>
        <pt x="125" y="493" on="0"/>
        <pt x="125" y="359" on="1"/>
        <pt x="125" y="181" on="1"/>
        <pt x="125" y="47" on="0"/>
        <pt x="190" y="47" on="1"/>
        <pt x="253" y="47" on="0"/>
      </contour>
      <contour>
        <pt x="331" y="359" on="1"/>
        <pt x="331" y="302" on="1"/>
        <pt x="459" y="302" on="1"/>
        <pt x="459" y="359" on="1"/>
        <pt x="459" y="493" on="0"/>
        <pt x="396" y="493" on="1"/>
        <pt x="331" y="493" on="0"/>
      </contour>
    </TTGlyph>
    <TTGlyph name="ogonek" xMin="42" yMin="-198" xMax="203" yMax="0">
      <contour>
        <pt x="111" y="-198" on="1"/>
        <pt x="42" y="-198" on="0"/>
        <pt x="42" y="-117" on="1"/>
        <pt x="42" y="-59" on="0"/>
        <pt x="101" y="0" on="1"/>
        <pt x="149" y="0" on="1"/>
        <pt x="101" y="-55" on="0"/>
        <pt x="101" y="-108" on="1"/>
        <pt x="101" y="-144" on="0"/>
        <pt x="118" y="-144" on="1"/>
        <pt x="144" y="-144" on="0"/>
        <pt x="162" y="-81" on="1"/>
        <pt x="203" y="-90" on="1"/>
        <pt x="178" y="-198" on="0"/>
      </contour>
    </TTGlyph>
    <TTGlyph name="ograve" xMin="49" yMin="-15" xMax="330" yMax="756">
      <contour>
        <pt x="330" y="345" on="1"/>
        <pt x="330" y="195" on="1"/>
        <pt x="330" y="76" on="0"/>
        <pt x="257" y="-15" on="0"/>
        <pt x="122" y="-15" on="0"/>
        <pt x="49" y="76" on="0"/>
        <pt x="49" y="195" on="1"/>
        <pt x="49" y="345" on="1"/>
        <pt x="49" y="464" on="0"/>
        <pt x="122" y="555" on="0"/>
        <pt x="257" y="555" on="0"/>
        <pt x="330" y="464" on="0"/>
      </contour>
      <contour>
        <pt x="253" y="181" on="1"/>
        <pt x="253" y="359" on="1"/>
        <pt x="253" y="493" on="0"/>
        <pt x="190" y="493" on="1"/>
        <pt x="125" y="493" on="0"/>
        <pt x="125" y="359" on="1"/>
        <pt x="125" y="181" on="1"/>
        <pt x="125" y="47" on="0"/>
        <pt x="190" y="47" on="1"/>
        <pt x="253" y="47" on="0"/>
      </contour>
      <contour>
        <pt x="143" y="756" on="1"/>
        <pt x="273" y="638" on="1"/>
        <pt x="251" y="602" on="1"/>
        <pt x="108" y="689" on="1"/>
      </contour>
    </TTGlyph>
    <TTGlyph name="one" xMin="6" yMin="0" xMax="172" yMax="700">
      <contour>
        <pt x="172" y="700" on="1"/>
        <pt x="172" y="0" on="1"/>
        <pt x="92" y="0" on="1"/>
        <pt x="92" y="611" on="1"/>
        <pt x="6" y="611" on="1"/>
        <pt x="6" y="657" on="1"/>
        <pt x="128" y="700" on="1"/>
      </contour>
    </TTGlyph>
    <TTGlyph name="onehalf" xMin="59" yMin="-15" xMax="630" yMax="715">
      <contour>
        <pt x="196" y="-15" on="1"/>
        <pt x="379" y="715" on="1"/>
        <pt x="436" y="715" on="1"/>
        <pt x="253" y="-15" on="1"/>
      </contour>
      <contour>
        <pt x="178" y="715" on="1"/>
        <pt x="178" y="295" on="1"/>
        <pt x="115" y="295" on="1"/>
        <pt x="115" y="654" on="1"/>
        <pt x="59" y="654" on="1"/>
        <pt x="59" y="689" on="1"/>
        <pt x="137" y="715" on="1"/>
      </contour>
      <contour>
        <pt x="435" y="380" on="0"/>
        <pt x="486" y="429" on="0"/>
        <pt x="578" y="429" on="0"/>
        <pt x="630" y="383" on="0"/>
        <pt x="630" y="269" on="0"/>
        <pt x="591" y="210" on="1"/>
        <pt x="485" y="49" on="1"/>
        <pt x="627" y="49" on="1"/>
        <pt x="627" y="0" on="1"/>
        <pt x="428" y="0" on="1"/>
        <pt x="428" y="30" on="1"/>
        <pt x="428" y="84" on="0"/>
        <pt x="478" y="152" on="1"/>
        <pt x="546" y="250" on="1"/>
        <pt x="568" y="288" on="0"/>
        <pt x="568" y="323" on="1"/>
        <pt x="568" y="381" on="0"/>
        <pt x="530" y="381" on="1"/>
        <pt x="511" y="381" on="0"/>
        <pt x="490" y="350" on="0"/>
        <pt x="487" y="308" on="1"/>
        <pt x="429" y="316" on="1"/>
      </contour>
    </TTGlyph>
    <TTGlyph name="oneinferior" xMin="11" yMin="0" xMax="130" yMax="420">
      <contour>
        <pt x="130" y="420" on="1"/>
        <pt x="130" y="0" on="1"/>
        <pt x="67" y="0" on="1"/>
        <pt x="67" y="359" on="1"/>
        <pt x="11" y="359" on="1"/>
        <pt x="11" y="394" on="1"/>
        <pt x="89" y="420" on="1"/>
      </contour>
    </TTGlyph>
    <TTGlyph name="onequarter" xMin="51" yMin="-15" xMax="628" yMax="715">
      <contour>
        <pt x="196" y="-15" on="1"/>
        <pt x="379" y="715" on="1"/>
        <pt x="436" y="715" on="1"/>
        <pt x="253" y="-15" on="1"/>
      </contour>
      <contour>
        <pt x="170" y="715" on="1"/>
        <pt x="170" y="295" on="1"/>
        <pt x="107" y="295" on="1"/>
        <pt x="107" y="654" on="1"/>
        <pt x="51" y="654" on="1"/>
        <pt x="51" y="689" on="1"/>
        <pt x="129" y="715" on="1"/>
      </contour>
      <contour>
        <pt x="541" y="0" on="1"/>
        <pt x="541" y="93" on="1"/>
        <pt x="399" y="93" on="1"/>
        <pt x="399" y="126" on="1"/>
        <pt x="495" y="420" on="1"/>
        <pt x="604" y="420" on="1"/>
        <pt x="604" y="143" on="1"/>
        <pt x="628" y="143" on="1"/>
        <pt x="628" y="93" on="1"/>
        <pt x="604" y="93" on="1"/>
        <pt x="604" y="0" on="1"/>
      </contour>
      <contour>
        <pt x="541" y="143" on="1"/>
        <pt x="541" y="378" on="1"/>
        <pt x="465" y="143" on="1"/>
      </contour>
    </TTGlyph>
    <TTGlyph name="onesuperior" xMin="11" yMin="295" xMax="130" yMax="715">
      <contour>
        <pt x="130" y="715" on="1"/>
        <pt x="130" y="295" on="1"/>
        <pt x="67" y="295" on="1"/>
        <pt x="67" y="654" on="1"/>
        <pt x="11" y="654" on="1"/>
        <pt x="11" y="689" on="1"/>
        <pt x="89" y="715" on="1"/>
      </contour>
    </TTGlyph>
    <TTGlyph name="ordfeminine" xMin="40" yMin="316" xMax="232" yMax="715">
      <contour>
        <pt x="40" y="509" on="0"/>
        <pt x="79" y="557" on="0"/>
        <pt x="151" y="557" on="0"/>
        <pt x="171" y="531" on="1"/>
        <pt x="171" y="587" on="1"/>
        <pt x="171" y="665" on="0"/>
        <pt x="131" y="665" on="1"/>
        <pt x="98" y="665" on="0"/>
        <pt x="65" y="625" on="1"/>
        <pt x="45" y="668" on="1"/>
        <pt x="84" y="715" on="0"/>
        <pt x="139" y="715" on="1"/>
        <pt x="232" y="715" on="0"/>
        <pt x="232" y="582" on="1"/>
        <pt x="232" y="326" on="1"/>
        <pt x="194" y="326" on="1"/>
        <pt x="182" y="371" on="1"/>
        <pt x="165" y="316" on="0"/>
        <pt x="114" y="316" on="1"/>
        <pt x="79" y="316" on="0"/>
        <pt x="40" y="364" on="0"/>
        <pt x="40" y="430" on="1"/>
        <pt x="40" y="443" on="1"/>
      </contour>
      <contour>
        <pt x="171" y="437" on="1"/>
        <pt x="171" y="515" on="0"/>
        <pt x="130" y="515" on="1"/>
        <pt x="100" y="515" on="0"/>
        <pt x="100" y="454" on="1"/>
        <pt x="100" y="426" on="1"/>
        <pt x="100" y="364" on="0"/>
        <pt x="130" y="364" on="1"/>
        <pt x="168" y="364" on="0"/>
        <pt x="171" y="428" on="1"/>
      </contour>
    </TTGlyph>
    <TTGlyph name="ordmasculine" xMin="41" yMin="316" xMax="243" yMax="715">
      <contour>
        <pt x="243" y="568" on="1"/>
        <pt x="243" y="463" on="1"/>
        <pt x="243" y="379" on="0"/>
        <pt x="191" y="316" on="0"/>
        <pt x="94" y="316" on="0"/>
        <pt x="41" y="379" on="0"/>
        <pt x="41" y="463" on="1"/>
        <pt x="41" y="568" on="1"/>
        <pt x="41" y="651" on="0"/>
        <pt x="94" y="715" on="0"/>
        <pt x="191" y="715" on="0"/>
        <pt x="243" y="651" on="0"/>
      </contour>
      <contour>
        <pt x="182" y="453" on="1"/>
        <pt x="182" y="577" on="1"/>
        <pt x="182" y="666" on="0"/>
        <pt x="103" y="666" on="0"/>
        <pt x="103" y="577" on="1"/>
        <pt x="103" y="453" on="1"/>
        <pt x="103" y="365" on="0"/>
        <pt x="182" y="365" on="0"/>
      </contour>
    </TTGlyph>
    <TTGlyph name="oslash" xMin="49" yMin="-132" xMax="330" yMax="672">
      <contour>
        <pt x="49" y="195" on="1"/>
        <pt x="49" y="345" on="1"/>
        <pt x="49" y="464" on="0"/>
        <pt x="122" y="555" on="0"/>
        <pt x="190" y="555" on="1"/>
        <pt x="208" y="555" on="0"/>
        <pt x="223" y="552" on="1"/>
        <pt x="249" y="672" on="1"/>
        <pt x="301" y="672" on="1"/>
        <pt x="271" y="532" on="1"/>
        <pt x="330" y="488" on="0"/>
        <pt x="330" y="345" on="1"/>
        <pt x="330" y="195" on="1"/>
        <pt x="330" y="76" on="0"/>
        <pt x="257" y="-15" on="0"/>
        <pt x="190" y="-15" on="1"/>
        <pt x="170" y="-15" on="0"/>
        <pt x="154" y="-12" on="1"/>
        <pt x="129" y="-132" on="1"/>
        <pt x="77" y="-132" on="1"/>
        <pt x="107" y="8" on="1"/>
        <pt x="49" y="53" on="0"/>
      </contour>
      <contour>
        <pt x="253" y="181" on="1"/>
        <pt x="253" y="359" on="1"/>
        <pt x="253" y="395" on="0"/>
        <pt x="248" y="425" on="1"/>
        <pt x="168" y="51" on="1"/>
        <pt x="177" y="47" on="0"/>
        <pt x="190" y="47" on="1"/>
        <pt x="253" y="47" on="0"/>
      </contour>
      <contour>
        <pt x="125" y="181" on="1"/>
        <pt x="125" y="145" on="0"/>
        <pt x="130" y="115" on="1"/>
        <pt x="210" y="489" on="1"/>
        <pt x="201" y="493" on="0"/>
        <pt x="190" y="493" on="1"/>
        <pt x="125" y="493" on="0"/>
        <pt x="125" y="359" on="1"/>
      </contour>
    </TTGlyph>
    <TTGlyph name="otilde" xMin="49" yMin="-15" xMax="330" yMax="730">
      <contour>
        <pt x="330" y="345" on="1"/>
        <pt x="330" y="195" on="1"/>
        <pt x="330" y="76" on="0"/>
        <pt x="257" y="-15" on="0"/>
        <pt x="122" y="-15" on="0"/>
        <pt x="49" y="76" on="0"/>
        <pt x="49" y="195" on="1"/>
        <pt x="49" y="345" on="1"/>
        <pt x="49" y="464" on="0"/>
        <pt x="122" y="555" on="0"/>
        <pt x="257" y="555" on="0"/>
        <pt x="330" y="464" on="0"/>
      </contour>
      <contour>
        <pt x="253" y="181" on="1"/>
        <pt x="253" y="359" on="1"/>
        <pt x="253" y="493" on="0"/>
        <pt x="190" y="493" on="1"/>
        <pt x="125" y="493" on="0"/>
        <pt x="125" y="359" on="1"/>
        <pt x="125" y="181" on="1"/>
        <pt x="125" y="47" on="0"/>
        <pt x="190" y="47" on="1"/>
        <pt x="253" y="47" on="0"/>
      </contour>
      <contour>
        <pt x="227" y="629" on="1"/>
        <pt x="213" y="629" on="0"/>
        <pt x="162" y="658" on="0"/>
        <pt x="150" y="658" on="1"/>
        <pt x="129" y="658" on="0"/>
        <pt x="105" y="627" on="1"/>
        <pt x="82" y="665" on="1"/>
        <pt x="115" y="728" on="0"/>
        <pt x="155" y="728" on="1"/>
        <pt x="169" y="728" on="0"/>
        <pt x="220" y="700" on="0"/>
        <pt x="232" y="700" on="1"/>
        <pt x="254" y="700" on="0"/>
        <pt x="276" y="730" on="1"/>
        <pt x="300" y="692" on="1"/>
        <pt x="263" y="629" on="0"/>
      </contour>
    </TTGlyph>
    <TTGlyph name="p" xMin="63" yMin="-180" xMax="341" yMax="555">
      <contour>
        <pt x="63" y="540" on="1"/>
        <pt x="110" y="540" on="1"/>
        <pt x="130" y="453" on="1"/>
        <pt x="153" y="555" on="0"/>
        <pt x="232" y="555" on="1"/>
        <pt x="285" y="555" on="0"/>
        <pt x="341" y="465" on="0"/>
        <pt x="341" y="345" on="1"/>
        <pt x="341" y="195" on="1"/>
        <pt x="341" y="75" on="0"/>
        <pt x="285" y="-15" on="0"/>
        <pt x="232" y="-15" on="1"/>
        <pt x="159" y="-15" on="0"/>
        <pt x="136" y="79" on="1"/>
        <pt x="136" y="-180" on="1"/>
        <pt x="63" y="-180" on="1"/>
      </contour>
      <contour>
        <pt x="136" y="270" on="1"/>
        <pt x="136" y="180" on="0"/>
        <pt x="159" y="76" on="0"/>
        <pt x="189" y="47" on="0"/>
        <pt x="214" y="47" on="1"/>
        <pt x="268" y="47" on="0"/>
        <pt x="268" y="171" on="1"/>
        <pt x="268" y="369" on="1"/>
        <pt x="268" y="493" on="0"/>
        <pt x="215" y="493" on="1"/>
        <pt x="192" y="493" on="0"/>
        <pt x="161" y="465" on="0"/>
        <pt x="137" y="369" on="0"/>
        <pt x="136" y="284" on="1"/>
      </contour>
    </TTGlyph>
    <TTGlyph name="paragraph" xMin="47" yMin="0" xMax="282" yMax="700">
      <contour>
        <pt x="282" y="700" on="1"/>
        <pt x="282" y="0" on="1"/>
        <pt x="202" y="0" on="1"/>
        <pt x="202" y="436" on="1"/>
        <pt x="47" y="436" on="1"/>
        <pt x="47" y="700" on="1"/>
      </contour>
    </TTGlyph>
    <TTGlyph name="parenleft" xMin="42" yMin="-105" xMax="236" yMax="805">
      <contour>
        <pt x="62" y="59" on="0"/>
        <pt x="42" y="237" on="0"/>
        <pt x="42" y="484" on="0"/>
        <pt x="62" y="650" on="0"/>
        <pt x="93" y="743" on="0"/>
        <pt x="147" y="792" on="0"/>
        <pt x="197" y="805" on="0"/>
        <pt x="236" y="805" on="1"/>
        <pt x="236" y="740" on="1"/>
        <pt x="213" y="740" on="0"/>
        <pt x="185" y="732" on="0"/>
        <pt x="151" y="691" on="0"/>
        <pt x="142" y="652" on="1"/>
        <pt x="121" y="561" on="0"/>
        <pt x="121" y="252" on="0"/>
        <pt x="133" y="96" on="0"/>
        <pt x="151" y="13" on="0"/>
        <pt x="185" y="-31" on="0"/>
        <pt x="212" y="-40" on="0"/>
        <pt x="236" y="-40" on="1"/>
        <pt x="236" y="-105" on="1"/>
        <pt x="197" y="-105" on="0"/>
        <pt x="147" y="-92" on="0"/>
        <pt x="93" y="-39" on="0"/>
      </contour>
    </TTGlyph>
    <TTGlyph name="parenright" xMin="6" yMin="-105" xMax="200" yMax="805">
      <contour>
        <pt x="180" y="650" on="0"/>
        <pt x="200" y="484" on="0"/>
        <pt x="200" y="237" on="0"/>
        <pt x="180" y="59" on="0"/>
        <pt x="149" y="-39" on="0"/>
        <pt x="95" y="-92" on="0"/>
        <pt x="45" y="-105" on="0"/>
        <pt x="6" y="-105" on="1"/>
        <pt x="6" y="-40" on="1"/>
        <pt x="30" y="-40" on="0"/>
        <pt x="57" y="-31" on="0"/>
        <pt x="91" y="13" on="0"/>
        <pt x="100" y="54" on="1"/>
        <pt x="121" y="151" on="0"/>
        <pt x="121" y="365" on="1"/>
        <pt x="121" y="655" on="0"/>
        <pt x="74" y="712" on="1"/>
        <pt x="57" y="732" on="0"/>
        <pt x="29" y="740" on="0"/>
        <pt x="6" y="740" on="1"/>
        <pt x="6" y="805" on="1"/>
        <pt x="45" y="805" on="0"/>
        <pt x="95" y="792" on="0"/>
        <pt x="149" y="743" on="0"/>
      </contour>
    </TTGlyph>
    <TTGlyph name="partialdiff" xMin="36" yMin="-15" xMax="344" yMax="803">
      <contour>
        <pt x="272" y="463" on="1"/>
        <pt x="273" y="520" on="1"/>
        <pt x="273" y="528" on="0"/>
        <pt x="273" y="588" on="0"/>
        <pt x="260" y="671" on="0"/>
        <pt x="238" y="718" on="0"/>
        <pt x="200" y="743" on="0"/>
        <pt x="169" y="748" on="0"/>
        <pt x="145" y="748" on="1"/>
        <pt x="145" y="803" on="1"/>
        <pt x="182" y="803" on="0"/>
        <pt x="232" y="795" on="0"/>
        <pt x="288" y="764" on="0"/>
        <pt x="305" y="736" on="1"/>
        <pt x="344" y="673" on="0"/>
        <pt x="344" y="538" on="1"/>
        <pt x="344" y="499" on="0"/>
        <pt x="313" y="195" on="1"/>
        <pt x="301" y="76" on="0"/>
        <pt x="221" y="-15" on="0"/>
        <pt x="98" y="-15" on="0"/>
        <pt x="36" y="52" on="0"/>
        <pt x="36" y="140" on="1"/>
        <pt x="36" y="165" on="0"/>
        <pt x="39" y="195" on="1"/>
        <pt x="52" y="325" on="1"/>
        <pt x="73" y="535" on="0"/>
        <pt x="193" y="535" on="1"/>
        <pt x="251" y="535" on="0"/>
      </contour>
      <contour>
        <pt x="203" y="473" on="1"/>
        <pt x="174" y="473" on="0"/>
        <pt x="137" y="414" on="0"/>
        <pt x="130" y="339" on="1"/>
        <pt x="112" y="141" on="0"/>
        <pt x="112" y="134" on="1"/>
        <pt x="113" y="47" on="0"/>
        <pt x="164" y="47" on="1"/>
        <pt x="192" y="47" on="0"/>
        <pt x="229" y="106" on="0"/>
        <pt x="236" y="181" on="1"/>
        <pt x="254" y="367" on="0"/>
        <pt x="254" y="386" on="1"/>
        <pt x="253" y="473" on="0"/>
      </contour>
    </TTGlyph>
    <TTGlyph name="percent" xMin="39" yMin="-15" xMax="654" yMax="715">
      <contour>
        <pt x="220" y="-15" on="1"/>
        <pt x="403" y="715" on="1"/>
        <pt x="460" y="715" on="1"/>
        <pt x="277" y="-15" on="1"/>
      </contour>
      <contour>
        <pt x="251" y="581" on="1"/>
        <pt x="251" y="411" on="1"/>
        <pt x="251" y="335" on="0"/>
        <pt x="196" y="277" on="0"/>
        <pt x="94" y="277" on="0"/>
        <pt x="39" y="335" on="0"/>
        <pt x="39" y="411" on="1"/>
        <pt x="39" y="581" on="1"/>
        <pt x="39" y="657" on="0"/>
        <pt x="94" y="715" on="0"/>
        <pt x="196" y="715" on="0"/>
        <pt x="251" y="657" on="0"/>
      </contour>
      <contour>
        <pt x="187" y="402" on="1"/>
        <pt x="187" y="590" on="1"/>
        <pt x="187" y="666" on="0"/>
        <pt x="102" y="666" on="0"/>
        <pt x="102" y="590" on="1"/>
        <pt x="102" y="402" on="1"/>
        <pt x="102" y="326" on="0"/>
        <pt x="187" y="326" on="0"/>
      </contour>
      <contour>
        <pt x="654" y="289" on="1"/>
        <pt x="654" y="119" on="1"/>
        <pt x="654" y="43" on="0"/>
        <pt x="599" y="-15" on="0"/>
        <pt x="497" y="-15" on="0"/>
        <pt x="442" y="43" on="0"/>
        <pt x="442" y="119" on="1"/>
        <pt x="442" y="289" on="1"/>
        <pt x="442" y="365" on="0"/>
        <pt x="497" y="423" on="0"/>
        <pt x="599" y="423" on="0"/>
        <pt x="654" y="365" on="0"/>
      </contour>
      <contour>
        <pt x="590" y="110" on="1"/>
        <pt x="590" y="298" on="1"/>
        <pt x="590" y="374" on="0"/>
        <pt x="505" y="374" on="0"/>
        <pt x="505" y="298" on="1"/>
        <pt x="505" y="110" on="1"/>
        <pt x="505" y="34" on="0"/>
        <pt x="590" y="34" on="0"/>
      </contour>
    </TTGlyph>
    <TTGlyph name="period" xMin="42" yMin="0" xMax="121" yMax="92">
      <contour>
        <pt x="42" y="0" on="1"/>
        <pt x="42" y="92" on="1"/>
        <pt x="121" y="92" on="1"/>
        <pt x="121" y="0" on="1"/>
      </contour>
    </TTGlyph>
    <TTGlyph name="periodcentered" xMin="42" yMin="260" xMax="121" yMax="352">
      <contour>
        <pt x="42" y="260" on="1"/>
        <pt x="42" y="352" on="1"/>
        <pt x="121" y="352" on="1"/>
        <pt x="121" y="260" on="1"/>
      </contour>
    </TTGlyph>
    <TTGlyph name="perthousand" xMin="39" yMin="-15" xMax="921" yMax="715">
      <contour>
        <pt x="220" y="-15" on="1"/>
        <pt x="403" y="715" on="1"/>
        <pt x="460" y="715" on="1"/>
        <pt x="277" y="-15" on="1"/>
      </contour>
      <contour>
        <pt x="251" y="581" on="1"/>
        <pt x="251" y="411" on="1"/>
        <pt x="251" y="335" on="0"/>
        <pt x="196" y="277" on="0"/>
        <pt x="94" y="277" on="0"/>
        <pt x="39" y="335" on="0"/>
        <pt x="39" y="411" on="1"/>
        <pt x="39" y="581" on="1"/>
        <pt x="39" y="657" on="0"/>
        <pt x="94" y="715" on="0"/>
        <pt x="196" y="715" on="0"/>
        <pt x="251" y="657" on="0"/>
      </contour>
      <contour>
        <pt x="187" y="402" on="1"/>
        <pt x="187" y="590" on="1"/>
        <pt x="187" y="666" on="0"/>
        <pt x="102" y="666" on="0"/>
        <pt x="102" y="590" on="1"/>
        <pt x="102" y="402" on="1"/>
        <pt x="102" y="326" on="0"/>
        <pt x="187" y="326" on="0"/>
      </contour>
      <contour>
        <pt x="654" y="289" on="1"/>
        <pt x="654" y="119" on="1"/>
        <pt x="654" y="43" on="0"/>
        <pt x="599" y="-15" on="0"/>
        <pt x="497" y="-15" on="0"/>
        <pt x="442" y="43" on="0"/>
        <pt x="442" y="119" on="1"/>
        <pt x="442" y="289" on="1"/>
        <pt x="442" y="365" on="0"/>
        <pt x="497" y="423" on="0"/>
        <pt x="599" y="423" on="0"/>
        <pt x="654" y="365" on="0"/>
      </contour>
      <contour>
        <pt x="590" y="110" on="1"/>
        <pt x="590" y="298" on="1"/>
        <pt x="590" y="374" on="0"/>
        <pt x="505" y="374" on="0"/>
        <pt x="505" y="298" on="1"/>
        <pt x="505" y="110" on="1"/>
        <pt x="505" y="34" on="0"/>
        <pt x="590" y="34" on="0"/>
      </contour>
      <contour>
        <pt x="921" y="289" on="1"/>
        <pt x="921" y="119" on="1"/>
        <pt x="921" y="43" on="0"/>
        <pt x="866" y="-15" on="0"/>
        <pt x="764" y="-15" on="0"/>
        <pt x="709" y="43" on="0"/>
        <pt x="709" y="119" on="1"/>
        <pt x="709" y="289" on="1"/>
        <pt x="709" y="365" on="0"/>
        <pt x="764" y="423" on="0"/>
        <pt x="866" y="423" on="0"/>
        <pt x="921" y="365" on="0"/>
      </contour>
      <contour>
        <pt x="857" y="110" on="1"/>
        <pt x="857" y="298" on="1"/>
        <pt x="857" y="374" on="0"/>
        <pt x="772" y="374" on="0"/>
        <pt x="772" y="298" on="1"/>
        <pt x="772" y="110" on="1"/>
        <pt x="772" y="34" on="0"/>
        <pt x="857" y="34" on="0"/>
      </contour>
    </TTGlyph>
    <TTGlyph name="pi" xMin="35" yMin="0" xMax="402" yMax="541">
      <contour>
        <pt x="272" y="0" on="1"/>
        <pt x="272" y="477" on="1"/>
        <pt x="164" y="477" on="1"/>
        <pt x="164" y="0" on="1"/>
        <pt x="85" y="0" on="1"/>
        <pt x="85" y="477" on="1"/>
        <pt x="35" y="477" on="1"/>
        <pt x="35" y="541" on="1"/>
        <pt x="402" y="541" on="1"/>
        <pt x="402" y="477" on="1"/>
        <pt x="351" y="477" on="1"/>
        <pt x="351" y="0" on="1"/>
      </contour>
    </TTGlyph>
    <TTGlyph name="plus" xMin="56" yMin="171" xMax="320" yMax="529">
      <contour>
        <pt x="56" y="319" on="1"/>
        <pt x="56" y="381" on="1"/>
        <pt x="159" y="381" on="1"/>
        <pt x="159" y="529" on="1"/>
        <pt x="218" y="529" on="1"/>
        <pt x="218" y="381" on="1"/>
        <pt x="320" y="381" on="1"/>
        <pt x="320" y="319" on="1"/>
        <pt x="218" y="319" on="1"/>
        <pt x="218" y="171" on="1"/>
        <pt x="159" y="171" on="1"/>
        <pt x="159" y="319" on="1"/>
      </contour>
    </TTGlyph>
    <TTGlyph name="plusminus" xMin="56" yMin="0" xMax="320" yMax="529">
      <contour>
        <pt x="56" y="319" on="1"/>
        <pt x="56" y="381" on="1"/>
        <pt x="159" y="381" on="1"/>
        <pt x="159" y="529" on="1"/>
        <pt x="218" y="529" on="1"/>
        <pt x="218" y="381" on="1"/>
        <pt x="320" y="381" on="1"/>
        <pt x="320" y="319" on="1"/>
        <pt x="218" y="319" on="1"/>
        <pt x="218" y="171" on="1"/>
        <pt x="159" y="171" on="1"/>
        <pt x="159" y="319" on="1"/>
      </contour>
      <contour>
        <pt x="56" y="0" on="1"/>
        <pt x="56" y="62" on="1"/>
        <pt x="320" y="62" on="1"/>
        <pt x="320" y="0" on="1"/>
      </contour>
    </TTGlyph>
    <TTGlyph name="product" xMin="35" yMin="-100" xMax="445" yMax="700">
      <contour>
        <pt x="308" y="-100" on="1"/>
        <pt x="308" y="636" on="1"/>
        <pt x="171" y="636" on="1"/>
        <pt x="171" y="-100" on="1"/>
        <pt x="92" y="-100" on="1"/>
        <pt x="92" y="636" on="1"/>
        <pt x="35" y="636" on="1"/>
        <pt x="35" y="700" on="1"/>
        <pt x="445" y="700" on="1"/>
        <pt x="445" y="636" on="1"/>
        <pt x="387" y="636" on="1"/>
        <pt x="387" y="-100" on="1"/>
      </contour>
    </TTGlyph>
    <TTGlyph name="q" xMin="49" yMin="-180" xMax="326" yMax="555">
      <contour>
        <pt x="326" y="540" on="1"/>
        <pt x="326" y="-180" on="1"/>
        <pt x="253" y="-180" on="1"/>
        <pt x="253" y="79" on="1"/>
        <pt x="229" y="-15" on="0"/>
        <pt x="158" y="-15" on="1"/>
        <pt x="106" y="-15" on="0"/>
        <pt x="49" y="76" on="0"/>
        <pt x="49" y="195" on="1"/>
        <pt x="49" y="345" on="1"/>
        <pt x="49" y="464" on="0"/>
        <pt x="106" y="555" on="0"/>
        <pt x="158" y="555" on="1"/>
        <pt x="236" y="555" on="0"/>
        <pt x="259" y="456" on="1"/>
        <pt x="279" y="540" on="1"/>
      </contour>
      <contour>
        <pt x="174" y="493" on="1"/>
        <pt x="123" y="493" on="0"/>
        <pt x="123" y="369" on="1"/>
        <pt x="123" y="171" on="1"/>
        <pt x="123" y="102" on="0"/>
        <pt x="151" y="47" on="0"/>
        <pt x="179" y="47" on="1"/>
        <pt x="195" y="47" on="0"/>
        <pt x="218" y="63" on="0"/>
        <pt x="229" y="84" on="1"/>
        <pt x="251" y="126" on="0"/>
        <pt x="253" y="256" on="1"/>
        <pt x="253" y="284" on="1"/>
        <pt x="252" y="369" on="0"/>
        <pt x="229" y="465" on="0"/>
        <pt x="198" y="493" on="0"/>
      </contour>
    </TTGlyph>
    <TTGlyph name="question" xMin="27" yMin="0" xMax="309" yMax="715">
      <contour>
        <pt x="196" y="168" on="1"/>
        <pt x="136" y="168" on="1"/>
        <pt x="136" y="287" on="0"/>
        <pt x="231" y="481" on="0"/>
        <pt x="231" y="605" on="0"/>
        <pt x="198" y="650" on="0"/>
        <pt x="137" y="650" on="0"/>
        <pt x="104" y="595" on="0"/>
        <pt x="98" y="521" on="1"/>
        <pt x="27" y="532" on="1"/>
        <pt x="35" y="634" on="0"/>
        <pt x="106" y="715" on="0"/>
        <pt x="236" y="715" on="0"/>
        <pt x="309" y="641" on="0"/>
        <pt x="309" y="464" on="0"/>
        <pt x="196" y="251" on="0"/>
      </contour>
      <contour>
        <pt x="127" y="0" on="1"/>
        <pt x="127" y="92" on="1"/>
        <pt x="206" y="92" on="1"/>
        <pt x="206" y="0" on="1"/>
      </contour>
    </TTGlyph>
    <TTGlyph name="questiondown" xMin="30" yMin="-175" xMax="312" yMax="540">
      <contour>
        <pt x="143" y="372" on="1"/>
        <pt x="203" y="372" on="1"/>
        <pt x="203" y="253" on="0"/>
        <pt x="108" y="59" on="0"/>
        <pt x="108" y="-65" on="0"/>
        <pt x="141" y="-110" on="0"/>
        <pt x="202" y="-110" on="0"/>
        <pt x="235" y="-55" on="0"/>
        <pt x="241" y="19" on="1"/>
        <pt x="312" y="8" on="1"/>
        <pt x="304" y="-94" on="0"/>
        <pt x="233" y="-175" on="0"/>
        <pt x="103" y="-175" on="0"/>
        <pt x="30" y="-101" on="0"/>
        <pt x="30" y="76" on="0"/>
        <pt x="143" y="289" on="0"/>
      </contour>
      <contour>
        <pt x="212" y="540" on="1"/>
        <pt x="212" y="448" on="1"/>
        <pt x="133" y="448" on="1"/>
        <pt x="133" y="540" on="1"/>
      </contour>
    </TTGlyph>
    <TTGlyph name="quotedbl" xMin="48" yMin="496" xMax="253" yMax="740">
      <contour>
        <pt x="62" y="496" on="1"/>
        <pt x="48" y="740" on="1"/>
        <pt x="129" y="740" on="1"/>
        <pt x="115" y="496" on="1"/>
      </contour>
      <contour>
        <pt x="187" y="496" on="1"/>
        <pt x="172" y="740" on="1"/>
        <pt x="253" y="740" on="1"/>
        <pt x="238" y="496" on="1"/>
      </contour>
    </TTGlyph>
    <TTGlyph name="quotedblbase" xMin="42" yMin="-120" xMax="235" yMax="92">
      <contour>
        <pt x="156" y="0" on="1"/>
        <pt x="156" y="92" on="1"/>
        <pt x="235" y="92" on="1"/>
        <pt x="235" y="4" on="1"/>
        <pt x="196" y="-120" on="1"/>
        <pt x="166" y="-114" on="1"/>
        <pt x="178" y="0" on="1"/>
      </contour>
      <contour>
        <pt x="42" y="0" on="1"/>
        <pt x="42" y="92" on="1"/>
        <pt x="121" y="92" on="1"/>
        <pt x="121" y="4" on="1"/>
        <pt x="82" y="-120" on="1"/>
        <pt x="52" y="-114" on="1"/>
        <pt x="64" y="0" on="1"/>
      </contour>
    </TTGlyph>
    <TTGlyph name="quotedblleft" xMin="42" yMin="546" xMax="235" yMax="758">
      <contour>
        <pt x="121" y="638" on="1"/>
        <pt x="121" y="546" on="1"/>
        <pt x="42" y="546" on="1"/>
        <pt x="42" y="634" on="1"/>
        <pt x="80" y="758" on="1"/>
        <pt x="112" y="752" on="1"/>
        <pt x="100" y="638" on="1"/>
      </contour>
      <contour>
        <pt x="235" y="638" on="1"/>
        <pt x="235" y="546" on="1"/>
        <pt x="156" y="546" on="1"/>
        <pt x="156" y="634" on="1"/>
        <pt x="194" y="758" on="1"/>
        <pt x="226" y="752" on="1"/>
        <pt x="214" y="638" on="1"/>
      </contour>
    </TTGlyph>
    <TTGlyph name="quotedblright" xMin="42" yMin="534" xMax="235" yMax="746">
      <contour>
        <pt x="156" y="654" on="1"/>
        <pt x="156" y="746" on="1"/>
        <pt x="235" y="746" on="1"/>
        <pt x="235" y="658" on="1"/>
        <pt x="196" y="534" on="1"/>
        <pt x="166" y="540" on="1"/>
        <pt x="178" y="654" on="1"/>
      </contour>
      <contour>
        <pt x="42" y="654" on="1"/>
        <pt x="42" y="746" on="1"/>
        <pt x="121" y="746" on="1"/>
        <pt x="121" y="658" on="1"/>
        <pt x="82" y="534" on="1"/>
        <pt x="52" y="540" on="1"/>
        <pt x="64" y="654" on="1"/>
      </contour>
    </TTGlyph>
    <TTGlyph name="quoteleft" xMin="42" yMin="546" xMax="121" yMax="758">
      <contour>
        <pt x="121" y="638" on="1"/>
        <pt x="121" y="546" on="1"/>
        <pt x="42" y="546" on="1"/>
        <pt x="42" y="634" on="1"/>
        <pt x="80" y="758" on="1"/>
        <pt x="112" y="752" on="1"/>
        <pt x="100" y="638" on="1"/>
      </contour>
    </TTGlyph>
    <TTGlyph name="quoteright" xMin="42" yMin="534" xMax="121" yMax="746">
      <contour>
        <pt x="42" y="654" on="1"/>
        <pt x="42" y="746" on="1"/>
        <pt x="121" y="746" on="1"/>
        <pt x="121" y="658" on="1"/>
        <pt x="82" y="534" on="1"/>
        <pt x="52" y="540" on="1"/>
        <pt x="64" y="654" on="1"/>
      </contour>
    </TTGlyph>
    <TTGlyph name="quotesinglbase" xMin="42" yMin="-120" xMax="121" yMax="92">
      <contour>
        <pt x="42" y="0" on="1"/>
        <pt x="42" y="92" on="1"/>
        <pt x="121" y="92" on="1"/>
        <pt x="121" y="4" on="1"/>
        <pt x="82" y="-120" on="1"/>
        <pt x="52" y="-114" on="1"/>
        <pt x="64" y="0" on="1"/>
      </contour>
    </TTGlyph>
    <TTGlyph name="quotesingle" xMin="48" yMin="496" xMax="129" yMax="740">
      <contour>
        <pt x="62" y="496" on="1"/>
        <pt x="48" y="740" on="1"/>
        <pt x="129" y="740" on="1"/>
        <pt x="115" y="496" on="1"/>
      </contour>
    </TTGlyph>
    <TTGlyph name="r" xMin="63" yMin="0" xMax="250" yMax="555">
      <contour>
        <pt x="230" y="555" on="1"/>
        <pt x="250" y="554" on="1"/>
        <pt x="244" y="469" on="1"/>
        <pt x="230" y="476" on="0"/>
        <pt x="217" y="476" on="1"/>
        <pt x="141" y="476" on="0"/>
        <pt x="140" y="318" on="1"/>
        <pt x="140" y="0" on="1"/>
        <pt x="63" y="0" on="1"/>
        <pt x="63" y="540" on="1"/>
        <pt x="110" y="540" on="1"/>
        <pt x="132" y="448" on="1"/>
        <pt x="152" y="555" on="0"/>
      </contour>
    </TTGlyph>
    <TTGlyph name="radical" xMin="52" yMin="-180" xMax="520" yMax="822">
      <contour>
        <pt x="520" y="822" on="1"/>
        <pt x="520" y="758" on="1"/>
        <pt x="415" y="758" on="1"/>
        <pt x="245" y="-180" on="1"/>
        <pt x="147" y="-180" on="1"/>
        <pt x="52" y="324" on="1"/>
        <pt x="132" y="324" on="1"/>
        <pt x="196" y="-56" on="1"/>
        <pt x="347" y="822" on="1"/>
      </contour>
    </TTGlyph>
    <TTGlyph name="registered" xMin="56" yMin="215" xMax="471" yMax="839">
      <contour>
        <pt x="471" y="570" on="1"/>
        <pt x="471" y="484" on="1"/>
        <pt x="471" y="331" on="0"/>
        <pt x="363" y="215" on="0"/>
        <pt x="163" y="215" on="0"/>
        <pt x="56" y="331" on="0"/>
        <pt x="56" y="484" on="1"/>
        <pt x="56" y="570" on="1"/>
        <pt x="56" y="723" on="0"/>
        <pt x="163" y="839" on="0"/>
        <pt x="363" y="839" on="0"/>
        <pt x="471" y="723" on="0"/>
      </contour>
      <contour>
        <pt x="438" y="484" on="1"/>
        <pt x="438" y="570" on="1"/>
        <pt x="438" y="700" on="0"/>
        <pt x="347" y="799" on="0"/>
        <pt x="179" y="799" on="0"/>
        <pt x="89" y="700" on="0"/>
        <pt x="89" y="570" on="1"/>
        <pt x="89" y="484" on="1"/>
        <pt x="89" y="354" on="0"/>
        <pt x="179" y="255" on="0"/>
        <pt x="347" y="255" on="0"/>
        <pt x="438" y="354" on="0"/>
      </contour>
      <contour>
        <pt x="174" y="310" on="1"/>
        <pt x="174" y="745" on="1"/>
        <pt x="258" y="745" on="1"/>
        <pt x="307" y="745" on="0"/>
        <pt x="360" y="689" on="0"/>
        <pt x="360" y="616" on="1"/>
        <pt x="360" y="608" on="1"/>
        <pt x="360" y="516" on="0"/>
        <pt x="311" y="493" on="1"/>
        <pt x="366" y="310" on="1"/>
        <pt x="308" y="310" on="1"/>
        <pt x="257" y="483" on="1"/>
        <pt x="229" y="483" on="1"/>
        <pt x="229" y="310" on="1"/>
      </contour>
      <contour>
        <pt x="305" y="602" on="1"/>
        <pt x="305" y="624" on="1"/>
        <pt x="305" y="701" on="0"/>
        <pt x="258" y="701" on="1"/>
        <pt x="229" y="701" on="1"/>
        <pt x="229" y="526" on="1"/>
        <pt x="258" y="526" on="1"/>
        <pt x="305" y="526" on="0"/>
      </contour>
    </TTGlyph>
    <TTGlyph name="ring" xMin="24" yMin="586" xMax="176" yMax="794">
      <contour>
        <pt x="176" y="697" on="1"/>
        <pt x="176" y="683" on="1"/>
        <pt x="176" y="627" on="0"/>
        <pt x="136" y="586" on="0"/>
        <pt x="64" y="586" on="0"/>
        <pt x="24" y="627" on="0"/>
        <pt x="24" y="683" on="1"/>
        <pt x="24" y="697" on="1"/>
        <pt x="24" y="753" on="0"/>
        <pt x="64" y="794" on="0"/>
        <pt x="136" y="794" on="0"/>
        <pt x="176" y="753" on="0"/>
      </contour>
      <contour>
        <pt x="127" y="677" on="1"/>
        <pt x="127" y="703" on="1"/>
        <pt x="127" y="752" on="0"/>
        <pt x="73" y="752" on="0"/>
        <pt x="73" y="703" on="1"/>
        <pt x="73" y="677" on="1"/>
        <pt x="73" y="628" on="0"/>
        <pt x="127" y="628" on="0"/>
      </contour>
    </TTGlyph>
</ttFont>
